<svg xmlns="http://www.w3.org/2000/svg" width="79" height="66" viewBox="0 0 79 66">
  <defs>
    <style>
      .cls-1 {
        fill: #00bf81;
        fill-rule: evenodd;
      }
    </style>
  </defs>
  <path id="Фигура_5" data-name="Фигура 5" class="cls-1" d="M765.5,2029.54a11.77,11.77,0,1,0-11.811-11.77,11.8,11.8,0,0,0,11.811,11.77h0Zm0-20.54a8.77,8.77,0,1,1-8.8,8.77,8.8,8.8,0,0,1,8.8-8.77h0Zm0-.61-13.007,41.87h-3.2a16.233,16.233,0,0,1,16.2-15.11h0a16.234,16.234,0,0,1,16.205,15.11H752.493Zm3.345,3.22h28.9a1.192,1.192,0,0,0,1.2-1.19,20.436,20.436,0,0,0-40.871,0,1.191,1.191,0,0,0,1.2,1.19h9.576Zm9.662-19.17-9.42,28.53-4.1-.68-1.92-3.68a0.749,0.749,0,0,0-1.325,0l-1.92,3.68-4.1.68a0.748,0.748,0,0,0-.409,1.26l2.911,2.95-0.612,4.1a0.742,0.742,0,0,0,1.071.77l3.72-1.84,3.719,1.84a0.746,0.746,0,0,0,.771-0.06,0.749,0.749,0,0,0,.3-0.71l-0.612-4.1,2.911-2.95a0.746,0.746,0,0,0-.409-1.26h0Zm-4.286,3.26a0.627,0.627,0,0,0-.173.53l0.383,2.56-2.325-1.15a0.612,0.612,0,0,0-.559,0l-2.324,1.15,0.382-2.56a0.627,0.627,0,0,0-.173-0.53l-1.819-1.85,2.561-.43a0.621,0.621,0,0,0,.452-0.32l1.2-2.3,1.2,2.3a0.621,0.621,0,0,0,.452.32l2.561,0.43Zm0.458,0.17,19.928-3.43-4.1-.68-1.921-3.68a0.748,0.748,0,0,0-1.324,0l-1.92,3.68-4.1.68a0.749,0.749,0,0,0-.586.51,0.739,0.739,0,0,0,.177.75l2.911,2.95-0.613,4.1a0.751,0.751,0,0,0,.3.71,0.741,0.741,0,0,0,.772.06l3.719-1.84,3.719,1.84a0.787,0.787,0,0,0,.333.08,0.779,0.779,0,0,0,.44-0.14,0.75,0.75,0,0,0,.3-0.71l-0.612-4.1,2.911-2.95a0.746,0.746,0,0,0-.41-1.26h0Zm-4.286,3.26a0.63,0.63,0,0,0-.172.53l0.382,2.56-2.324-1.15a0.593,0.593,0,0,0-.559,0l-2.325,1.15,0.383-2.56a0.627,0.627,0,0,0-.173-0.53l-1.819-1.85,2.561-.43a0.621,0.621,0,0,0,.452-0.32l1.2-2.3,1.2,2.3a0.623,0.623,0,0,0,.453.32l2.561,0.43Zm0.458,0.17-28.373-3.43-4.1-.68-1.92-3.68a0.749,0.749,0,0,0-1.325,0l-1.92,3.68-4.1.68a0.748,0.748,0,0,0-.409,1.26l2.911,2.95-0.612,4.1a0.742,0.742,0,0,0,1.071.77l3.719-1.84,3.72,1.84a0.746,0.746,0,0,0,.771-0.06,0.749,0.749,0,0,0,.3-0.71l-0.612-4.1,2.911-2.95a0.746,0.746,0,0,0-.409-1.26h0Zm-4.286,3.26a0.627,0.627,0,0,0-.173.53l0.383,2.56-2.325-1.15a0.612,0.612,0,0,0-.559,0l-2.325,1.15,0.383-2.56a0.627,0.627,0,0,0-.173-0.53l-1.819-1.85,2.561-.43a0.621,0.621,0,0,0,.452-0.32l1.2-2.3,1.2,2.3a0.621,0.621,0,0,0,.452.32l2.561,0.43Zm0.458,0.17,52.717-2.92a0.749,0.749,0,0,0-.587-0.51l-4.1-.68-1.92-3.68a0.749,0.749,0,0,0-1.325,0l-1.92,3.68-4.1.68a0.748,0.748,0,0,0-.409,1.26l2.91,2.95-0.612,4.1a0.751,0.751,0,0,0,.3.71,0.741,0.741,0,0,0,.772.06l3.719-1.84,3.719,1.84a0.747,0.747,0,0,0,.772-0.06,0.751,0.751,0,0,0,.3-0.71l-0.613-4.1,2.911-2.95a0.743,0.743,0,0,0,.178-0.75h0ZM784,2066.1a0.627,0.627,0,0,0-.173.53l0.382,2.56-2.324-1.15a0.56,0.56,0,0,0-.28-0.07,0.554,0.554,0,0,0-.279.07L779,2069.19l0.383-2.56a0.627,0.627,0,0,0-.173-0.53l-1.819-1.85,2.561-.43a0.621,0.621,0,0,0,.452-0.32l1.2-2.3,1.2,2.3a0.623,0.623,0,0,0,.453.32l2.561,0.43Zm0.457,0.17,20.516-2.92a0.751,0.751,0,0,0-.587-0.51l-4.1-.68-1.92-3.68a0.749,0.749,0,0,0-1.325,0l-1.92,3.68-4.1.68a0.748,0.748,0,0,0-.409,1.26l2.911,2.95-0.612,4.1a0.749,0.749,0,0,0,.3.71,0.74,0.74,0,0,0,.771.06l3.719-1.84,3.72,1.84a0.747,0.747,0,0,0,.772-0.06,0.748,0.748,0,0,0,.3-0.71l-0.612-4.1,2.911-2.95a0.743,0.743,0,0,0,.178-0.75h0Zm-4.873,2.75a0.63,0.63,0,0,0-.173.53l0.383,2.56-2.325-1.15a0.593,0.593,0,0,0-.559,0l-2.324,1.15,0.382-2.56a0.63,0.63,0,0,0-.172-0.53l-1.82-1.85,2.561-.43a0.623,0.623,0,0,0,.453-0.32l1.2-2.3,1.2,2.3a0.623,0.623,0,0,0,.452.32l2.562,0.43Zm0.458,0.17M765.5,2023.18a5.419,5.419,0,0,0,4.1-1.87,1.186,1.186,0,0,0-.117-1.68,1.2,1.2,0,0,0-1.689.12,3.039,3.039,0,0,1-4.578,0,1.2,1.2,0,0,0-1.689-.12,1.187,1.187,0,0,0-.117,1.68,5.421,5.421,0,0,0,4.1,1.87h0Zm0,0" transform="translate(-726 -2006)"/>
</svg>
