<svg xmlns="http://www.w3.org/2000/svg" width="25" height="23" viewBox="0 0 25 23">
  <defs>
    <style>
      .cls-1 {
        fill: #282828;
        fill-rule: evenodd;
      }
    </style>
  </defs>
  <path id="Фигура_2_копия" data-name="Фигура 2 копия" class="cls-1" d="M562.1,2157.9a6.394,6.394,0,0,0-9.136,0L540.4,2170.63a4.963,4.963,0,0,0,0,6.95,4.793,4.793,0,0,0,5.752.81,0.832,0.832,0,0,0,.529-0.23l12.561-12.74a3.306,3.306,0,0,0,0-4.63,3.2,3.2,0,0,0-4.568,0L544.4,2171.21a0.83,0.83,0,0,0,0,1.16,0.8,0.8,0,0,0,1.142,0l10.277-10.42a1.6,1.6,0,0,1,2.284,0,1.646,1.646,0,0,1,0,2.31l-11.991,12.16a3.2,3.2,0,0,1-4.567,0,3.3,3.3,0,0,1,0-4.63l12.561-12.74a4.8,4.8,0,0,1,6.852,0,4.963,4.963,0,0,1,0,6.95l-11.419,11.58a0.818,0.818,0,0,0,0,1.15,0.8,0.8,0,0,0,1.142,0l11.419-11.57a6.612,6.612,0,0,0,0-9.26h0Zm0,0" transform="translate(-539 -2156)"/>
</svg>
