<?xml version="1.0" encoding="utf-8"?>
<!-- Generator: Adobe Illustrator 19.0.1, SVG Export Plug-In . SVG Version: 6.00 Build 0)  -->
<svg version="1.1" id="Layer_1" xmlns="http://www.w3.org/2000/svg" xmlns:xlink="http://www.w3.org/1999/xlink" x="0px" y="0px"
	 viewBox="0 0 665.7 720.2" style="enable-background:new 0 0 665.7 720.2;" xml:space="preserve">
<style type="text/css">
	.st0{fill:#00BF81;}
</style>
<g id="XMLID_6476_">
	<path id="XMLID_27692_" class="st0" d="M259.1,69c0-23.2,0-46,0-69c48.2,0,95.9,0,144.3,0c0,22.7,0,45.4,0,68.1
		c10.9,3.1,21.4,5.6,31.6,9.1c97.4,32.8,166.6,96.3,206.7,191c16.8,39.6,25.2,81.3,23.8,124.2c-4.2,130.7-64.8,227.6-179.2,290
		c-57.5,31.4-120.1,43-185,35.8C180.6,704.6,91.4,643.3,34.7,535.8c-16.3-30.8-25.9-64-30.9-98.6C-0.6,407.7-1.6,378,3,348.6
		C22.8,223.1,92,135.6,208.3,85.4c14.7-6.3,30.6-10,46-14.9C255.7,70.1,257.1,69.6,259.1,69z M609.9,390.9
		c0.3-35.4-6.3-69.6-19.7-102.3C536.5,157.4,393.6,87.7,256.2,126.9C149.4,157.4,72.4,247.1,58,356.4c-5.4,41.3-2.1,82.2,12.4,121.1
		C111.1,586.2,190,648.2,304.8,663.2c43.7,5.7,86.6-1,128-16.8C539.1,605.9,609.6,504.2,609.9,390.9z"/>
	<path id="XMLID_27684_" class="st0" d="M116.9,392.6c22.6-3.7,77.1-12.6,81.8-13.1c2.9-0.3,3.7-1.7,4.1-4.5
		c5.6-51.1,32.3-87.1,78.9-108.2c9.9-4.5,20.9-6.5,31.5-9.2c2.8-0.7,3.7-1.6,4.1-4.3c4.1-25.5,14.5-80.6,14.5-80.6
		c2.7,16.1,11.5,69.7,13.4,80.3c0.3,1.4,2.1,3.5,3.5,3.7c16.2,2.1,31.4,7.1,45.9,14.5c1.5,0.7,4.4-0.2,6.1-1.3
		c30.4-20.1,95.6-62.6,95.6-62.6c-6.3,11.1-43.3,76.5-55.6,98c-1.5,2.6-1.7,4.4,0.2,7.1c11.7,16.6,19.5,34.8,22,55
		c0.6,5.2,2.7,7.2,7.8,7.9c22.9,3.4,77.5,13.3,77.5,13.3s-59.4,10-80.9,13.4c-2.9,0.5-4.1,1.3-4.6,4.4
		c-9.2,54.5-50.1,96.2-104.5,107c-1,0.2-1.9,0.5-2.9,0.7c-8.3,1.7-8.1,1.8-9.4,10c-3.9,24.6-13,73.9-13,73.9s-9.8-56.4-12.8-76.4
		c-0.7-4.9-2.2-6.7-7.4-7.5c-13.9-2-27.2-6.4-39.5-13.2c-3.5-1.9-5.9-1.9-9.3,0.4c-34.9,23.5-109.2,72-109.2,72
		s47.4-83.9,65.4-115.4c1.6-2.9,1.5-4.9-0.1-7.6c-7.3-12.2-12.7-25.3-15.1-39.4c-0.6-3.6-2.9-3.9-5.5-4.3
		C173,402.5,116.9,392.6,116.9,392.6z M195.5,529.9c0,0,109-72.5,160.7-107.1c1.7-1.1,3.2-2.9,4.3-4.7
		c30.6-54,94.3-166.8,94.3-166.8s-108,72-159.7,106.6c-2,1.3-3.8,3.3-5,5.4c-27.2,47.9-54.4,95.8-81.5,143.7
		C204.6,514,195.5,529.9,195.5,529.9z M294.7,480.9c43.1,17.6,92.7,3.7,120.6-33.1c26.9-35.4,25.2-81.3,7-109.7
		c-0.5,0.8-0.9,1.4-1.3,2.1c-14.9,26.3-30,52.6-44.7,79c-4.3,7.8-9.3,14.3-17.2,18.7c-7.1,4-13.6,9-20.4,13.5
		C324.2,461.2,309.7,470.9,294.7,480.9z M368.1,291.8c-32.8-13.1-79.4-7.4-110.7,26c-29.8,31.9-33.4,77.2-19,107.1
		c0.5-0.8,0.9-1.5,1.3-2.2c12.8-22.6,25.5-45.2,38.5-67.6c1.8-3.2,4.6-6.1,7.6-8.2c13.8-9.6,27.9-18.8,41.8-28.1
		C341,309.9,354.3,301.1,368.1,291.8z"/>
	<path id="XMLID_27678_" class="st0" d="M350.3,387.6c-0.6,12.5-11.1,22.2-23.4,21.6c-12.5-0.6-22.6-11.3-22-23.2
		c0.7-12.6,11.3-22.1,24-21.6C341.2,365,350.9,375.6,350.3,387.6z"/>
</g>
</svg>
