<svg xmlns="http://www.w3.org/2000/svg" width="169.938" height="11.906" viewBox="0 0 169.938 11.906">
  <defs>
    <style>
      .cls-1 {
        fill-rule: evenodd;
      }
    </style>
  </defs>
  <path id="type" class="cls-1" d="M70.615,90.4l1.291,11.283H68.911l-0.169-2.111H64.4l-1.354,2.111H60.064L67.757,90.4h2.858Zm-1.943,7.253-0.316-4.3-2.8,4.3h3.115ZM83.19,90.4h3.32l-6.276,5.158,3.34,6.125H80.117l-2.676-5.513H77.407l-1.568,5.513H73.016L76.226,90.4h2.823L77.7,95.142h0.034Zm10.321,4.191H96.4c0.975,0,4.524.1,3.5,3.69-0.656,2.305-2.747,3.4-5.52,3.4H88.67L91.88,90.4h9.308L100.565,92.6H94.079Zm-1.394,4.9H94.41c1.112,0,2.16-.193,2.467-1.273,0.385-1.354-.961-1.434-1.645-1.434H92.887ZM110.05,90.4l1.292,11.283h-3l-0.17-2.111h-4.346l-1.353,2.111H99.5L107.193,90.4h2.857Zm-1.943,7.253-0.316-4.3-2.8,4.3h3.115ZM121.239,90.4c2.413,0,4.275.855,3.482,3.643-1.009,3.546-4.2,3.756-5.655,3.756h-2.687l-1.105,3.884h-2.823l3.21-11.283h5.578ZM117,95.609h2.208c1.351,0,2.147-.451,2.459-1.547,0.435-1.531-.969-1.467-1.6-1.467H117.86Zm19.184,2.1a6.678,6.678,0,0,1-6.667,4.3c-3.062,0-5.493-1.321-4.232-5.754,1.692-5.947,6.359-6.173,7.523-6.173,4.261,0,4.611,2.5,4.224,4.158h-2.772c0.263-1.886-1.289-1.966-1.939-1.966-0.633,0-2.889.113-3.962,3.885-0.6,2.127-.015,3.659,1.9,3.659A3.315,3.315,0,0,0,133.38,97.7h2.807Zm14.788-7.3h3.319l-6.276,5.158,3.34,6.125H147.9l-2.675-5.513h-0.034l-1.568,5.513H140.8L144.01,90.4h2.824l-1.348,4.739h0.033Zm12.1,4.481-0.592,2.079h-5.852l-0.72,2.531h6.811l-0.624,2.192h-9.634l3.21-11.283h9.463L164.517,92.6h-6.64l-0.651,2.289h5.853Zm9.5-4.481c2.412,0,4.274.855,3.481,3.643-1.009,3.546-4.2,3.756-5.655,3.756h-2.685l-1.106,3.884h-2.823l3.21-11.283h5.578Zm-4.236,5.206h2.207c1.352,0,2.147-.451,2.459-1.547,0.436-1.531-.968-1.467-1.6-1.467h-2.207ZM184.764,90.4l1.291,11.283h-3l-0.169-2.111h-4.347l-1.353,2.111h-2.978L181.906,90.4h2.858Zm-1.944,7.253-0.316-4.3-2.8,4.3h3.114Zm9.512-4.03h-0.051l-2.292,8.059h-2.824l3.21-11.283h3.97L195,98.156l5.062-7.753h3.971l-3.21,11.283H198l2.293-8.059h-0.051l-5.287,8.059h-1.917ZM214.26,90.4h2.823l-3.209,11.283H211.05l2.095-7.366-6.869,7.366h-2.823L206.662,90.4h2.823l-2.072,7.286Zm12.421,0H230l-6.275,5.158,3.339,6.125h-3.457l-2.675-5.513H220.9l-1.569,5.513h-2.823l3.21-11.283h2.823l-1.348,4.739h0.034Z" transform="translate(-60.063 -90.094)"/>
</svg>
