<?xml version="1.0" encoding="utf-8"?>
<!-- Generator: Adobe Illustrator 19.0.0, SVG Export Plug-In . SVG Version: 6.00 Build 0)  -->
<svg version="1.1" id="Layer_1" xmlns="http://www.w3.org/2000/svg" xmlns:xlink="http://www.w3.org/1999/xlink" x="0px" y="0px"
	 viewBox="0 0 758.4 451.2" style="enable-background:new 0 0 758.4 451.2;" xml:space="preserve">
<style type="text/css">
	.st0{fill:#EFEFEF;}
	.st1{fill:#FFFFFF;}
</style>
<g id="XMLID_234_">
	<polygon id="XMLID_256_" class="st0" points="189.6,451.2 0,364.7 0,129.6 189.6,216.1 	"/>
	<polygon id="XMLID_255_" class="st1" points="189.6,451.2 379.2,364.7 379.2,129.6 189.6,216.1 	"/>
	<path id="XMLID_253_" class="st0" d="M277.6,120.2c0,24.3-39.7,43.3-87.9,43.3c-47.4,0-86.5-8.6-87.8-43.6h-0.1l0.1-77.3l0,0
		c0-0.4,0.5,0.5,0.5,0c0-24.3,174-23.8,174,0.5C276.4,43.7,277.6,120.2,277.6,120.2z"/>
	<ellipse id="XMLID_252_" class="st1" cx="189.1" cy="44.1" rx="87.3" ry="44.1"/>
	<polygon id="XMLID_251_" class="st0" points="568.8,451.2 379.2,364.7 379.2,129.6 568.8,216.1 	"/>
	<polygon id="XMLID_250_" class="st1" points="568.8,451.2 758.4,364.7 758.4,129.6 568.8,216.1 	"/>
	<path id="XMLID_248_" class="st0" d="M652.9,120.2c0,24.3-37.8,43.3-86,43.3c-47.4,0-84.5-8.6-85.9-43.6H481l0.1-77.3l0,0
		c0-0.4,174.5-22.4,174.5,1.9C655.6,45.1,652.9,120.2,652.9,120.2z"/>
	<ellipse id="XMLID_247_" class="st1" cx="568.3" cy="44.1" rx="87.3" ry="44.1"/>
</g>
</svg>
