<svg xmlns="http://www.w3.org/2000/svg" width="74" height="58" viewBox="0 0 74 58">
  <defs>
    <style>
      .cls-1 {
        fill: #00bf81;
        fill-rule: evenodd;
      }
    </style>
  </defs>
  <path id="Фигура_6" data-name="Фигура 6" class="cls-1" d="M525.7,2072H458.322a3.325,3.325,0,0,1-3.322-3.32v-51.3a3.351,3.351,0,0,1,3.322-3.38H479.6a3.3,3.3,0,0,1,3.3,3.29v21.53l14.909-9.93a5.41,5.41,0,0,1,8.41,4.49v5.12l14.412-9.61a5.356,5.356,0,0,1,5.526-.27h0a5.381,5.381,0,0,1,2.84,4.75v35.33A3.3,3.3,0,0,1,525.7,2072Zm-66.488-4.21h65.575v-34.42a1.179,1.179,0,0,0-.617-1.04h0a1.126,1.126,0,0,0-1.2.06l-16.053,10.7a3.157,3.157,0,0,1-4.911-2.62v-7.09a1.19,1.19,0,0,0-.635-1.05,1.206,1.206,0,0,0-1.23.06L483.6,2043.41a3.156,3.156,0,0,1-4.91-2.63v-22.57H459.212v49.58Zm36.336-10.81h-6a2.27,2.27,0,0,1-2.262-2.27v-5.99a2.261,2.261,0,0,1,2.262-2.26h6a2.262,2.262,0,0,1,2.263,2.26v5.99A2.271,2.271,0,0,1,495.548,2056.98Zm-5.452-2.81H495v-4.91H490.1v4.91Zm27.857,2.81h-6a2.27,2.27,0,0,1-2.263-2.27v-5.99a2.261,2.261,0,0,1,2.263-2.26h6a2.258,2.258,0,0,1,2.255,2.26v5.99A2.266,2.266,0,0,1,517.953,2056.98Zm-5.452-2.81h4.9v-4.91h-4.9v4.91Zm6.3,0.54" transform="translate(-455 -2014)"/>
</svg>
