<?xml version="1.0" encoding="utf-8"?>
<!-- Generator: Adobe Illustrator 19.0.1, SVG Export Plug-In . SVG Version: 6.00 Build 0)  -->
<svg version="1.1" id="Layer_1" xmlns="http://www.w3.org/2000/svg" xmlns:xlink="http://www.w3.org/1999/xlink" x="0px" y="0px"
	 viewBox="0 0 388 352" style="enable-background:new 0 0 388 352;" xml:space="preserve">
<style type="text/css">
	.st0{fill:#00BF81;}
</style>
<g>
	<g>
		<path class="st0" d="M272,0v55.2l-76,62.2V46l-96,72V45.3L0,127.2V352h388V0H272z M12,184h32v28H12V184z M12,264h32v28H12V264z
			 M272,340H12v-36h248v-52H12v-28h248v-52H12v-39.2l76-62.2V142l96-72v72.7l88-72V340z M56,292v-28h28v28H56z M96,292v-28h28v28H96
			z M136,292v-28h28v28H136z M176,292v-28h28v28H176z M216,292v-28h32v28H216z M56,212v-28h28v28H56z M96,212v-28h28v28H96z
			 M136,212v-28h28v28H136z M176,212v-28h28v28H176z M216,212v-28h32v28H216z M376,340h-92V12h92V340z M376,340"/>
		<rect x="302" y="44" class="st0" width="24" height="12"/>
		<rect x="334" y="44" class="st0" width="24" height="12"/>
		<rect x="302" y="76" class="st0" width="24" height="12"/>
		<rect x="334" y="76" class="st0" width="24" height="12"/>
		<rect x="302" y="108" class="st0" width="24" height="12"/>
		<rect x="334" y="108" class="st0" width="24" height="12"/>
		<rect x="302" y="140" class="st0" width="24" height="12"/>
		<rect x="334" y="140" class="st0" width="24" height="12"/>
		<rect x="302" y="172" class="st0" width="24" height="12"/>
		<rect x="334" y="172" class="st0" width="24" height="12"/>
		<rect x="302" y="204" class="st0" width="24" height="12"/>
		<rect x="334" y="204" class="st0" width="24" height="12"/>
		<rect x="302" y="236" class="st0" width="24" height="12"/>
		<rect x="334" y="236" class="st0" width="24" height="12"/>
		<rect x="302" y="268" class="st0" width="24" height="12"/>
		<rect x="334" y="268" class="st0" width="24" height="12"/>
		<rect x="302" y="300" class="st0" width="24" height="12"/>
		<rect x="334" y="300" class="st0" width="24" height="12"/>
	</g>
</g>
</svg>
