<?xml version="1.0" encoding="utf-8"?>
<!-- Generator: Adobe Illustrator 19.0.0, SVG Export Plug-In . SVG Version: 6.00 Build 0)  -->
<svg version="1.1" id="Layer_1" xmlns="http://www.w3.org/2000/svg" xmlns:xlink="http://www.w3.org/1999/xlink" x="0px" y="0px"
	 viewBox="0 0 501.3 571.8" style="enable-background:new 0 0 501.3 571.8;" xml:space="preserve">
<style type="text/css">
	.st0{fill:#FFFFFF;}
</style>
<g id="XMLID_3515_">
	<path id="XMLID_5487_" class="st0" d="M333.2,328l2.3,1.5c1.7,0.9,2.9,2.6,2.9,4.7v187.6c11.1-6.3,142.5-81.1,162.8-92.9V143
		l-78.2-44.9l-168.4,96.1l0.6,89.1l77.9,44.9"/>
	<path id="XMLID_5492_" class="st0" d="M338.4,521.7L338.4,521.7C337.5,522.3,337.4,522.3,338.4,521.7z"/>
</g>
<g id="XMLID_5490_">
	<path id="XMLID_5491_" class="st0" d="M250.6,0L0,143v89.1l8.1,4.7l158.8,90.9l77.6-44.3l-0.3-89.1v-2.9c-0.3-1.7,0.9-3.8,2.6-4.7
		l165.7-94.6C401.1,85.7,270.6,11.2,250.6,0z"/>
	<path id="XMLID_5493_" class="st0" d="M412.6,92.1L412.6,92.1C413.6,92.7,413.6,92.7,412.6,92.1z"/>
</g>
<path id="XMLID_5485_" class="st0" d="M250.6,571.8l77.1-44V337.3l-77.6-44.9l-80.3,45.7l-0.6,0.3l0,0l0,0c-0.3,0.3-0.6,0.3-0.9,0.3
	h-0.3l0,0h-0.3l0,0c-0.3,0.3-0.6,0.3-0.9,0.3c0,0-0.3,0-0.6-0.3l0,0H166l0,0h-0.3c-0.3,0-0.6,0-0.9-0.3l0,0l0,0l-0.6-0.3L0,244.4
	v184.4L250.6,571.8z"/>
</svg>
