<svg xmlns="http://www.w3.org/2000/svg" width="7.06" height="16" viewBox="0 0 7.06 16">
  <defs>
    <style>
      .cls-1 {
        fill-rule: evenodd;
      }
    </style>
  </defs>
  <path id="фб" class="cls-1" d="M1010.16,3547h-1.54v-2.71h1.54v-0.25c0-.6-0.02-1.19.01-1.79a3.962,3.962,0,0,1,.49-1.91,2.488,2.488,0,0,1,1.74-1.18,10.39,10.39,0,0,1,1.25-.14c0.66-.02,1.33-0.01,2-0.01v2.73h-0.23c-0.49.02-.97,0.03-1.46,0.05a0.673,0.673,0,0,0-.63.6,0.653,0.653,0,0,0,0,.14v1.74h2.37c-0.09.92-.18,1.82-0.28,2.73h-2.07a1.481,1.481,0,0,0-.03.19q0,3.765.01,7.51c0,0.23-.06.3-0.28,0.3-0.88-.02-1.77-0.01-2.66-0.01-0.18.01-.23-0.05-0.23-0.24V3547Z" transform="translate(-1008.63 -3539)"/>
</svg>
