<svg xmlns="http://www.w3.org/2000/svg" width="83" height="61.03" viewBox="0 0 83 61.03">
  <defs>
    <style>
      .cls-1 {
        fill: #00bf81;
        fill-rule: evenodd;
      }
    </style>
  </defs>
  <path id="Фигура_4" data-name="Фигура 4" class="cls-1" d="M1070.17,2032.57l-27.86-21.18a2.085,2.085,0,0,0-2.51,0l-4.58,3.48-4.58-3.48a2.085,2.085,0,0,0-2.51,0l-4.46,3.4-4.47-3.4a2.085,2.085,0,0,0-2.51,0l-27.862,21.18a2.11,2.11,0,0,0-.828,1.67v35.66a2.091,2.091,0,0,0,2.082,2.1h78.838a2.089,2.089,0,0,0,2.08-2.1v-35.66a2.118,2.118,0,0,0-.83-1.67h0Zm-3.33,35.23h-7.51v-33.56a2.088,2.088,0,0,0-.83-1.67l-19.82-15.07,2.37-1.81,25.79,19.6v32.51Zm-18.95,0v-33.56a2.088,2.088,0,0,0-.83-1.67l-19.94-15.16,2.27-1.72,25.78,19.6v32.51h-7.28Zm-26.54,0h-6.81v-15.21h6.81v15.21Zm4.17,0v-17.31a2.089,2.089,0,0,0-2.08-2.1h-10.98a2.1,2.1,0,0,0-2.09,2.1v17.31H992.163v-32.51l25.787-19.6,25.78,19.6v32.51h-18.21Zm0,0" transform="translate(-988 -2010.97)"/>
</svg>
