<?xml version="1.0" encoding="utf-8"?>
<!-- Generator: Adobe Illustrator 19.0.0, SVG Export Plug-In . SVG Version: 6.00 Build 0)  -->
<svg version="1.1" id="Layer_1" xmlns="http://www.w3.org/2000/svg" xmlns:xlink="http://www.w3.org/1999/xlink" x="0px" y="0px"
	 viewBox="0 0 315.5 264.5" style="enable-background:new 0 0 315.5 264.5;" xml:space="preserve">
<path id="XMLID_11436_" fill="#00bf81" d="M157.7,94.3c26,0,47.2-21.2,47.2-47.2c0-26-21.2-47.2-47.2-47.2c-26,0-47.2,21.2-47.2,47.2
	C110.6,73.2,131.7,94.3,157.7,94.3L157.7,94.3z M157.7,12c19.4,0,35.1,15.8,35.1,35.1c0,19.4-15.8,35.1-35.1,35.1
	s-35.1-15.8-35.1-35.1C122.6,27.8,138.4,12,157.7,12L157.7,12z M157.7,9.6"/>
<path id="XMLID_11433_" fill="#00bf81" d="M105.8,177.3H93c2.2-33.8,30.4-60.5,64.7-60.5l0,0c34.3,0,62.5,26.8,64.7,60.5H123H105.8z M119.2,190.3
	h115.4c2.6,0,4.8-2.1,4.8-4.8c0-45-36.6-81.6-81.6-81.6c-45,0-81.6,36.6-81.6,81.6c0,2.6,2.1,4.8,4.8,4.8H100H119.2z M157.7,113.4"
	/>
<path id="XMLID_11429_" fill="#00bf81" d="M120.1,227.8l-16.4-2.7l-7.7-14.7c-0.5-1-1.5-1.6-2.6-1.6c-1.1,0-2.1,0.6-2.6,1.6L83.1,225l-16.4,2.7
	c-1.1,0.2-2,1-2.3,2c-0.3,1.1-0.1,2.2,0.7,3l11.6,11.8L74.3,261c-0.2,1.1,0.3,2.2,1.2,2.9c0.9,0.7,2.1,0.8,3.1,0.3l14.8-7.4
	l14.8,7.4c0.4,0.2,0.9,0.3,1.3,0.3c0.6,0,1.2-0.2,1.8-0.6c0.9-0.7,1.4-1.8,1.2-2.9l-2.4-16.4l11.6-11.8c0.8-0.8,1.1-2,0.7-3
	C122.1,228.7,121.2,227.9,120.1,227.8L120.1,227.8z M103,240.8c-0.5,0.6-0.8,1.3-0.7,2.1l1.5,10.3l-9.3-4.6c-0.7-0.4-1.5-0.4-2.2,0
	l-9.3,4.6l1.5-10.3c0.1-0.8-0.1-1.6-0.7-2.1l-7.3-7.4l10.2-1.7c0.8-0.1,1.4-0.6,1.8-1.3l4.8-9.2l4.8,9.2c0.4,0.7,1,1.2,1.8,1.3
	l10.2,1.7L103,240.8z M104.8,241.5"/>
<path id="XMLID_11425_" fill="#00bf81" d="M184.4,227.8L168,225l-7.7-14.7c-0.5-1-1.5-1.6-2.6-1.6c-1.1,0-2.1,0.6-2.6,1.6l-7.7,14.7l-16.4,2.7
	c-1.1,0.2-2,1-2.3,2c-0.3,1.1-0.1,2.2,0.7,3l11.6,11.8l-2.4,16.4c-0.2,1.1,0.3,2.2,1.2,2.9c0.9,0.7,2.1,0.8,3.1,0.3l14.8-7.4
	l14.8,7.4c0.4,0.2,0.9,0.3,1.3,0.3c0.6,0,1.2-0.2,1.8-0.6c0.9-0.7,1.4-1.8,1.2-2.9l-2.4-16.4l11.6-11.8c0.8-0.8,1.1-2,0.7-3
	C186.4,228.7,185.5,227.9,184.4,227.8L184.4,227.8z M167.3,240.8c-0.5,0.6-0.8,1.3-0.7,2.1l1.5,10.3l-9.3-4.6
	c-0.4-0.2-0.7-0.3-1.1-0.3c-0.4,0-0.8,0.1-1.1,0.3l-9.3,4.6l1.5-10.3c0.1-0.8-0.1-1.6-0.7-2.1l-7.3-7.4l10.2-1.7
	c0.8-0.1,1.4-0.6,1.8-1.3l4.8-9.2l4.8,9.2c0.4,0.7,1,1.2,1.8,1.3l10.2,1.7L167.3,240.8z M169.1,241.5"/>
<path id="XMLID_11446_" fill="#00bf81" d="M55.8,227.8L39.5,225l-7.7-14.7c-0.5-1-1.5-1.6-2.6-1.6c-1.1,0-2.1,0.6-2.6,1.6L18.8,225l-16.4,2.7
	c-1.1,0.2-2,1-2.3,2c-0.3,1.1-0.1,2.2,0.7,3l11.6,11.8L10,261c-0.2,1.1,0.3,2.2,1.2,2.9c0.9,0.7,2.1,0.8,3.1,0.3l14.8-7.4l14.8,7.4
	c0.4,0.2,0.9,0.3,1.3,0.3c0.6,0,1.2-0.2,1.8-0.6c0.9-0.7,1.4-1.8,1.2-2.9l-2.4-16.4l11.6-11.8c0.8-0.8,1.1-2,0.7-3
	C57.8,228.7,56.9,227.9,55.8,227.8L55.8,227.8z M38.7,240.8c-0.5,0.6-0.8,1.3-0.7,2.1l1.5,10.3l-9.3-4.6c-0.7-0.4-1.5-0.4-2.2,0
	l-9.3,4.6l1.5-10.3c0.1-0.8-0.1-1.6-0.7-2.1l-7.3-7.4l10.2-1.7c0.8-0.1,1.4-0.6,1.8-1.3l4.8-9.2l4.8,9.2c0.4,0.7,1,1.2,1.8,1.3
	l10.2,1.7L38.7,240.8z M40.5,241.5"/>
<path id="XMLID_11421_" fill="#00bf81" d="M251,229.8c-0.3-1.1-1.2-1.8-2.3-2l-16.4-2.7l-7.7-14.7c-0.5-1-1.5-1.6-2.6-1.6c-1.1,0-2.1,0.6-2.6,1.6
	l-7.7,14.7l-16.4,2.7c-1.1,0.2-2,1-2.3,2c-0.3,1.1-0.1,2.2,0.7,3l11.6,11.8l-2.4,16.4c-0.2,1.1,0.3,2.2,1.2,2.9
	c0.9,0.7,2.1,0.8,3.1,0.3l14.8-7.4l14.8,7.4c0.4,0.2,0.9,0.3,1.3,0.3c0.6,0,1.2-0.2,1.8-0.6c0.9-0.7,1.4-1.8,1.2-2.9l-2.4-16.4
	l11.6-11.8C251.1,232,251.4,230.8,251,229.8L251,229.8z M231.6,240.8c-0.6,0.6-0.8,1.3-0.7,2.1l1.5,10.3l-9.3-4.6
	c-0.4-0.2-0.7-0.3-1.1-0.3c-0.4,0-0.8,0.1-1.1,0.3l-9.3,4.6l1.5-10.3c0.1-0.8-0.1-1.6-0.7-2.1l-7.3-7.4l10.2-1.7
	c0.8-0.1,1.4-0.6,1.8-1.3l4.8-9.2l4.8,9.2c0.4,0.7,1,1.2,1.8,1.3l10.2,1.7L231.6,240.8z M233.4,241.5"/>
<path id="XMLID_11420_" fill="#00bf81" d="M315.3,229.8c-0.3-1.1-1.2-1.8-2.3-2l-16.4-2.7l-7.7-14.7c-0.5-1-1.5-1.6-2.6-1.6c-1.1,0-2.1,0.6-2.6,1.6
	L276,225l-16.4,2.7c-1.1,0.2-2,1-2.3,2c-0.3,1.1-0.1,2.2,0.7,3l11.6,11.8l-2.4,16.4c-0.2,1.1,0.3,2.2,1.2,2.9
	c0.9,0.7,2.1,0.8,3.1,0.3l14.8-7.4l14.8,7.4c0.4,0.2,0.9,0.3,1.3,0.3c0.6,0,1.2-0.2,1.8-0.6c0.9-0.7,1.4-1.8,1.2-2.9l-2.4-16.4
	l11.6-11.8C315.4,232,315.7,230.8,315.3,229.8L315.3,229.8z M295.9,240.8c-0.6,0.6-0.8,1.3-0.7,2.1l1.5,10.3l-9.3-4.6
	c-0.4-0.2-0.7-0.3-1.1-0.3c-0.4,0-0.8,0.1-1.1,0.3l-9.3,4.6l1.5-10.3c0.1-0.8-0.1-1.6-0.7-2.1l-7.3-7.4l10.2-1.7
	c0.8-0.1,1.4-0.6,1.8-1.3l4.8-9.2l4.8,9.2c0.4,0.7,1,1.2,1.8,1.3l10.2,1.7L295.9,240.8z M297.7,241.5"/>
<path id="XMLID_11409_" fill="#00bf81" d="M157.7,68.8c6.3,0,12.2-2.7,16.4-7.5c1.7-2,1.5-5-0.5-6.7c-2-1.7-5-1.5-6.7,0.5c-2.3,2.7-5.6,4.2-9.1,4.2
	c-3.5,0-6.8-1.5-9.1-4.2c-1.7-2-4.7-2.2-6.7-0.5c-2,1.7-2.2,4.8-0.5,6.7C145.5,66.1,151.5,68.8,157.7,68.8L157.7,68.8z M157.7,68.8"
	/>
</svg>
