<?xml version="1.0" encoding="utf-8"?>
<!-- Generator: Adobe Illustrator 19.0.0, SVG Export Plug-In . SVG Version: 6.00 Build 0)  -->
<svg version="1.1" id="Layer_1" xmlns="http://www.w3.org/2000/svg" xmlns:xlink="http://www.w3.org/1999/xlink" x="0px" y="0px"
	 viewBox="0 0 228.7 228.7" style="enable-background:new 0 0 228.7 228.7;" xml:space="preserve">
<path id="XMLID_11390_" d="M195.4,0h-165c-0.7,0-1.4,0.1-2.1,0.4C12.3,2.8,0,16.7,0,33.3v162.1c0,18.4,14.9,33.3,33.3,33.3h162.1
	c18.4,0,33.3-14.9,33.3-33.3V33.3C228.7,14.9,213.7,0,195.4,0L195.4,0z M216.7,162.5h-42.2v-42.2h42.2V162.5z M120.3,66.2h96.3v42.2
	h-96.3V66.2z M216.7,33.3v20.9h-42.2V12h20.9C207.1,12,216.7,21.6,216.7,33.3L216.7,33.3z M162.5,12v42.2H66.2V12H162.5z M33.3,12
	h20.9v42.2H40.6c-3.3,0-6,2.7-6,6c0,3.3,2.7,6,6,6h67.7v42.2H12v-75C12,21.6,21.6,12,33.3,12L33.3,12z M54.2,162.5H12v-42.2h42.2
	V162.5z M12,195.4v-20.9h96.3v42.2h-75C21.6,216.7,12,207.1,12,195.4L12,195.4z M195.4,216.7h-75v-48.2c0-3.3-2.7-6-6-6H66.2v-42.2
	h96.3v42.2h-21c-3.3,0-6,2.7-6,6c0,3.3,2.7,6,6,6h75.1v20.9C216.7,207.1,207.1,216.7,195.4,216.7L195.4,216.7z M195.4,216.7"/>
</svg>
