<?xml version="1.0" encoding="utf-8"?>
<!-- Generator: Adobe Illustrator 19.0.0, SVG Export Plug-In . SVG Version: 6.00 Build 0)  -->
<svg version="1.1" id="Layer_1" xmlns="http://www.w3.org/2000/svg" xmlns:xlink="http://www.w3.org/1999/xlink" x="0px" y="0px"
	 viewBox="0 0 285.7 208.4" style="enable-background:new 0 0 285.7 208.4;" xml:space="preserve">
<path id="XMLID_11412_" d="M282.9,73.8L186.9,1.4c-2.6-1.9-6.1-1.9-8.6,0l-15.8,11.9L146.8,1.4c-2.6-1.9-6.1-1.9-8.6,0L122.8,13
	L107.4,1.4c-2.6-1.9-6.1-1.9-8.6,0L2.8,73.8C1.1,75.1,0,77.2,0,79.5v121.8c0,4,3.2,7.2,7.2,7.2h271.4c4,0,7.2-3.2,7.2-7.2V79.5
	C285.7,77.2,284.7,75.1,282.9,73.8L282.9,73.8z M271.4,194.1h-25.8V79.5c0-2.2-1.1-4.4-2.8-5.7l-68.3-51.5l8.2-6.2l88.8,66.9V194.1z
	 M206.2,194.1V79.5c0-2.2-1.1-4.4-2.8-5.7L134.7,22l7.8-5.9l88.8,66.9v111H206.2z M114.8,194.1H91.4v-52h23.5V194.1z M129.1,194.1
	V135c0-4-3.2-7.2-7.2-7.2H84.2c-4,0-7.2,3.2-7.2,7.2v59.1H14.3v-111l88.8-66.9l88.8,66.9v111H129.1z M129.1,194.1"/>
</svg>
