<svg xmlns="http://www.w3.org/2000/svg" width="59" height="47" viewBox="0 0 59 47">
  <defs>
    <style>
      .cls-1 {
        fill: #00bf81;
        fill-rule: evenodd;
      }
    </style>
  </defs>
  <path id="Фигура_5" data-name="Фигура 5" class="cls-1" d="M745.381,532H721.619a17.742,17.742,0,0,0,0,35.484h8.42v9.45a2.061,2.061,0,0,0,1.267,1.909,2.037,2.037,0,0,0,2.229-.444l10.915-10.914h0.931a17.743,17.743,0,0,0,0-35.485h0Zm-9.838,4.282a2.716,2.716,0,1,1-2.7,2.716,2.709,2.709,0,0,1,2.7-2.716h0Zm2.751,22.772a2.451,2.451,0,1,1-4.9,0V547.386h-2.568a2.135,2.135,0,0,1,0-4.269h4.932c0.029,0,.057,0,0.087,0a2.462,2.462,0,0,1,2.45,2.468v13.474Zm0,0" transform="translate(-704 -532)"/>
</svg>
