<svg xmlns="http://www.w3.org/2000/svg" width="18" height="18" viewBox="0 0 18 18">
  <defs>
    <style>
      .cls-1 {
        fill-rule: evenodd;
      }
    </style>
  </defs>
  <path id="inst-icon" class="cls-1" d="M1057.01,3538c1.21,0.02,2.43.03,3.64,0.07a5.827,5.827,0,0,1,2.97.77,4.517,4.517,0,0,1,2.16,3.17,17.3,17.3,0,0,1,.2,2.49c0.02,1.78.01,3.57-.01,5.35a8.7,8.7,0,0,1-.35,2.78,4.5,4.5,0,0,1-3.61,3.14,14.651,14.651,0,0,1-2.48.21c-1.79.02-3.57,0.01-5.36-.01a8.7,8.7,0,0,1-2.78-.35,4.509,4.509,0,0,1-3.15-3.62,14.763,14.763,0,0,1-.2-2.49c-0.03-1.77-.02-3.55,0-5.33a8.558,8.558,0,0,1,.36-2.8,4.5,4.5,0,0,1,3.61-3.14,15.76,15.76,0,0,1,2.48-.21c0.84-.03,1.68-0.01,2.52-0.01V3538Zm7.39,8.86h-0.03c0-.71.02-1.42-0.01-2.12a19.6,19.6,0,0,0-.16-2.3,2.919,2.919,0,0,0-2.12-2.51,5.52,5.52,0,0,0-1.39-.22c-1.65-.05-3.3-0.07-4.94-0.06-1.02,0-2.05.03-3.07,0.12a2.973,2.973,0,0,0-2.83,2.54,14.522,14.522,0,0,0-.19,2.47c-0.03,1.48-.02,2.96-0.01,4.45q0.015,1.05.12,2.1a3.01,3.01,0,0,0,2.54,2.84,15,15,0,0,0,2.42.19c1.52,0.03,3.04.02,4.55,0,0.68-.01,1.36-0.04,2.04-0.11a3.189,3.189,0,0,0,2.97-3.27C1064.35,3549.61,1064.37,3548.24,1064.4,3546.86Zm-2.78.16a4.615,4.615,0,1,1-4.56-4.63A4.594,4.594,0,0,1,1061.62,3547.02Zm-4.61-3.01a3,3,0,1,0,2.99,3A3.02,3.02,0,0,0,1057.01,3544.01Zm5.87-1.81a1.08,1.08,0,1,1-2.16.01,1.086,1.086,0,0,1,1.07-1.08A1.063,1.063,0,0,1,1062.88,3542.2Z" transform="translate(-1048 -3538)"/>
</svg>
