<svg xmlns="http://www.w3.org/2000/svg" width="32" height="20" viewBox="0 0 32 20">
  <defs>
    <style>
      .cls-1 {
        fill-rule: evenodd;
      }
    </style>
  </defs>
  <path id="logo_its" data-name="logo its" class="cls-1" d="M1059.35,3719c-2.81,0-4.14-1.54-4.14-4.6v-7.44h-1.86v-2.75h1.86v-3.25l3.63-1.05v4.3h2.73v2.75h-2.73v7.2a1.466,1.466,0,0,0,1.68,1.6,2.913,2.913,0,0,0,1.05-.22v3.05a5.617,5.617,0,0,1-2.22.41h0Zm-10.75-16.26a1.936,1.936,0,0,0,1.99-1.88,1.989,1.989,0,0,0-3.97,0,1.933,1.933,0,0,0,1.98,1.88h0Zm-1.71,1.46H1045v2.83h1.89v11.95h3.73V3704.2h-3.73Zm24.36,14.8a10.6,10.6,0,0,1-4.57-1.03l1.16-2.73a7.622,7.622,0,0,0,3.31.92c1.28,0,2.12-.6,2.12-1.55,0-1.05-.92-1.49-2.18-1.94-1.78-.66-4.04-1.5-4.04-4.28,0-2.5,1.89-4.18,5.2-4.18a9.117,9.117,0,0,1,4.35,1.03l-1.1,2.44a6.359,6.359,0,0,0-2.8-.81c-1.27,0-2,.63-2,1.47,0,1.07.92,1.49,2.15,1.94,1.87,0.68,4.15,1.47,4.15,4.33,0,2.65-1.97,4.39-5.75,4.39h0Zm-5.64-18.64a0.977,0.977,0,0,1,.81-0.46,0.579,0.579,0,0,1,.62.46l-1.84,3.84h-0.95Z" transform="translate(-1045 -3699)"/>
</svg>
