<?xml version="1.0" encoding="utf-8"?>
<!-- Generator: Adobe Illustrator 19.0.0, SVG Export Plug-In . SVG Version: 6.00 Build 0)  -->
<svg version="1.1" id="Layer_1" xmlns="http://www.w3.org/2000/svg" xmlns:xlink="http://www.w3.org/1999/xlink" x="0px" y="0px"
	 viewBox="0 0 346.4 151.8" style="enable-background:new 0 0 346.4 151.8;" xml:space="preserve">
<style type="text/css">
	.st0{fill-rule:evenodd;clip-rule:evenodd;fill:#1AA873;}
</style>
<g id="XMLID_529_">
	<g id="XMLID_1000_">
		<polygon id="XMLID_1003_" class="st0" points="224.7,106.9 224.7,106.9 251.5,106.9 251.4,0 224.7,0 		"/>
		<polygon id="XMLID_531_" class="st0" points="289.8,52 315,26.2 278.7,26.1 252.8,52 310,106.9 346.4,106.9 		"/>
		<polygon id="XMLID_1001_" class="st0" points="112.7,106.9 193.9,106.9 219.8,80.3 219.8,26.2 167.6,26.2 142.8,52 193.1,52 
			193.1,81.5 139.3,81.5 139.3,0 102.6,0 0.2,106.9 84.1,106.9 108.4,81.5 58.9,81.5 112.7,25 		"/>
	</g>
	<g id="XMLID_530_">
		<path id="XMLID_997_" d="M21.5,128.2l2.6,22.9H18l-0.3-4.3H8.8l-2.8,4.3H0l15.7-22.9H21.5z M17.5,143l-0.6-8.7l-5.7,8.7H17.5z"/>
		<path id="XMLID_995_" d="M47.1,128.2h6.8l-12.8,10.5l6.8,12.5h-7l-5.5-11.2h-0.1l-3.2,11.2h-5.8l6.5-22.9h5.8l-2.7,9.6H36
			L47.1,128.2z"/>
		<path id="XMLID_992_" d="M68.1,136.7H74c2,0,9.2,0.2,7.1,7.5c-1.3,4.7-5.6,6.9-11.2,6.9H58.3l6.5-22.9h19l-1.3,4.5H69.3
			L68.1,136.7z M65.3,146.7H70c2.3,0,4.4-0.4,5-2.6c0.8-2.8-2-2.9-3.4-2.9h-4.8L65.3,146.7z"/>
		<path id="XMLID_989_" d="M101.8,128.2l2.6,22.9h-6.1l-0.3-4.3h-8.9l-2.8,4.3h-6.1L96,128.2H101.8z M97.9,143l-0.6-8.7l-5.7,8.7
			H97.9z"/>
		<path id="XMLID_909_" d="M124.6,128.2c4.9,0,8.7,1.7,7.1,7.4c-2.1,7.2-8.6,7.6-11.5,7.6h-5.5l-2.3,7.9h-5.8l6.5-22.9H124.6z
			 M116,138.8h4.5c2.8,0,4.4-0.9,5-3.1c0.9-3.1-2-3-3.3-3h-4.5L116,138.8z"/>
		<path id="XMLID_907_" d="M155.1,143.1c-1.4,3.4-4.9,8.7-13.6,8.7c-6.2,0-11.2-2.7-8.6-11.7c3.4-12.1,13-12.5,15.3-12.5
			c8.7,0,9.4,5.1,8.6,8.5h-5.6c0.5-3.8-2.6-4-3.9-4c-1.3,0-5.9,0.2-8.1,7.9c-1.2,4.3,0,7.4,3.9,7.4c3.8,0,5.6-2.6,6.3-4.3H155.1z"/>
		<path id="XMLID_899_" d="M185.2,128.2h6.8l-12.8,10.5l6.8,12.5h-7l-5.4-11.2h-0.1l-3.2,11.2h-5.8l6.5-22.9h5.8l-2.7,9.6h0.1
			L185.2,128.2z"/>
		<path id="XMLID_897_" d="M209.8,137.3l-1.2,4.2h-11.9l-1.5,5.1h13.9l-1.3,4.5h-19.6l6.5-22.9H214l-1.3,4.5h-13.5l-1.3,4.7H209.8z"
			/>
		<path id="XMLID_892_" d="M229.2,128.2c4.9,0,8.7,1.7,7.1,7.4c-2.1,7.2-8.6,7.6-11.5,7.6h-5.5l-2.3,7.9h-5.8l6.5-22.9H229.2z
			 M220.6,138.8h4.5c2.8,0,4.4-0.9,5-3.1c0.9-3.1-2-3-3.3-3h-4.5L220.6,138.8z"/>
		<path id="XMLID_868_" d="M254,128.2l2.6,22.9h-6.1l-0.3-4.3h-8.9l-2.8,4.3h-6.1l15.7-22.9H254z M250,143l-0.6-8.7l-5.7,8.7H250z"
			/>
		<path id="XMLID_536_" d="M269.4,134.8h-0.1l-4.7,16.4h-5.8l6.5-22.9h8.1l1.3,15.8l10.3-15.8h8.1l-6.5,22.9H281l4.7-16.4h-0.1
			l-10.8,16.4h-3.9L269.4,134.8z"/>
		<path id="XMLID_534_" d="M314.1,128.2h5.8l-6.5,22.9h-5.8l4.3-15l-14,15h-5.8l6.5-22.9h5.8l-4.2,14.8L314.1,128.2z"/>
		<path id="XMLID_532_" d="M339.4,128.2h6.8l-12.8,10.5l6.8,12.5h-7l-5.4-11.2h-0.1l-3.2,11.2h-5.8l6.5-22.9h5.8l-2.7,9.6h0.1
			L339.4,128.2z"/>
	</g>
</g>
</svg>
