<svg xmlns="http://www.w3.org/2000/svg" width="25" height="39" viewBox="0 0 25 39">
  <defs>
    <style>
      .cls-1 {
        fill: #009967;
        fill-rule: evenodd;
      }
    </style>
  </defs>
  <path id="Фигура_7_копия_7" data-name="Фигура 7 копия 7" class="cls-1" d="M1080.5,2500.12a4.35,4.35,0,1,0,4.32,4.35,4.34,4.34,0,0,0-4.32-4.35h0Zm0,0,0-8.12a12.541,12.541,0,0,0-12.5,12.58,12.869,12.869,0,0,0,.45,3.37,12.218,12.218,0,0,0,.42,1.25l0.38,0.87L1080.5,2531l11.27-20.96,0.34-.78c0.17-.43.31-0.86,0.44-1.31a12.869,12.869,0,0,0,.45-3.37,12.541,12.541,0,0,0-12.5-12.58h0Zm0,21.57a9.105,9.105,0,1,1,9.04-9.1,9.076,9.076,0,0,1-9.04,9.1h0Zm0,0" transform="translate(-1068 -2492)"/>
</svg>
