<?xml version="1.0" encoding="utf-8"?>
<!-- Generator: Adobe Illustrator 19.0.1, SVG Export Plug-In . SVG Version: 6.00 Build 0)  -->
<svg version="1.1" id="Layer_1" xmlns="http://www.w3.org/2000/svg" xmlns:xlink="http://www.w3.org/1999/xlink" x="0px" y="0px"
   viewBox="0 0 189.8 110" style="enable-background:new 0 0 189.8 110;" xml:space="preserve">
<style type="text/css">
  .st0{clip-path:url(#SVGID_2_);}
  .st1{fill:#ffffff;}
  .st2{fill:#ffffff;}
  .st3{clip-path:url(#SVGID_2_);fill:#ffffff;}
</style>
<g>
  <defs>
    <rect id="SVGID_1_" width="189.8" height="110"/>
  </defs>
  <clipPath id="SVGID_2_">
    <use xlink:href="#SVGID_1_"  style="overflow:visible;"/>
  </clipPath>
  <g class="st0">
    <path class="st1" d="M-62.4,30h-63.8l-0.1-0.2l-31.8-55.2l0.1-0.2l31.8-55.2h63.8l0.1,0.2l31.8,55.2l-0.1,0.2L-62.4,30z
       M-125.8,29.3h62.9l31.5-54.6L-62.9-80h-62.9l-31.5,54.6L-125.8,29.3z"/>
    <path class="st1" d="M32.2-25h-63.8l-0.1-0.2l-31.8-55.2l0.1-0.2l31.8-55.2h63.8l0.1,0.2L64-80.4l-0.1,0.2L32.2-25z M-31.2-25.8
      h62.9l31.5-54.6L31.7-135h-62.9l-31.5,54.6L-31.2-25.8z"/>
    <path class="st1" d="M32.2,85h-63.8l-0.1-0.2l-31.8-55.2l0.1-0.2l31.8-55.2h63.8l0.1,0.2L64,29.6l-0.1,0.2L32.2,85z M-31.2,84.3
      h62.9l31.5-54.6L31.7-25h-62.9l-31.5,54.6L-31.2,84.3z"/>
    <path class="st1" d="M32.2,195h-63.8l-0.1-0.2l-31.8-55.2l0.1-0.2l31.8-55.2h63.8l0.1,0.2L64,139.6l-0.1,0.2L32.2,195z
       M-31.2,194.3h62.9l31.5-54.6L31.7,85h-62.9l-31.5,54.6L-31.2,194.3z"/>
    <path class="st1" d="M32.2,305h-63.8l-0.1-0.2l-31.8-55.2l0.1-0.2l31.8-55.2h63.8l0.1,0.2L64,249.6l-0.1,0.2L32.2,305z
       M-31.2,304.3h62.9l31.5-54.6L31.7,195h-62.9l-31.5,54.6L-31.2,304.3z"/>
    <path class="st1" d="M32.2,415h-63.8l-0.1-0.2l-31.8-55.2l0.1-0.2l31.8-55.2h63.8l0.1,0.2L64,359.6l-0.1,0.2L32.2,415z
       M-31.2,414.3h62.9l31.5-54.6L31.7,305h-62.9l-31.5,54.6L-31.2,414.3z"/>
    <path class="st1" d="M32.2,525h-63.8l-0.1-0.2l-31.8-55.2l0.1-0.2l31.8-55.2h63.8l0.1,0.2L64,469.6l-0.1,0.2L32.2,525z
       M-31.2,524.3h62.9l31.5-54.6L31.7,415h-62.9l-31.5,54.6L-31.2,524.3z"/>
    <path class="st1" d="M32.2,635h-63.8l-0.1-0.2l-31.8-55.2l0.1-0.2l31.8-55.2h63.8l0.1,0.2L64,579.6l-0.1,0.2L32.2,635z
       M-31.2,634.3h62.9l31.5-54.6L31.7,525h-62.9l-31.5,54.6L-31.2,634.3z"/>
    <path class="st1" d="M32.2,745h-63.8l-0.1-0.2l-31.8-55.2l0.1-0.2l31.8-55.2h63.8l0.1,0.2L64,689.6l-0.1,0.2L32.2,745z
       M-31.2,744.3h62.9l31.5-54.6L31.7,635h-62.9l-31.5,54.6L-31.2,744.3z"/>
    <path class="st1" d="M-62.4,140h-63.8l-0.1-0.2l-31.8-55.2l0.1-0.2l31.8-55.2h63.8l0.1,0.2l31.8,55.2l-0.1,0.2L-62.4,140z
       M-125.8,139.3h62.9l31.5-54.6L-62.9,30h-62.9l-31.5,54.6L-125.8,139.3z"/>
    <path class="st1" d="M-62.4,250h-63.8l-0.1-0.2l-31.8-55.2l0.1-0.2l31.8-55.2h63.8l0.1,0.2l31.8,55.2l-0.1,0.2L-62.4,250z
       M-125.8,249.3h62.9l31.5-54.6L-62.9,140h-62.9l-31.5,54.6L-125.8,249.3z"/>
    <path class="st1" d="M-62.4,360h-63.8l-0.1-0.2l-31.8-55.2l0.1-0.2l31.8-55.2h63.8l0.1,0.2l31.8,55.2l-0.1,0.2L-62.4,360z
       M-125.8,359.3h62.9l31.5-54.6L-62.9,250h-62.9l-31.5,54.6L-125.8,359.3z"/>
    <path class="st1" d="M-62.4,470h-63.8l-0.1-0.2l-31.8-55.2l0.1-0.2l31.8-55.2h63.8l0.1,0.2l31.8,55.2l-0.1,0.2L-62.4,470z
       M-125.8,469.3h62.9l31.5-54.6L-62.9,360h-62.9l-31.5,54.6L-125.8,469.3z"/>
    <path class="st1" d="M-62.4,580h-63.8l-0.1-0.2l-31.8-55.2l0.1-0.2l31.8-55.2h63.8l0.1,0.2l31.8,55.2l-0.1,0.2L-62.4,580z
       M-125.8,579.3h62.9l31.5-54.6L-62.9,470h-62.9l-31.5,54.6L-125.8,579.3z"/>
    <path class="st1" d="M-62.4,690h-63.8l-0.1-0.2l-31.8-55.2l0.1-0.2l31.8-55.2h63.8l0.1,0.2l31.8,55.2l-0.1,0.2L-62.4,690z
       M-125.8,689.3h62.9l31.5-54.6L-62.9,580h-62.9l-31.5,54.6L-125.8,689.3z"/>
    <path class="st1" d="M-62.4,800h-63.8l-0.1-0.2l-31.8-55.2l0.1-0.2l31.8-55.2h63.8l0.1,0.2l31.8,55.2l-0.1,0.2L-62.4,800z
       M-125.8,799.3h62.9l31.5-54.6L-62.9,690h-62.9l-31.5,54.6L-125.8,799.3z"/>
    <path class="st1" d="M127.6,30H63.8l-0.1-0.2L31.9-25.4l0.1-0.2l31.8-55.2h63.8l0.1,0.2l31.8,55.2l-0.1,0.2L127.6,30z M64.2,29.3
      h62.9l31.5-54.6L127.1-80H64.2L32.7-25.4L64.2,29.3z"/>
    <path class="st1" d="M222.2-25h-63.8l-0.1-0.2l-31.8-55.2l0.1-0.2l31.8-55.2h63.8l0.1,0.2L254-80.4l-0.1,0.2L222.2-25z
       M158.8-25.8h62.9l31.5-54.6L221.7-135h-62.9l-31.5,54.6L158.8-25.8z"/>
    <path class="st1" d="M222.2,85h-63.8l-0.1-0.2l-31.8-55.2l0.1-0.2l31.8-55.2h63.8l0.1,0.2L254,29.6l-0.1,0.2L222.2,85z
       M158.8,84.3h62.9l31.5-54.6L221.7-25h-62.9l-31.5,54.6L158.8,84.3z"/>
    <path class="st1" d="M222.2,195h-63.8l-0.1-0.2l-31.8-55.2l0.1-0.2l31.8-55.2h63.8l0.1,0.2l31.8,55.2l-0.1,0.2L222.2,195z
       M158.8,194.3h62.9l31.5-54.6L221.7,85h-62.9l-31.5,54.6L158.8,194.3z"/>
    <path class="st1" d="M222.2,305h-63.8l-0.1-0.2l-31.8-55.2l0.1-0.2l31.8-55.2h63.8l0.1,0.2l31.8,55.2l-0.1,0.2L222.2,305z
       M158.8,304.3h62.9l31.5-54.6L221.7,195h-62.9l-31.5,54.6L158.8,304.3z"/>
    <path class="st1" d="M222.2,415h-63.8l-0.1-0.2l-31.8-55.2l0.1-0.2l31.8-55.2h63.8l0.1,0.2l31.8,55.2l-0.1,0.2L222.2,415z
       M158.8,414.3h62.9l31.5-54.6L221.7,305h-62.9l-31.5,54.6L158.8,414.3z"/>
    <path class="st1" d="M222.2,525h-63.8l-0.1-0.2l-31.8-55.2l0.1-0.2l31.8-55.2h63.8l0.1,0.2l31.8,55.2l-0.1,0.2L222.2,525z
       M158.8,524.3h62.9l31.5-54.6L221.7,415h-62.9l-31.5,54.6L158.8,524.3z"/>
    <path class="st1" d="M222.2,635h-63.8l-0.1-0.2l-31.8-55.2l0.1-0.2l31.8-55.2h63.8l0.1,0.2l31.8,55.2l-0.1,0.2L222.2,635z
       M158.8,634.3h62.9l31.5-54.6L221.7,525h-62.9l-31.5,54.6L158.8,634.3z"/>
    <path class="st1" d="M222.2,745h-63.8l-0.1-0.2l-31.8-55.2l0.1-0.2l31.8-55.2h63.8l0.1,0.2l31.8,55.2l-0.1,0.2L222.2,745z
       M158.8,744.3h62.9l31.5-54.6L221.7,635h-62.9l-31.5,54.6L158.8,744.3z"/>
    <path class="st1" d="M127.6,140H63.8l-0.1-0.2L31.9,84.6l0.1-0.2l31.8-55.2h63.8l0.1,0.2l31.8,55.2l-0.1,0.2L127.6,140z
       M64.2,139.3h62.9l31.5-54.6L127.1,30H64.2L32.7,84.6L64.2,139.3z"/>
    <path class="st1" d="M127.6,250H63.8l-0.1-0.2l-31.8-55.2l0.1-0.2l31.8-55.2h63.8l0.1,0.2l31.8,55.2l-0.1,0.2L127.6,250z
       M64.2,249.3h62.9l31.5-54.6L127.1,140H64.2l-31.5,54.6L64.2,249.3z"/>
    <path class="st1" d="M127.6,360H63.8l-0.1-0.2l-31.8-55.2l0.1-0.2l31.8-55.2h63.8l0.1,0.2l31.8,55.2l-0.1,0.2L127.6,360z
       M64.2,359.3h62.9l31.5-54.6L127.1,250H64.2l-31.5,54.6L64.2,359.3z"/>
    <path class="st1" d="M127.6,470H63.8l-0.1-0.2l-31.8-55.2l0.1-0.2l31.8-55.2h63.8l0.1,0.2l31.8,55.2l-0.1,0.2L127.6,470z
       M64.2,469.3h62.9l31.5-54.6L127.1,360H64.2l-31.5,54.6L64.2,469.3z"/>
    <path class="st1" d="M127.6,580H63.8l-0.1-0.2l-31.8-55.2l0.1-0.2l31.8-55.2h63.8l0.1,0.2l31.8,55.2l-0.1,0.2L127.6,580z
       M64.2,579.3h62.9l31.5-54.6L127.1,470H64.2l-31.5,54.6L64.2,579.3z"/>
    <path class="st1" d="M127.6,690H63.8l-0.1-0.2l-31.8-55.2l0.1-0.2l31.8-55.2h63.8l0.1,0.2l31.8,55.2l-0.1,0.2L127.6,690z
       M64.2,689.3h62.9l31.5-54.6L127.1,580H64.2l-31.5,54.6L64.2,689.3z"/>
    <path class="st1" d="M127.6,800H63.8l-0.1-0.2l-31.8-55.2l0.1-0.2l31.8-55.2h63.8l0.1,0.2l31.8,55.2l-0.1,0.2L127.6,800z
       M64.2,799.3h62.9l31.5-54.6L127.1,690H64.2l-31.5,54.6L64.2,799.3z"/>
    <path class="st1" d="M317.6,30h-63.8l-0.1-0.2l-31.8-55.2l0.1-0.2l31.8-55.2h63.8l0.1,0.2l31.8,55.2l-0.1,0.2L317.6,30z
       M254.2,29.3h62.9l31.5-54.6L317.1-80h-62.9l-31.5,54.6L254.2,29.3z"/>
    <path class="st1" d="M412.2-25h-63.8l-0.1-0.2l-31.8-55.2l0.1-0.2l31.8-55.2h63.8l0.1,0.2L444-80.4l-0.1,0.2L412.2-25z
       M348.8-25.8h62.9l31.5-54.6L411.7-135h-62.9l-31.5,54.6L348.8-25.8z"/>
    <path class="st1" d="M412.2,85h-63.8l-0.1-0.2l-31.8-55.2l0.1-0.2l31.8-55.2h63.8l0.1,0.2L444,29.6l-0.1,0.2L412.2,85z
       M348.8,84.3h62.9l31.5-54.6L411.7-25h-62.9l-31.5,54.6L348.8,84.3z"/>
    <path class="st1" d="M412.2,195h-63.8l-0.1-0.2l-31.8-55.2l0.1-0.2l31.8-55.2h63.8l0.1,0.2l31.8,55.2l-0.1,0.2L412.2,195z
       M348.8,194.3h62.9l31.5-54.6L411.7,85h-62.9l-31.5,54.6L348.8,194.3z"/>
    <path class="st1" d="M412.2,305h-63.8l-0.1-0.2l-31.8-55.2l0.1-0.2l31.8-55.2h63.8l0.1,0.2l31.8,55.2l-0.1,0.2L412.2,305z
       M348.8,304.3h62.9l31.5-54.6L411.7,195h-62.9l-31.5,54.6L348.8,304.3z"/>
    <path class="st1" d="M412.2,415h-63.8l-0.1-0.2l-31.8-55.2l0.1-0.2l31.8-55.2h63.8l0.1,0.2l31.8,55.2l-0.1,0.2L412.2,415z
       M348.8,414.3h62.9l31.5-54.6L411.7,305h-62.9l-31.5,54.6L348.8,414.3z"/>
    <path class="st1" d="M412.2,525h-63.8l-0.1-0.2l-31.8-55.2l0.1-0.2l31.8-55.2h63.8l0.1,0.2l31.8,55.2l-0.1,0.2L412.2,525z
       M348.8,524.3h62.9l31.5-54.6L411.7,415h-62.9l-31.5,54.6L348.8,524.3z"/>
    <path class="st1" d="M412.2,635h-63.8l-0.1-0.2l-31.8-55.2l0.1-0.2l31.8-55.2h63.8l0.1,0.2l31.8,55.2l-0.1,0.2L412.2,635z
       M348.8,634.3h62.9l31.5-54.6L411.7,525h-62.9l-31.5,54.6L348.8,634.3z"/>
    <path class="st1" d="M412.2,745h-63.8l-0.1-0.2l-31.8-55.2l0.1-0.2l31.8-55.2h63.8l0.1,0.2l31.8,55.2l-0.1,0.2L412.2,745z
       M348.8,744.3h62.9l31.5-54.6L411.7,635h-62.9l-31.5,54.6L348.8,744.3z"/>
    <path class="st1" d="M317.6,140h-63.8l-0.1-0.2l-31.8-55.2l0.1-0.2l31.8-55.2h63.8l0.1,0.2l31.8,55.2l-0.1,0.2L317.6,140z
       M254.2,139.3h62.9l31.5-54.6L317.1,30h-62.9l-31.5,54.6L254.2,139.3z"/>
    <path class="st1" d="M317.6,250h-63.8l-0.1-0.2l-31.8-55.2l0.1-0.2l31.8-55.2h63.8l0.1,0.2l31.8,55.2l-0.1,0.2L317.6,250z
       M254.2,249.3h62.9l31.5-54.6L317.1,140h-62.9l-31.5,54.6L254.2,249.3z"/>
    <path class="st1" d="M317.6,360h-63.8l-0.1-0.2l-31.8-55.2l0.1-0.2l31.8-55.2h63.8l0.1,0.2l31.8,55.2l-0.1,0.2L317.6,360z
       M254.2,359.3h62.9l31.5-54.6L317.1,250h-62.9l-31.5,54.6L254.2,359.3z"/>
    <path class="st1" d="M317.6,470h-63.8l-0.1-0.2l-31.8-55.2l0.1-0.2l31.8-55.2h63.8l0.1,0.2l31.8,55.2l-0.1,0.2L317.6,470z
       M254.2,469.3h62.9l31.5-54.6L317.1,360h-62.9l-31.5,54.6L254.2,469.3z"/>
    <path class="st1" d="M317.6,580h-63.8l-0.1-0.2l-31.8-55.2l0.1-0.2l31.8-55.2h63.8l0.1,0.2l31.8,55.2l-0.1,0.2L317.6,580z
       M254.2,579.3h62.9l31.5-54.6L317.1,470h-62.9l-31.5,54.6L254.2,579.3z"/>
    <path class="st1" d="M317.6,690h-63.8l-0.1-0.2l-31.8-55.2l0.1-0.2l31.8-55.2h63.8l0.1,0.2l31.8,55.2l-0.1,0.2L317.6,690z
       M254.2,689.3h62.9l31.5-54.6L317.1,580h-62.9l-31.5,54.6L254.2,689.3z"/>
    <path class="st1" d="M317.6,800h-63.8l-0.1-0.2l-31.8-55.2l0.1-0.2l31.8-55.2h63.8l0.1,0.2l31.8,55.2l-0.1,0.2L317.6,800z
       M254.2,799.3h62.9l31.5-54.6L317.1,690h-62.9l-31.5,54.6L254.2,799.3z"/>
    <path class="st1" d="M507.6,30h-63.8l-0.1-0.2l-31.8-55.2l0.1-0.2l31.8-55.2h63.8l0.1,0.2l31.8,55.2l-0.1,0.2L507.6,30z
       M444.2,29.3h62.9l31.5-54.6L507.1-80h-62.9l-31.5,54.6L444.2,29.3z"/>
    <path class="st1" d="M602.2-25h-63.8l-0.1-0.2l-31.8-55.2l0.1-0.2l31.8-55.2h63.8l0.1,0.2L634-80.4l-0.1,0.2L602.2-25z
       M538.8-25.8h62.9l31.5-54.6L601.7-135h-62.9l-31.5,54.6L538.8-25.8z"/>
    <path class="st1" d="M602.2,85h-63.8l-0.1-0.2l-31.8-55.2l0.1-0.2l31.8-55.2h63.8l0.1,0.2L634,29.6l-0.1,0.2L602.2,85z
       M538.8,84.3h62.9l31.5-54.6L601.7-25h-62.9l-31.5,54.6L538.8,84.3z"/>
    <path class="st1" d="M602.2,195h-63.8l-0.1-0.2l-31.8-55.2l0.1-0.2l31.8-55.2h63.8l0.1,0.2l31.8,55.2l-0.1,0.2L602.2,195z
       M538.8,194.3h62.9l31.5-54.6L601.7,85h-62.9l-31.5,54.6L538.8,194.3z"/>
    <path class="st1" d="M602.2,305h-63.8l-0.1-0.2l-31.8-55.2l0.1-0.2l31.8-55.2h63.8l0.1,0.2l31.8,55.2l-0.1,0.2L602.2,305z
       M538.8,304.3h62.9l31.5-54.6L601.7,195h-62.9l-31.5,54.6L538.8,304.3z"/>
    <path class="st1" d="M602.2,415h-63.8l-0.1-0.2l-31.8-55.2l0.1-0.2l31.8-55.2h63.8l0.1,0.2l31.8,55.2l-0.1,0.2L602.2,415z
       M538.8,414.3h62.9l31.5-54.6L601.7,305h-62.9l-31.5,54.6L538.8,414.3z"/>
    <path class="st1" d="M602.2,525h-63.8l-0.1-0.2l-31.8-55.2l0.1-0.2l31.8-55.2h63.8l0.1,0.2l31.8,55.2l-0.1,0.2L602.2,525z
       M538.8,524.3h62.9l31.5-54.6L601.7,415h-62.9l-31.5,54.6L538.8,524.3z"/>
    <path class="st1" d="M602.2,635h-63.8l-0.1-0.2l-31.8-55.2l0.1-0.2l31.8-55.2h63.8l0.1,0.2l31.8,55.2l-0.1,0.2L602.2,635z
       M538.8,634.3h62.9l31.5-54.6L601.7,525h-62.9l-31.5,54.6L538.8,634.3z"/>
    <path class="st1" d="M602.2,745h-63.8l-0.1-0.2l-31.8-55.2l0.1-0.2l31.8-55.2h63.8l0.1,0.2l31.8,55.2l-0.1,0.2L602.2,745z
       M538.8,744.3h62.9l31.5-54.6L601.7,635h-62.9l-31.5,54.6L538.8,744.3z"/>
    <path class="st1" d="M507.6,140h-63.8l-0.1-0.2l-31.8-55.2l0.1-0.2l31.8-55.2h63.8l0.1,0.2l31.8,55.2l-0.1,0.2L507.6,140z
       M444.2,139.3h62.9l31.5-54.6L507.1,30h-62.9l-31.5,54.6L444.2,139.3z"/>
    <path class="st1" d="M507.6,250h-63.8l-0.1-0.2l-31.8-55.2l0.1-0.2l31.8-55.2h63.8l0.1,0.2l31.8,55.2l-0.1,0.2L507.6,250z
       M444.2,249.3h62.9l31.5-54.6L507.1,140h-62.9l-31.5,54.6L444.2,249.3z"/>
    <path class="st1" d="M507.6,360h-63.8l-0.1-0.2l-31.8-55.2l0.1-0.2l31.8-55.2h63.8l0.1,0.2l31.8,55.2l-0.1,0.2L507.6,360z
       M444.2,359.3h62.9l31.5-54.6L507.1,250h-62.9l-31.5,54.6L444.2,359.3z"/>
    <path class="st1" d="M507.6,470h-63.8l-0.1-0.2l-31.8-55.2l0.1-0.2l31.8-55.2h63.8l0.1,0.2l31.8,55.2l-0.1,0.2L507.6,470z
       M444.2,469.3h62.9l31.5-54.6L507.1,360h-62.9l-31.5,54.6L444.2,469.3z"/>
    <path class="st1" d="M507.6,580h-63.8l-0.1-0.2l-31.8-55.2l0.1-0.2l31.8-55.2h63.8l0.1,0.2l31.8,55.2l-0.1,0.2L507.6,580z
       M444.2,579.3h62.9l31.5-54.6L507.1,470h-62.9l-31.5,54.6L444.2,579.3z"/>
    <path class="st1" d="M507.6,690h-63.8l-0.1-0.2l-31.8-55.2l0.1-0.2l31.8-55.2h63.8l0.1,0.2l31.8,55.2l-0.1,0.2L507.6,690z
       M444.2,689.3h62.9l31.5-54.6L507.1,580h-62.9l-31.5,54.6L444.2,689.3z"/>
    <path class="st1" d="M507.6,800h-63.8l-0.1-0.2l-31.8-55.2l0.1-0.2l31.8-55.2h63.8l0.1,0.2l31.8,55.2l-0.1,0.2L507.6,800z
       M444.2,799.3h62.9l31.5-54.6L507.1,690h-62.9l-31.5,54.6L444.2,799.3z"/>
    <path class="st1" d="M697.6,30h-63.8l-0.1-0.2l-31.8-55.2l0.1-0.2l31.8-55.2h63.8l0.1,0.2l31.8,55.2l-0.1,0.2L697.6,30z
       M634.2,29.3h62.9l31.5-54.6L697.1-80h-62.9l-31.5,54.6L634.2,29.3z"/>
    <path class="st1" d="M792.2-25h-63.8l-0.1-0.2l-31.8-55.2l0.1-0.2l31.8-55.2h63.8l0.1,0.2L824-80.4l-0.1,0.2L792.2-25z
       M728.8-25.8h62.9l31.5-54.6L791.7-135h-62.9l-31.5,54.6L728.8-25.8z"/>
    <path class="st1" d="M792.2,85h-63.8l-0.1-0.2l-31.8-55.2l0.1-0.2l31.8-55.2h63.8l0.1,0.2L824,29.6l-0.1,0.2L792.2,85z
       M728.8,84.3h62.9l31.5-54.6L791.7-25h-62.9l-31.5,54.6L728.8,84.3z"/>
    <path class="st1" d="M792.2,195h-63.8l-0.1-0.2l-31.8-55.2l0.1-0.2l31.8-55.2h63.8l0.1,0.2l31.8,55.2l-0.1,0.2L792.2,195z
       M728.8,194.3h62.9l31.5-54.6L791.7,85h-62.9l-31.5,54.6L728.8,194.3z"/>
    <path class="st1" d="M792.2,305h-63.8l-0.1-0.2l-31.8-55.2l0.1-0.2l31.8-55.2h63.8l0.1,0.2l31.8,55.2l-0.1,0.2L792.2,305z
       M728.8,304.3h62.9l31.5-54.6L791.7,195h-62.9l-31.5,54.6L728.8,304.3z"/>
    <path class="st1" d="M792.2,415h-63.8l-0.1-0.2l-31.8-55.2l0.1-0.2l31.8-55.2h63.8l0.1,0.2l31.8,55.2l-0.1,0.2L792.2,415z
       M728.8,414.3h62.9l31.5-54.6L791.7,305h-62.9l-31.5,54.6L728.8,414.3z"/>
    <path class="st1" d="M792.2,525h-63.8l-0.1-0.2l-31.8-55.2l0.1-0.2l31.8-55.2h63.8l0.1,0.2l31.8,55.2l-0.1,0.2L792.2,525z
       M728.8,524.3h62.9l31.5-54.6L791.7,415h-62.9l-31.5,54.6L728.8,524.3z"/>
    <path class="st1" d="M792.2,635h-63.8l-0.1-0.2l-31.8-55.2l0.1-0.2l31.8-55.2h63.8l0.1,0.2l31.8,55.2l-0.1,0.2L792.2,635z
       M728.8,634.3h62.9l31.5-54.6L791.7,525h-62.9l-31.5,54.6L728.8,634.3z"/>
    <path class="st1" d="M792.2,745h-63.8l-0.1-0.2l-31.8-55.2l0.1-0.2l31.8-55.2h63.8l0.1,0.2l31.8,55.2l-0.1,0.2L792.2,745z
       M728.8,744.3h62.9l31.5-54.6L791.7,635h-62.9l-31.5,54.6L728.8,744.3z"/>
    <path class="st1" d="M697.6,140h-63.8l-0.1-0.2l-31.8-55.2l0.1-0.2l31.8-55.2h63.8l0.1,0.2l31.8,55.2l-0.1,0.2L697.6,140z
       M634.2,139.3h62.9l31.5-54.6L697.1,30h-62.9l-31.5,54.6L634.2,139.3z"/>
    <path class="st1" d="M697.6,250h-63.8l-0.1-0.2l-31.8-55.2l0.1-0.2l31.8-55.2h63.8l0.1,0.2l31.8,55.2l-0.1,0.2L697.6,250z
       M634.2,249.3h62.9l31.5-54.6L697.1,140h-62.9l-31.5,54.6L634.2,249.3z"/>
    <path class="st1" d="M697.6,360h-63.8l-0.1-0.2l-31.8-55.2l0.1-0.2l31.8-55.2h63.8l0.1,0.2l31.8,55.2l-0.1,0.2L697.6,360z
       M634.2,359.3h62.9l31.5-54.6L697.1,250h-62.9l-31.5,54.6L634.2,359.3z"/>
    <path class="st1" d="M697.6,470h-63.8l-0.1-0.2l-31.8-55.2l0.1-0.2l31.8-55.2h63.8l0.1,0.2l31.8,55.2l-0.1,0.2L697.6,470z
       M634.2,469.3h62.9l31.5-54.6L697.1,360h-62.9l-31.5,54.6L634.2,469.3z"/>
    <path class="st1" d="M697.6,580h-63.8l-0.1-0.2l-31.8-55.2l0.1-0.2l31.8-55.2h63.8l0.1,0.2l31.8,55.2l-0.1,0.2L697.6,580z
       M634.2,579.3h62.9l31.5-54.6L697.1,470h-62.9l-31.5,54.6L634.2,579.3z"/>
    <path class="st1" d="M697.6,690h-63.8l-0.1-0.2l-31.8-55.2l0.1-0.2l31.8-55.2h63.8l0.1,0.2l31.8,55.2l-0.1,0.2L697.6,690z
       M634.2,689.3h62.9l31.5-54.6L697.1,580h-62.9l-31.5,54.6L634.2,689.3z"/>
    <path class="st1" d="M697.6,800h-63.8l-0.1-0.2l-31.8-55.2l0.1-0.2l31.8-55.2h63.8l0.1,0.2l31.8,55.2l-0.1,0.2L697.6,800z
       M634.2,799.3h62.9l31.5-54.6L697.1,690h-62.9l-31.5,54.6L634.2,799.3z"/>
  </g>
  <g class="st0">
    <path class="st2" d="M-189.1,30h-63.8l-0.1-0.2l-31.8-55.2l0.1-0.2l31.8-55.2h63.8l0.1,0.2l31.8,55.2l-0.1,0.2L-189.1,30z
       M-252.5,29.3h62.9l31.5-54.6L-189.6-80h-62.9l-31.5,54.6L-252.5,29.3z"/>
    <path class="st2" d="M-94.5-25h-63.8l-0.1-0.2l-31.8-55.2l0.1-0.2l31.8-55.2h63.8l0.1,0.2l31.8,55.2l-0.1,0.2L-94.5-25z
       M-157.9-25.8H-95l31.5-54.6L-95-135h-62.9l-31.5,54.6L-157.9-25.8z"/>
    <path class="st2" d="M-94.5,85h-63.8l-0.1-0.2l-31.8-55.2l0.1-0.2l31.8-55.2h63.8l0.1,0.2l31.8,55.2l-0.1,0.2L-94.5,85z
       M-157.9,84.3H-95l31.5-54.6L-95-25h-62.9l-31.5,54.6L-157.9,84.3z"/>
    <path class="st2" d="M-94.5,195h-63.8l-0.1-0.2l-31.8-55.2l0.1-0.2l31.8-55.2h63.8l0.1,0.2l31.8,55.2l-0.1,0.2L-94.5,195z
       M-157.9,194.3H-95l31.5-54.6L-95,85h-62.9l-31.5,54.6L-157.9,194.3z"/>
    <path class="st2" d="M-94.5,305h-63.8l-0.1-0.2l-31.8-55.2l0.1-0.2l31.8-55.2h63.8l0.1,0.2l31.8,55.2l-0.1,0.2L-94.5,305z
       M-157.9,304.3H-95l31.5-54.6L-95,195h-62.9l-31.5,54.6L-157.9,304.3z"/>
    <path class="st2" d="M-94.5,415h-63.8l-0.1-0.2l-31.8-55.2l0.1-0.2l31.8-55.2h63.8l0.1,0.2l31.8,55.2l-0.1,0.2L-94.5,415z
       M-157.9,414.3H-95l31.5-54.6L-95,305h-62.9l-31.5,54.6L-157.9,414.3z"/>
    <path class="st2" d="M-94.5,525h-63.8l-0.1-0.2l-31.8-55.2l0.1-0.2l31.8-55.2h63.8l0.1,0.2l31.8,55.2l-0.1,0.2L-94.5,525z
       M-157.9,524.3H-95l31.5-54.6L-95,415h-62.9l-31.5,54.6L-157.9,524.3z"/>
    <path class="st2" d="M-94.5,635h-63.8l-0.1-0.2l-31.8-55.2l0.1-0.2l31.8-55.2h63.8l0.1,0.2l31.8,55.2l-0.1,0.2L-94.5,635z
       M-157.9,634.3H-95l31.5-54.6L-95,525h-62.9l-31.5,54.6L-157.9,634.3z"/>
    <path class="st2" d="M-94.5,745h-63.8l-0.1-0.2l-31.8-55.2l0.1-0.2l31.8-55.2h63.8l0.1,0.2l31.8,55.2l-0.1,0.2L-94.5,745z
       M-157.9,744.3H-95l31.5-54.6L-95,635h-62.9l-31.5,54.6L-157.9,744.3z"/>
    <path class="st2" d="M-189.1,140h-63.8l-0.1-0.2l-31.8-55.2l0.1-0.2l31.8-55.2h63.8l0.1,0.2l31.8,55.2l-0.1,0.2L-189.1,140z
       M-252.5,139.3h62.9l31.5-54.6L-189.6,30h-62.9l-31.5,54.6L-252.5,139.3z"/>
    <path class="st2" d="M-189.1,250h-63.8l-0.1-0.2l-31.8-55.2l0.1-0.2l31.8-55.2h63.8l0.1,0.2l31.8,55.2l-0.1,0.2L-189.1,250z
       M-252.5,249.3h62.9l31.5-54.6l-31.5-54.6h-62.9l-31.5,54.6L-252.5,249.3z"/>
    <path class="st2" d="M-189.1,360h-63.8l-0.1-0.2l-31.8-55.2l0.1-0.2l31.8-55.2h63.8l0.1,0.2l31.8,55.2l-0.1,0.2L-189.1,360z
       M-252.5,359.3h62.9l31.5-54.6l-31.5-54.6h-62.9l-31.5,54.6L-252.5,359.3z"/>
    <path class="st2" d="M-189.1,470h-63.8l-0.1-0.2l-31.8-55.2l0.1-0.2l31.8-55.2h63.8l0.1,0.2l31.8,55.2l-0.1,0.2L-189.1,470z
       M-252.5,469.3h62.9l31.5-54.6l-31.5-54.6h-62.9l-31.5,54.6L-252.5,469.3z"/>
    <path class="st2" d="M-189.1,580h-63.8l-0.1-0.2l-31.8-55.2l0.1-0.2l31.8-55.2h63.8l0.1,0.2l31.8,55.2l-0.1,0.2L-189.1,580z
       M-252.5,579.3h62.9l31.5-54.6l-31.5-54.6h-62.9l-31.5,54.6L-252.5,579.3z"/>
    <path class="st2" d="M-189.1,690h-63.8l-0.1-0.2l-31.8-55.2l0.1-0.2l31.8-55.2h63.8l0.1,0.2l31.8,55.2l-0.1,0.2L-189.1,690z
       M-252.5,689.3h62.9l31.5-54.6l-31.5-54.6h-62.9l-31.5,54.6L-252.5,689.3z"/>
    <path class="st2" d="M-189.1,800h-63.8l-0.1-0.2l-31.8-55.2l0.1-0.2l31.8-55.2h63.8l0.1,0.2l31.8,55.2l-0.1,0.2L-189.1,800z
       M-252.5,799.3h62.9l31.5-54.6l-31.5-54.6h-62.9l-31.5,54.6L-252.5,799.3z"/>
    <path class="st2" d="M0.9,30h-63.8l-0.1-0.2l-31.8-55.2l0.1-0.2l31.8-55.2H0.9L1-80.6l31.8,55.2l-0.1,0.2L0.9,30z M-62.5,29.3H0.4
      l31.5-54.6L0.4-80h-62.9l-31.5,54.6L-62.5,29.3z"/>
    <path class="st2" d="M95.5-25H31.7l-0.1-0.2L-0.2-80.4l0.1-0.2l31.8-55.2h63.8l0.1,0.2l31.8,55.2l-0.1,0.2L95.5-25z M32.1-25.8H95
      l31.5-54.6L95-135H32.1L0.6-80.4L32.1-25.8z"/>
    <path class="st2" d="M95.5,85H31.7l-0.1-0.2L-0.2,29.6l0.1-0.2l31.8-55.2h63.8l0.1,0.2l31.8,55.2l-0.1,0.2L95.5,85z M32.1,84.3H95
      l31.5-54.6L95-25H32.1L0.6,29.6L32.1,84.3z"/>
    <path class="st2" d="M95.5,195H31.7l-0.1-0.2l-31.8-55.2l0.1-0.2l31.8-55.2h63.8l0.1,0.2l31.8,55.2l-0.1,0.2L95.5,195z
       M32.1,194.3H95l31.5-54.6L95,85H32.1L0.6,139.6L32.1,194.3z"/>
    <path class="st2" d="M95.5,305H31.7l-0.1-0.2l-31.8-55.2l0.1-0.2l31.8-55.2h63.8l0.1,0.2l31.8,55.2l-0.1,0.2L95.5,305z
       M32.1,304.3H95l31.5-54.6L95,195H32.1L0.6,249.6L32.1,304.3z"/>
    <path class="st2" d="M95.5,415H31.7l-0.1-0.2l-31.8-55.2l0.1-0.2l31.8-55.2h63.8l0.1,0.2l31.8,55.2l-0.1,0.2L95.5,415z
       M32.1,414.3H95l31.5-54.6L95,305H32.1L0.6,359.6L32.1,414.3z"/>
    <path class="st2" d="M95.5,525H31.7l-0.1-0.2l-31.8-55.2l0.1-0.2l31.8-55.2h63.8l0.1,0.2l31.8,55.2l-0.1,0.2L95.5,525z
       M32.1,524.3H95l31.5-54.6L95,415H32.1L0.6,469.6L32.1,524.3z"/>
    <path class="st2" d="M95.5,635H31.7l-0.1-0.2l-31.8-55.2l0.1-0.2l31.8-55.2h63.8l0.1,0.2l31.8,55.2l-0.1,0.2L95.5,635z
       M32.1,634.3H95l31.5-54.6L95,525H32.1L0.6,579.6L32.1,634.3z"/>
    <path class="st2" d="M95.5,745H31.7l-0.1-0.2l-31.8-55.2l0.1-0.2l31.8-55.2h63.8l0.1,0.2l31.8,55.2l-0.1,0.2L95.5,745z
       M32.1,744.3H95l31.5-54.6L95,635H32.1L0.6,689.6L32.1,744.3z"/>
    <path class="st2" d="M0.9,140h-63.8l-0.1-0.2l-31.8-55.2l0.1-0.2l31.8-55.2H0.9L1,29.4l31.8,55.2l-0.1,0.2L0.9,140z M-62.5,139.3
      H0.4l31.5-54.6L0.4,30h-62.9l-31.5,54.6L-62.5,139.3z"/>
    <path class="st2" d="M0.9,250h-63.8l-0.1-0.2l-31.8-55.2l0.1-0.2l31.8-55.2H0.9l0.1,0.2l31.8,55.2l-0.1,0.2L0.9,250z M-62.5,249.3
      H0.4l31.5-54.6L0.4,140h-62.9l-31.5,54.6L-62.5,249.3z"/>
    <path class="st2" d="M0.9,360h-63.8l-0.1-0.2l-31.8-55.2l0.1-0.2l31.8-55.2H0.9l0.1,0.2l31.8,55.2l-0.1,0.2L0.9,360z M-62.5,359.3
      H0.4l31.5-54.6L0.4,250h-62.9l-31.5,54.6L-62.5,359.3z"/>
    <path class="st2" d="M0.9,470h-63.8l-0.1-0.2l-31.8-55.2l0.1-0.2l31.8-55.2H0.9l0.1,0.2l31.8,55.2l-0.1,0.2L0.9,470z M-62.5,469.3
      H0.4l31.5-54.6L0.4,360h-62.9l-31.5,54.6L-62.5,469.3z"/>
    <path class="st2" d="M0.9,580h-63.8l-0.1-0.2l-31.8-55.2l0.1-0.2l31.8-55.2H0.9l0.1,0.2l31.8,55.2l-0.1,0.2L0.9,580z M-62.5,579.3
      H0.4l31.5-54.6L0.4,470h-62.9l-31.5,54.6L-62.5,579.3z"/>
    <path class="st2" d="M0.9,690h-63.8l-0.1-0.2l-31.8-55.2l0.1-0.2l31.8-55.2H0.9l0.1,0.2l31.8,55.2l-0.1,0.2L0.9,690z M-62.5,689.3
      H0.4l31.5-54.6L0.4,580h-62.9l-31.5,54.6L-62.5,689.3z"/>
    <path class="st2" d="M0.9,800h-63.8l-0.1-0.2l-31.8-55.2l0.1-0.2l31.8-55.2H0.9l0.1,0.2l31.8,55.2l-0.1,0.2L0.9,800z M-62.5,799.3
      H0.4l31.5-54.6L0.4,690h-62.9l-31.5,54.6L-62.5,799.3z"/>
    <path class="st2" d="M190.9,30h-63.8l-0.1-0.2L95.2-25.4l0.1-0.2l31.8-55.2h63.8l0.1,0.2l31.8,55.2l-0.1,0.2L190.9,30z
       M127.5,29.3h62.9l31.5-54.6L190.4-80h-62.9L96.1-25.4L127.5,29.3z"/>
    <path class="st2" d="M285.5-25h-63.8l-0.1-0.2l-31.8-55.2l0.1-0.2l31.8-55.2h63.8l0.1,0.2l31.8,55.2l-0.1,0.2L285.5-25z
       M222.1-25.8H285l31.5-54.6L285-135h-62.9l-31.5,54.6L222.1-25.8z"/>
    <path class="st2" d="M285.5,85h-63.8l-0.1-0.2l-31.8-55.2l0.1-0.2l31.8-55.2h63.8l0.1,0.2l31.8,55.2l-0.1,0.2L285.5,85z
       M222.1,84.3H285l31.5-54.6L285-25h-62.9l-31.5,54.6L222.1,84.3z"/>
    <path class="st2" d="M285.5,195h-63.8l-0.1-0.2l-31.8-55.2l0.1-0.2l31.8-55.2h63.8l0.1,0.2l31.8,55.2l-0.1,0.2L285.5,195z
       M222.1,194.3H285l31.5-54.6L285,85h-62.9l-31.5,54.6L222.1,194.3z"/>
    <path class="st2" d="M285.5,305h-63.8l-0.1-0.2l-31.8-55.2l0.1-0.2l31.8-55.2h63.8l0.1,0.2l31.8,55.2l-0.1,0.2L285.5,305z
       M222.1,304.3H285l31.5-54.6L285,195h-62.9l-31.5,54.6L222.1,304.3z"/>
    <path class="st2" d="M285.5,415h-63.8l-0.1-0.2l-31.8-55.2l0.1-0.2l31.8-55.2h63.8l0.1,0.2l31.8,55.2l-0.1,0.2L285.5,415z
       M222.1,414.3H285l31.5-54.6L285,305h-62.9l-31.5,54.6L222.1,414.3z"/>
    <path class="st2" d="M285.5,525h-63.8l-0.1-0.2l-31.8-55.2l0.1-0.2l31.8-55.2h63.8l0.1,0.2l31.8,55.2l-0.1,0.2L285.5,525z
       M222.1,524.3H285l31.5-54.6L285,415h-62.9l-31.5,54.6L222.1,524.3z"/>
    <path class="st2" d="M285.5,635h-63.8l-0.1-0.2l-31.8-55.2l0.1-0.2l31.8-55.2h63.8l0.1,0.2l31.8,55.2l-0.1,0.2L285.5,635z
       M222.1,634.3H285l31.5-54.6L285,525h-62.9l-31.5,54.6L222.1,634.3z"/>
    <path class="st2" d="M285.5,745h-63.8l-0.1-0.2l-31.8-55.2l0.1-0.2l31.8-55.2h63.8l0.1,0.2l31.8,55.2l-0.1,0.2L285.5,745z
       M222.1,744.3H285l31.5-54.6L285,635h-62.9l-31.5,54.6L222.1,744.3z"/>
    <path class="st2" d="M190.9,140h-63.8l-0.1-0.2L95.2,84.6l0.1-0.2l31.8-55.2h63.8l0.1,0.2l31.8,55.2l-0.1,0.2L190.9,140z
       M127.5,139.3h62.9l31.5-54.6L190.4,30h-62.9L96.1,84.6L127.5,139.3z"/>
    <path class="st2" d="M190.9,250h-63.8l-0.1-0.2l-31.8-55.2l0.1-0.2l31.8-55.2h63.8l0.1,0.2l31.8,55.2l-0.1,0.2L190.9,250z
       M127.5,249.3h62.9l31.5-54.6L190.4,140h-62.9l-31.5,54.6L127.5,249.3z"/>
    <path class="st2" d="M190.9,360h-63.8l-0.1-0.2l-31.8-55.2l0.1-0.2l31.8-55.2h63.8l0.1,0.2l31.8,55.2l-0.1,0.2L190.9,360z
       M127.5,359.3h62.9l31.5-54.6L190.4,250h-62.9l-31.5,54.6L127.5,359.3z"/>
    <path class="st2" d="M190.9,470h-63.8l-0.1-0.2l-31.8-55.2l0.1-0.2l31.8-55.2h63.8l0.1,0.2l31.8,55.2l-0.1,0.2L190.9,470z
       M127.5,469.3h62.9l31.5-54.6L190.4,360h-62.9l-31.5,54.6L127.5,469.3z"/>
    <path class="st2" d="M190.9,580h-63.8l-0.1-0.2l-31.8-55.2l0.1-0.2l31.8-55.2h63.8l0.1,0.2l31.8,55.2l-0.1,0.2L190.9,580z
       M127.5,579.3h62.9l31.5-54.6L190.4,470h-62.9l-31.5,54.6L127.5,579.3z"/>
    <path class="st2" d="M190.9,690h-63.8l-0.1-0.2l-31.8-55.2l0.1-0.2l31.8-55.2h63.8l0.1,0.2l31.8,55.2l-0.1,0.2L190.9,690z
       M127.5,689.3h62.9l31.5-54.6L190.4,580h-62.9l-31.5,54.6L127.5,689.3z"/>
    <path class="st2" d="M190.9,800h-63.8l-0.1-0.2l-31.8-55.2l0.1-0.2l31.8-55.2h63.8l0.1,0.2l31.8,55.2l-0.1,0.2L190.9,800z
       M127.5,799.3h62.9l31.5-54.6L190.4,690h-62.9l-31.5,54.6L127.5,799.3z"/>
    <path class="st2" d="M380.9,30h-63.8l-0.1-0.2l-31.8-55.2l0.1-0.2l31.8-55.2h63.8l0.1,0.2l31.8,55.2l-0.1,0.2L380.9,30z
       M317.5,29.3h62.9l31.5-54.6L380.4-80h-62.9l-31.5,54.6L317.5,29.3z"/>
    <path class="st2" d="M475.5-25h-63.8l-0.1-0.2l-31.8-55.2l0.1-0.2l31.8-55.2h63.8l0.1,0.2l31.8,55.2l-0.1,0.2L475.5-25z
       M412.1-25.8H475l31.5-54.6L475-135h-62.9l-31.5,54.6L412.1-25.8z"/>
    <path class="st2" d="M475.5,85h-63.8l-0.1-0.2l-31.8-55.2l0.1-0.2l31.8-55.2h63.8l0.1,0.2l31.8,55.2l-0.1,0.2L475.5,85z
       M412.1,84.3H475l31.5-54.6L475-25h-62.9l-31.5,54.6L412.1,84.3z"/>
    <path class="st2" d="M475.5,195h-63.8l-0.1-0.2l-31.8-55.2l0.1-0.2l31.8-55.2h63.8l0.1,0.2l31.8,55.2l-0.1,0.2L475.5,195z
       M412.1,194.3H475l31.5-54.6L475,85h-62.9l-31.5,54.6L412.1,194.3z"/>
    <path class="st2" d="M475.5,305h-63.8l-0.1-0.2l-31.8-55.2l0.1-0.2l31.8-55.2h63.8l0.1,0.2l31.8,55.2l-0.1,0.2L475.5,305z
       M412.1,304.3H475l31.5-54.6L475,195h-62.9l-31.5,54.6L412.1,304.3z"/>
    <path class="st2" d="M475.5,415h-63.8l-0.1-0.2l-31.8-55.2l0.1-0.2l31.8-55.2h63.8l0.1,0.2l31.8,55.2l-0.1,0.2L475.5,415z
       M412.1,414.3H475l31.5-54.6L475,305h-62.9l-31.5,54.6L412.1,414.3z"/>
    <path class="st2" d="M475.5,525h-63.8l-0.1-0.2l-31.8-55.2l0.1-0.2l31.8-55.2h63.8l0.1,0.2l31.8,55.2l-0.1,0.2L475.5,525z
       M412.1,524.3H475l31.5-54.6L475,415h-62.9l-31.5,54.6L412.1,524.3z"/>
    <path class="st2" d="M475.5,635h-63.8l-0.1-0.2l-31.8-55.2l0.1-0.2l31.8-55.2h63.8l0.1,0.2l31.8,55.2l-0.1,0.2L475.5,635z
       M412.1,634.3H475l31.5-54.6L475,525h-62.9l-31.5,54.6L412.1,634.3z"/>
    <path class="st2" d="M475.5,745h-63.8l-0.1-0.2l-31.8-55.2l0.1-0.2l31.8-55.2h63.8l0.1,0.2l31.8,55.2l-0.1,0.2L475.5,745z
       M412.1,744.3H475l31.5-54.6L475,635h-62.9l-31.5,54.6L412.1,744.3z"/>
    <path class="st2" d="M380.9,140h-63.8l-0.1-0.2l-31.8-55.2l0.1-0.2l31.8-55.2h63.8l0.1,0.2l31.8,55.2l-0.1,0.2L380.9,140z
       M317.5,139.3h62.9l31.5-54.6L380.4,30h-62.9l-31.5,54.6L317.5,139.3z"/>
    <path class="st2" d="M380.9,250h-63.8l-0.1-0.2l-31.8-55.2l0.1-0.2l31.8-55.2h63.8l0.1,0.2l31.8,55.2l-0.1,0.2L380.9,250z
       M317.5,249.3h62.9l31.5-54.6L380.4,140h-62.9l-31.5,54.6L317.5,249.3z"/>
    <path class="st2" d="M380.9,360h-63.8l-0.1-0.2l-31.8-55.2l0.1-0.2l31.8-55.2h63.8l0.1,0.2l31.8,55.2l-0.1,0.2L380.9,360z
       M317.5,359.3h62.9l31.5-54.6L380.4,250h-62.9l-31.5,54.6L317.5,359.3z"/>
    <path class="st2" d="M380.9,470h-63.8l-0.1-0.2l-31.8-55.2l0.1-0.2l31.8-55.2h63.8l0.1,0.2l31.8,55.2l-0.1,0.2L380.9,470z
       M317.5,469.3h62.9l31.5-54.6L380.4,360h-62.9l-31.5,54.6L317.5,469.3z"/>
    <path class="st2" d="M380.9,580h-63.8l-0.1-0.2l-31.8-55.2l0.1-0.2l31.8-55.2h63.8l0.1,0.2l31.8,55.2l-0.1,0.2L380.9,580z
       M317.5,579.3h62.9l31.5-54.6L380.4,470h-62.9l-31.5,54.6L317.5,579.3z"/>
    <path class="st2" d="M380.9,690h-63.8l-0.1-0.2l-31.8-55.2l0.1-0.2l31.8-55.2h63.8l0.1,0.2l31.8,55.2l-0.1,0.2L380.9,690z
       M317.5,689.3h62.9l31.5-54.6L380.4,580h-62.9l-31.5,54.6L317.5,689.3z"/>
    <path class="st2" d="M380.9,800h-63.8l-0.1-0.2l-31.8-55.2l0.1-0.2l31.8-55.2h63.8l0.1,0.2l31.8,55.2l-0.1,0.2L380.9,800z
       M317.5,799.3h62.9l31.5-54.6L380.4,690h-62.9l-31.5,54.6L317.5,799.3z"/>
    <path class="st2" d="M570.9,30h-63.8l-0.1-0.2l-31.8-55.2l0.1-0.2l31.8-55.2h63.8l0.1,0.2l31.8,55.2l-0.1,0.2L570.9,30z
       M507.5,29.3h62.9l31.5-54.6L570.4-80h-62.9l-31.5,54.6L507.5,29.3z"/>
    <path class="st2" d="M665.5-25h-63.8l-0.1-0.2l-31.8-55.2l0.1-0.2l31.8-55.2h63.8l0.1,0.2l31.8,55.2l-0.1,0.2L665.5-25z
       M602.1-25.8H665l31.5-54.6L665-135h-62.9l-31.5,54.6L602.1-25.8z"/>
    <path class="st2" d="M665.5,85h-63.8l-0.1-0.2l-31.8-55.2l0.1-0.2l31.8-55.2h63.8l0.1,0.2l31.8,55.2l-0.1,0.2L665.5,85z
       M602.1,84.3H665l31.5-54.6L665-25h-62.9l-31.5,54.6L602.1,84.3z"/>
    <path class="st2" d="M665.5,195h-63.8l-0.1-0.2l-31.8-55.2l0.1-0.2l31.8-55.2h63.8l0.1,0.2l31.8,55.2l-0.1,0.2L665.5,195z
       M602.1,194.3H665l31.5-54.6L665,85h-62.9l-31.5,54.6L602.1,194.3z"/>
    <path class="st2" d="M665.5,305h-63.8l-0.1-0.2l-31.8-55.2l0.1-0.2l31.8-55.2h63.8l0.1,0.2l31.8,55.2l-0.1,0.2L665.5,305z
       M602.1,304.3H665l31.5-54.6L665,195h-62.9l-31.5,54.6L602.1,304.3z"/>
    <path class="st2" d="M665.5,415h-63.8l-0.1-0.2l-31.8-55.2l0.1-0.2l31.8-55.2h63.8l0.1,0.2l31.8,55.2l-0.1,0.2L665.5,415z
       M602.1,414.3H665l31.5-54.6L665,305h-62.9l-31.5,54.6L602.1,414.3z"/>
    <path class="st2" d="M665.5,525h-63.8l-0.1-0.2l-31.8-55.2l0.1-0.2l31.8-55.2h63.8l0.1,0.2l31.8,55.2l-0.1,0.2L665.5,525z
       M602.1,524.3H665l31.5-54.6L665,415h-62.9l-31.5,54.6L602.1,524.3z"/>
    <path class="st2" d="M665.5,635h-63.8l-0.1-0.2l-31.8-55.2l0.1-0.2l31.8-55.2h63.8l0.1,0.2l31.8,55.2l-0.1,0.2L665.5,635z
       M602.1,634.3H665l31.5-54.6L665,525h-62.9l-31.5,54.6L602.1,634.3z"/>
    <path class="st2" d="M665.5,745h-63.8l-0.1-0.2l-31.8-55.2l0.1-0.2l31.8-55.2h63.8l0.1,0.2l31.8,55.2l-0.1,0.2L665.5,745z
       M602.1,744.3H665l31.5-54.6L665,635h-62.9l-31.5,54.6L602.1,744.3z"/>
    <path class="st2" d="M570.9,140h-63.8l-0.1-0.2l-31.8-55.2l0.1-0.2l31.8-55.2h63.8l0.1,0.2l31.8,55.2l-0.1,0.2L570.9,140z
       M507.5,139.3h62.9l31.5-54.6L570.4,30h-62.9l-31.5,54.6L507.5,139.3z"/>
    <path class="st2" d="M570.9,250h-63.8l-0.1-0.2l-31.8-55.2l0.1-0.2l31.8-55.2h63.8l0.1,0.2l31.8,55.2l-0.1,0.2L570.9,250z
       M507.5,249.3h62.9l31.5-54.6L570.4,140h-62.9l-31.5,54.6L507.5,249.3z"/>
    <path class="st2" d="M570.9,360h-63.8l-0.1-0.2l-31.8-55.2l0.1-0.2l31.8-55.2h63.8l0.1,0.2l31.8,55.2l-0.1,0.2L570.9,360z
       M507.5,359.3h62.9l31.5-54.6L570.4,250h-62.9l-31.5,54.6L507.5,359.3z"/>
    <path class="st2" d="M570.9,470h-63.8l-0.1-0.2l-31.8-55.2l0.1-0.2l31.8-55.2h63.8l0.1,0.2l31.8,55.2l-0.1,0.2L570.9,470z
       M507.5,469.3h62.9l31.5-54.6L570.4,360h-62.9l-31.5,54.6L507.5,469.3z"/>
    <path class="st2" d="M570.9,580h-63.8l-0.1-0.2l-31.8-55.2l0.1-0.2l31.8-55.2h63.8l0.1,0.2l31.8,55.2l-0.1,0.2L570.9,580z
       M507.5,579.3h62.9l31.5-54.6L570.4,470h-62.9l-31.5,54.6L507.5,579.3z"/>
    <path class="st2" d="M570.9,690h-63.8l-0.1-0.2l-31.8-55.2l0.1-0.2l31.8-55.2h63.8l0.1,0.2l31.8,55.2l-0.1,0.2L570.9,690z
       M507.5,689.3h62.9l31.5-54.6L570.4,580h-62.9l-31.5,54.6L507.5,689.3z"/>
    <path class="st2" d="M570.9,800h-63.8l-0.1-0.2l-31.8-55.2l0.1-0.2l31.8-55.2h63.8l0.1,0.2l31.8,55.2l-0.1,0.2L570.9,800z
       M507.5,799.3h62.9l31.5-54.6L570.4,690h-62.9l-31.5,54.6L507.5,799.3z"/>
  </g>
  <path class="st3" d="M-31-28.7c1.8,0,3.3,1.5,3.3,3.4c0,1.9-1.5,3.4-3.3,3.4s-3.3-1.5-3.3-3.4C-34.3-27.2-32.8-28.7-31-28.7
     M-31-29.7c-2.4,0-4.3,2-4.3,4.4S-33.4-21-31-21s4.3-2,4.3-4.4S-28.6-29.7-31-29.7L-31-29.7z"/>
  <path class="st3" d="M32.3-28.7c1.8,0,3.3,1.5,3.3,3.4c0,1.9-1.5,3.4-3.3,3.4c-1.8,0-3.3-1.5-3.3-3.4C29-27.2,30.5-28.7,32.3-28.7
     M32.3-29.7c-2.4,0-4.3,2-4.3,4.4s1.9,4.4,4.3,4.4c2.4,0,4.3-2,4.3-4.4S34.7-29.7,32.3-29.7L32.3-29.7z"/>
  <path class="st3" d="M158.6-28.7c1.8,0,3.3,1.5,3.3,3.4c0,1.9-1.5,3.4-3.3,3.4s-3.3-1.5-3.3-3.4C155.3-27.2,156.8-28.7,158.6-28.7
     M158.6-29.7c-2.4,0-4.3,2-4.3,4.4s1.9,4.4,4.3,4.4s4.3-2,4.3-4.4S161-29.7,158.6-29.7L158.6-29.7z"/>
  <path class="st3" d="M221.9-28.7c1.8,0,3.3,1.5,3.3,3.4c0,1.9-1.5,3.4-3.3,3.4s-3.3-1.5-3.3-3.4C218.6-27.2,220.1-28.7,221.9-28.7
     M221.9-29.7c-2.4,0-4.3,2-4.3,4.4s1.9,4.4,4.3,4.4s4.3-2,4.3-4.4S224.3-29.7,221.9-29.7L221.9-29.7z"/>
  <path class="st3" d="M348.2-28.7c1.8,0,3.3,1.5,3.3,3.4c0,1.9-1.5,3.4-3.3,3.4c-1.8,0-3.3-1.5-3.3-3.4
    C344.9-27.2,346.4-28.7,348.2-28.7 M348.2-29.7c-2.4,0-4.3,2-4.3,4.4s1.9,4.4,4.3,4.4c2.4,0,4.3-2,4.3-4.4S350.6-29.7,348.2-29.7
    L348.2-29.7z"/>
  <path class="st3" d="M411.5-28.7c1.8,0,3.3,1.5,3.3,3.4c0,1.9-1.5,3.4-3.3,3.4c-1.8,0-3.3-1.5-3.3-3.4
    C408.2-27.2,409.7-28.7,411.5-28.7 M411.5-29.7c-2.4,0-4.3,2-4.3,4.4s2,4.4,4.3,4.4s4.3-2,4.3-4.4S413.9-29.7,411.5-29.7
    L411.5-29.7z"/>
  <path class="st3" d="M537.8-28.7c1.8,0,3.3,1.5,3.3,3.4c0,1.9-1.5,3.4-3.3,3.4c-1.8,0-3.3-1.5-3.3-3.4
    C534.5-27.2,536-28.7,537.8-28.7 M537.8-29.7c-2.4,0-4.3,2-4.3,4.4s1.9,4.4,4.3,4.4s4.3-2,4.3-4.4S540.2-29.7,537.8-29.7
    L537.8-29.7z"/>
  <path class="st3" d="M601.1-28.7c1.8,0,3.3,1.5,3.3,3.4c0,1.9-1.5,3.4-3.3,3.4c-1.8,0-3.3-1.5-3.3-3.4
    C597.8-27.2,599.3-28.7,601.1-28.7 M601.1-29.7c-2.4,0-4.3,2-4.3,4.4s1.9,4.4,4.3,4.4c2.4,0,4.3-2,4.3-4.4S603.5-29.7,601.1-29.7
    L601.1-29.7z"/>
  <path class="st3" d="M727.4-28.7c1.8,0,3.3,1.5,3.3,3.4c0,1.9-1.5,3.4-3.3,3.4s-3.3-1.5-3.3-3.4C724.1-27.2,725.5-28.7,727.4-28.7
     M727.4-29.7c-2.4,0-4.3,2-4.3,4.4s1.9,4.4,4.3,4.4s4.3-2,4.3-4.4S729.8-29.7,727.4-29.7L727.4-29.7z"/>
  <path class="st3" d="M790.7-28.7c1.8,0,3.3,1.5,3.3,3.4c0,1.9-1.5,3.4-3.3,3.4c-1.8,0-3.3-1.5-3.3-3.4
    C787.4-27.2,788.9-28.7,790.7-28.7 M790.7-29.7c-2.4,0-4.3,2-4.3,4.4s1.9,4.4,4.3,4.4c2.4,0,4.3-2,4.3-4.4S793.1-29.7,790.7-29.7
    L790.7-29.7z"/>
  <path class="st3" d="M-125.2,26.3c1.8,0,3.3,1.5,3.3,3.4c0,1.9-1.5,3.4-3.3,3.4s-3.3-1.5-3.3-3.4C-128.5,27.8-127,26.3-125.2,26.3
     M-125.2,25.3c-2.4,0-4.3,2-4.3,4.4s1.9,4.4,4.3,4.4s4.3-2,4.3-4.4S-122.8,25.3-125.2,25.3L-125.2,25.3z"/>
  <path class="st3" d="M-61.9,26.3c1.8,0,3.3,1.5,3.3,3.4c0,1.9-1.5,3.4-3.3,3.4c-1.8,0-3.3-1.5-3.3-3.4
    C-65.2,27.8-63.7,26.3-61.9,26.3 M-61.9,25.3c-2.4,0-4.3,2-4.3,4.4s1.9,4.4,4.3,4.4c2.4,0,4.3-2,4.3-4.4S-59.5,25.3-61.9,25.3
    L-61.9,25.3z"/>
  <path class="st3" d="M63.6,26.3c1.8,0,3.3,1.5,3.3,3.4c0,1.9-1.5,3.4-3.3,3.4s-3.3-1.5-3.3-3.4C60.3,27.8,61.8,26.3,63.6,26.3
     M63.6,25.3c-2.4,0-4.3,2-4.3,4.4s1.9,4.4,4.3,4.4s4.3-2,4.3-4.4S66,25.3,63.6,25.3L63.6,25.3z"/>
  <path class="st3" d="M127.2,26.3c1.8,0,3.3,1.5,3.3,3.4c0,1.9-1.5,3.4-3.3,3.4c-1.8,0-3.3-1.5-3.3-3.4
    C123.9,27.8,125.4,26.3,127.2,26.3 M127.2,25.3c-2.4,0-4.3,2-4.3,4.4s1.9,4.4,4.3,4.4s4.3-2,4.3-4.4S129.6,25.3,127.2,25.3
    L127.2,25.3z"/>
  <path class="st3" d="M254,26.3c1.8,0,3.3,1.5,3.3,3.4c0,1.9-1.5,3.4-3.3,3.4s-3.3-1.5-3.3-3.4C250.7,27.8,252.2,26.3,254,26.3
     M254,25.3c-2.4,0-4.3,2-4.3,4.4s1.9,4.4,4.3,4.4c2.4,0,4.3-2,4.3-4.4S256.4,25.3,254,25.3L254,25.3z"/>
  <path class="st3" d="M317.3,26.3c1.8,0,3.3,1.5,3.3,3.4c0,1.9-1.5,3.4-3.3,3.4s-3.3-1.5-3.3-3.4C314,27.8,315.5,26.3,317.3,26.3
     M317.3,25.3c-2.4,0-4.3,2-4.3,4.4s2,4.4,4.3,4.4s4.3-2,4.3-4.4S319.7,25.3,317.3,25.3L317.3,25.3z"/>
  <path class="st3" d="M443.6,26.3c1.8,0,3.3,1.5,3.3,3.4c0,1.9-1.5,3.4-3.3,3.4c-1.8,0-3.3-1.5-3.3-3.4
    C440.3,27.8,441.8,26.3,443.6,26.3 M443.6,25.3c-2.4,0-4.3,2-4.3,4.4s1.9,4.4,4.3,4.4c2.4,0,4.3-2,4.3-4.4S446,25.3,443.6,25.3
    L443.6,25.3z"/>
  <path class="st3" d="M506.9,26.3c1.8,0,3.3,1.5,3.3,3.4c0,1.9-1.5,3.4-3.3,3.4c-1.8,0-3.3-1.5-3.3-3.4
    C503.6,27.8,505.1,26.3,506.9,26.3 M506.9,25.3c-2.4,0-4.3,2-4.3,4.4s1.9,4.4,4.3,4.4c2.4,0,4.3-2,4.3-4.4S509.3,25.3,506.9,25.3
    L506.9,25.3z"/>
  <path class="st3" d="M633.2,26.3c1.8,0,3.3,1.5,3.3,3.4c0,1.9-1.5,3.4-3.3,3.4c-1.8,0-3.3-1.5-3.3-3.4
    C629.9,27.8,631.4,26.3,633.2,26.3 M633.2,25.3c-2.4,0-4.3,2-4.3,4.4s1.9,4.4,4.3,4.4s4.3-2,4.3-4.4S635.6,25.3,633.2,25.3
    L633.2,25.3z"/>
  <path class="st3" d="M696.5,26.3c1.8,0,3.3,1.5,3.3,3.4c0,1.9-1.5,3.4-3.3,3.4c-1.8,0-3.3-1.5-3.3-3.4
    C693.2,27.8,694.7,26.3,696.5,26.3 M696.5,25.3c-2.4,0-4.3,2-4.3,4.4s1.9,4.4,4.3,4.4c2.4,0,4.3-2,4.3-4.4S698.9,25.3,696.5,25.3
    L696.5,25.3z"/>
  <path class="st3" d="M-31,81.6c1.8,0,3.3,1.5,3.3,3.4s-1.5,3.4-3.3,3.4s-3.3-1.5-3.3-3.4S-32.8,81.6-31,81.6 M-31,80.6
    c-2.4,0-4.3,2-4.3,4.4s1.9,4.4,4.3,4.4s4.3-2,4.3-4.4S-28.6,80.6-31,80.6L-31,80.6z"/>
  <path class="st3" d="M32.2,81.3c1.8,0,3.3,1.5,3.3,3.4S34,88,32.2,88c-1.8,0-3.3-1.5-3.3-3.4S30.4,81.3,32.2,81.3 M32.2,80.3
    c-2.4,0-4.3,2-4.3,4.4s1.9,4.4,4.3,4.4c2.4,0,4.3-2,4.3-4.4S34.6,80.3,32.2,80.3L32.2,80.3z"/>
  <path class="st3" d="M158.6,81.3c1.8,0,3.3,1.5,3.3,3.4s-1.5,3.4-3.3,3.4s-3.3-1.5-3.3-3.4S156.8,81.3,158.6,81.3 M158.6,80.3
    c-2.4,0-4.3,2-4.3,4.4s1.9,4.4,4.3,4.4s4.3-2,4.3-4.4S161,80.3,158.6,80.3L158.6,80.3z"/>
  <path class="st3" d="M221.9,81.6c1.8,0,3.3,1.5,3.3,3.4s-1.5,3.4-3.3,3.4s-3.3-1.5-3.3-3.4S220.1,81.6,221.9,81.6 M221.9,80.6
    c-2.4,0-4.3,2-4.3,4.4s1.9,4.4,4.3,4.4s4.3-2,4.3-4.4S224.3,80.6,221.9,80.6L221.9,80.6z"/>
  <path class="st3" d="M348.2,81.6c1.8,0,3.3,1.5,3.3,3.4s-1.5,3.4-3.3,3.4c-1.8,0-3.3-1.5-3.3-3.4S346.4,81.6,348.2,81.6
     M348.2,80.6c-2.4,0-4.3,2-4.3,4.4s1.9,4.4,4.3,4.4c2.4,0,4.3-2,4.3-4.4S350.6,80.6,348.2,80.6L348.2,80.6z"/>
  <path class="st3" d="M411.5,81.6c1.8,0,3.3,1.5,3.3,3.4s-1.5,3.4-3.3,3.4c-1.8,0-3.3-1.5-3.3-3.4S409.7,81.6,411.5,81.6
     M411.5,80.6c-2.4,0-4.3,2-4.3,4.4s2,4.4,4.3,4.4s4.3-2,4.3-4.4S413.9,80.6,411.5,80.6L411.5,80.6z"/>
  <path class="st3" d="M537.8,81.6c1.8,0,3.3,1.5,3.3,3.4s-1.5,3.4-3.3,3.4c-1.8,0-3.3-1.5-3.3-3.4S536,81.6,537.8,81.6 M537.8,80.6
    c-2.4,0-4.3,2-4.3,4.4s1.9,4.4,4.3,4.4s4.3-2,4.3-4.4S540.2,80.6,537.8,80.6L537.8,80.6z"/>
  <path class="st3" d="M601.1,81.6c1.8,0,3.3,1.5,3.3,3.4s-1.5,3.4-3.3,3.4c-1.8,0-3.3-1.5-3.3-3.4S599.3,81.6,601.1,81.6
     M601.1,80.6c-2.4,0-4.3,2-4.3,4.4s1.9,4.4,4.3,4.4c2.4,0,4.3-2,4.3-4.4S603.5,80.6,601.1,80.6L601.1,80.6z"/>
  <path class="st3" d="M727.4,81.6c1.8,0,3.3,1.5,3.3,3.4s-1.5,3.4-3.3,3.4s-3.3-1.5-3.3-3.4S725.5,81.6,727.4,81.6 M727.4,80.6
    c-2.4,0-4.3,2-4.3,4.4s1.9,4.4,4.3,4.4s4.3-2,4.3-4.4S729.8,80.6,727.4,80.6L727.4,80.6z"/>
  <path class="st3" d="M790.7,81.6c1.8,0,3.3,1.5,3.3,3.4s-1.5,3.4-3.3,3.4c-1.8,0-3.3-1.5-3.3-3.4S788.9,81.6,790.7,81.6
     M790.7,80.6c-2.4,0-4.3,2-4.3,4.4s1.9,4.4,4.3,4.4c2.4,0,4.3-2,4.3-4.4S793.1,80.6,790.7,80.6L790.7,80.6z"/>
  <path class="st3" d="M-125.2,136.6c1.8,0,3.3,1.5,3.3,3.4s-1.5,3.4-3.3,3.4s-3.3-1.5-3.3-3.4S-127,136.6-125.2,136.6 M-125.2,135.6
    c-2.4,0-4.3,2-4.3,4.4s1.9,4.4,4.3,4.4s4.3-2,4.3-4.4S-122.8,135.6-125.2,135.6L-125.2,135.6z"/>
  <path class="st3" d="M-61.9,136.6c1.8,0,3.3,1.5,3.3,3.4s-1.5,3.4-3.3,3.4c-1.8,0-3.3-1.5-3.3-3.4S-63.7,136.6-61.9,136.6
     M-61.9,135.6c-2.4,0-4.3,2-4.3,4.4s1.9,4.4,4.3,4.4c2.4,0,4.3-2,4.3-4.4S-59.5,135.6-61.9,135.6L-61.9,135.6z"/>
  <path class="st3" d="M64.4,136.6c1.8,0,3.3,1.5,3.3,3.4s-1.5,3.4-3.3,3.4c-1.8,0-3.3-1.5-3.3-3.4S62.6,136.6,64.4,136.6
     M64.4,135.6c-2.4,0-4.3,2-4.3,4.4s1.9,4.4,4.3,4.4c2.4,0,4.3-2,4.3-4.4S66.8,135.6,64.4,135.6L64.4,135.6z"/>
  <path class="st3" d="M127.7,136.6c1.8,0,3.3,1.5,3.3,3.4s-1.5,3.4-3.3,3.4c-1.8,0-3.3-1.5-3.3-3.4S125.9,136.6,127.7,136.6
     M127.7,135.6c-2.4,0-4.3,2-4.3,4.4s1.9,4.4,4.3,4.4s4.3-2,4.3-4.4S130.1,135.6,127.7,135.6L127.7,135.6z"/>
  <path class="st3" d="M254,136.6c1.8,0,3.3,1.5,3.3,3.4s-1.5,3.4-3.3,3.4s-3.3-1.5-3.3-3.4S252.2,136.6,254,136.6 M254,135.6
    c-2.4,0-4.3,2-4.3,4.4s1.9,4.4,4.3,4.4c2.4,0,4.3-2,4.3-4.4S256.4,135.6,254,135.6L254,135.6z"/>
  <path class="st3" d="M317.3,136.6c1.8,0,3.3,1.5,3.3,3.4s-1.5,3.4-3.3,3.4s-3.3-1.5-3.3-3.4S315.5,136.6,317.3,136.6 M317.3,135.6
    c-2.4,0-4.3,2-4.3,4.4s2,4.4,4.3,4.4s4.3-2,4.3-4.4S319.7,135.6,317.3,135.6L317.3,135.6z"/>
  <path class="st3" d="M443.6,136.6c1.8,0,3.3,1.5,3.3,3.4s-1.5,3.4-3.3,3.4c-1.8,0-3.3-1.5-3.3-3.4S441.8,136.6,443.6,136.6
     M443.6,135.6c-2.4,0-4.3,2-4.3,4.4s1.9,4.4,4.3,4.4c2.4,0,4.3-2,4.3-4.4S446,135.6,443.6,135.6L443.6,135.6z"/>
  <path class="st3" d="M506.9,136.6c1.8,0,3.3,1.5,3.3,3.4s-1.5,3.4-3.3,3.4c-1.8,0-3.3-1.5-3.3-3.4S505.1,136.6,506.9,136.6
     M506.9,135.6c-2.4,0-4.3,2-4.3,4.4s1.9,4.4,4.3,4.4c2.4,0,4.3-2,4.3-4.4S509.3,135.6,506.9,135.6L506.9,135.6z"/>
  <path class="st3" d="M633.2,136.6c1.8,0,3.3,1.5,3.3,3.4s-1.5,3.4-3.3,3.4c-1.8,0-3.3-1.5-3.3-3.4S631.4,136.6,633.2,136.6
     M633.2,135.6c-2.4,0-4.3,2-4.3,4.4s1.9,4.4,4.3,4.4s4.3-2,4.3-4.4S635.6,135.6,633.2,135.6L633.2,135.6z"/>
  <path class="st3" d="M696.5,136.6c1.8,0,3.3,1.5,3.3,3.4s-1.5,3.4-3.3,3.4c-1.8,0-3.3-1.5-3.3-3.4S694.7,136.6,696.5,136.6
     M696.5,135.6c-2.4,0-4.3,2-4.3,4.4s1.9,4.4,4.3,4.4c2.4,0,4.3-2,4.3-4.4S698.9,135.6,696.5,135.6L696.5,135.6z"/>
  <path class="st3" d="M-31,191c1.8,0,3.3,1.5,3.3,3.4s-1.5,3.4-3.3,3.4s-3.3-1.5-3.3-3.4S-32.8,191-31,191 M-31,190
    c-2.4,0-4.3,2-4.3,4.4s1.9,4.4,4.3,4.4s4.3-2,4.3-4.4S-28.6,190-31,190L-31,190z"/>
  <path class="st3" d="M32.3,191c1.8,0,3.3,1.5,3.3,3.4s-1.5,3.4-3.3,3.4c-1.8,0-3.3-1.5-3.3-3.4S30.5,191,32.3,191 M32.3,190
    c-2.4,0-4.3,2-4.3,4.4s1.9,4.4,4.3,4.4c2.4,0,4.3-2,4.3-4.4S34.7,190,32.3,190L32.3,190z"/>
  <path class="st3" d="M158.6,191c1.8,0,3.3,1.5,3.3,3.4s-1.5,3.4-3.3,3.4s-3.3-1.5-3.3-3.4S156.8,191,158.6,191 M158.6,190
    c-2.4,0-4.3,2-4.3,4.4s1.9,4.4,4.3,4.4s4.3-2,4.3-4.4S161,190,158.6,190L158.6,190z"/>
  <path class="st3" d="M221.9,191c1.8,0,3.3,1.5,3.3,3.4s-1.5,3.4-3.3,3.4s-3.3-1.5-3.3-3.4S220.1,191,221.9,191 M221.9,190
    c-2.4,0-4.3,2-4.3,4.4s1.9,4.4,4.3,4.4s4.3-2,4.3-4.4S224.3,190,221.9,190L221.9,190z"/>
  <path class="st3" d="M348.2,191c1.8,0,3.3,1.5,3.3,3.4s-1.5,3.4-3.3,3.4c-1.8,0-3.3-1.5-3.3-3.4S346.4,191,348.2,191 M348.2,190
    c-2.4,0-4.3,2-4.3,4.4s1.9,4.4,4.3,4.4c2.4,0,4.3-2,4.3-4.4S350.6,190,348.2,190L348.2,190z"/>
  <path class="st3" d="M411.5,191c1.8,0,3.3,1.5,3.3,3.4s-1.5,3.4-3.3,3.4c-1.8,0-3.3-1.5-3.3-3.4S409.7,191,411.5,191 M411.5,190
    c-2.4,0-4.3,2-4.3,4.4s2,4.4,4.3,4.4s4.3-2,4.3-4.4S413.9,190,411.5,190L411.5,190z"/>
  <path class="st3" d="M537.8,191c1.8,0,3.3,1.5,3.3,3.4s-1.5,3.4-3.3,3.4c-1.8,0-3.3-1.5-3.3-3.4S536,191,537.8,191 M537.8,190
    c-2.4,0-4.3,2-4.3,4.4s1.9,4.4,4.3,4.4s4.3-2,4.3-4.4S540.2,190,537.8,190L537.8,190z"/>
  <path class="st3" d="M601.1,191c1.8,0,3.3,1.5,3.3,3.4s-1.5,3.4-3.3,3.4c-1.8,0-3.3-1.5-3.3-3.4S599.3,191,601.1,191 M601.1,190
    c-2.4,0-4.3,2-4.3,4.4s1.9,4.4,4.3,4.4c2.4,0,4.3-2,4.3-4.4S603.5,190,601.1,190L601.1,190z"/>
  <path class="st3" d="M727.4,191c1.8,0,3.3,1.5,3.3,3.4s-1.5,3.4-3.3,3.4s-3.3-1.5-3.3-3.4S725.5,191,727.4,191 M727.4,190
    c-2.4,0-4.3,2-4.3,4.4s1.9,4.4,4.3,4.4s4.3-2,4.3-4.4S729.8,190,727.4,190L727.4,190z"/>
  <path class="st3" d="M790.7,191c1.8,0,3.3,1.5,3.3,3.4s-1.5,3.4-3.3,3.4c-1.8,0-3.3-1.5-3.3-3.4S788.9,191,790.7,191 M790.7,190
    c-2.4,0-4.3,2-4.3,4.4s1.9,4.4,4.3,4.4c2.4,0,4.3-2,4.3-4.4S793.1,190,790.7,190L790.7,190z"/>
  <path class="st3" d="M-125.2,246c1.8,0,3.3,1.5,3.3,3.4s-1.5,3.4-3.3,3.4s-3.3-1.5-3.3-3.4S-127,246-125.2,246 M-125.2,245
    c-2.4,0-4.3,2-4.3,4.4s1.9,4.4,4.3,4.4s4.3-2,4.3-4.4S-122.8,245-125.2,245L-125.2,245z"/>
  <path class="st3" d="M-61.9,246c1.8,0,3.3,1.5,3.3,3.4s-1.5,3.4-3.3,3.4c-1.8,0-3.3-1.5-3.3-3.4S-63.7,246-61.9,246 M-61.9,245
    c-2.4,0-4.3,2-4.3,4.4s1.9,4.4,4.3,4.4c2.4,0,4.3-2,4.3-4.4S-59.5,245-61.9,245L-61.9,245z"/>
  <path class="st3" d="M64.4,246c1.8,0,3.3,1.5,3.3,3.4s-1.5,3.4-3.3,3.4c-1.8,0-3.3-1.5-3.3-3.4S62.6,246,64.4,246 M64.4,245
    c-2.4,0-4.3,2-4.3,4.4s1.9,4.4,4.3,4.4c2.4,0,4.3-2,4.3-4.4S66.8,245,64.4,245L64.4,245z"/>
  <path class="st3" d="M127.7,246c1.8,0,3.3,1.5,3.3,3.4s-1.5,3.4-3.3,3.4c-1.8,0-3.3-1.5-3.3-3.4S125.9,246,127.7,246 M127.7,245
    c-2.4,0-4.3,2-4.3,4.4s1.9,4.4,4.3,4.4s4.3-2,4.3-4.4S130.1,245,127.7,245L127.7,245z"/>
  <path class="st3" d="M254,246c1.8,0,3.3,1.5,3.3,3.4s-1.5,3.4-3.3,3.4s-3.3-1.5-3.3-3.4S252.2,246,254,246 M254,245
    c-2.4,0-4.3,2-4.3,4.4s1.9,4.4,4.3,4.4c2.4,0,4.3-2,4.3-4.4S256.4,245,254,245L254,245z"/>
  <path class="st3" d="M317.3,246c1.8,0,3.3,1.5,3.3,3.4s-1.5,3.4-3.3,3.4s-3.3-1.5-3.3-3.4S315.5,246,317.3,246 M317.3,245
    c-2.4,0-4.3,2-4.3,4.4s2,4.4,4.3,4.4s4.3-2,4.3-4.4S319.7,245,317.3,245L317.3,245z"/>
  <path class="st3" d="M443.6,246c1.8,0,3.3,1.5,3.3,3.4s-1.5,3.4-3.3,3.4c-1.8,0-3.3-1.5-3.3-3.4S441.8,246,443.6,246 M443.6,245
    c-2.4,0-4.3,2-4.3,4.4s1.9,4.4,4.3,4.4c2.4,0,4.3-2,4.3-4.4S446,245,443.6,245L443.6,245z"/>
  <path class="st3" d="M506.9,246c1.8,0,3.3,1.5,3.3,3.4s-1.5,3.4-3.3,3.4c-1.8,0-3.3-1.5-3.3-3.4S505.1,246,506.9,246 M506.9,245
    c-2.4,0-4.3,2-4.3,4.4s1.9,4.4,4.3,4.4c2.4,0,4.3-2,4.3-4.4S509.3,245,506.9,245L506.9,245z"/>
  <path class="st3" d="M633.2,246c1.8,0,3.3,1.5,3.3,3.4s-1.5,3.4-3.3,3.4c-1.8,0-3.3-1.5-3.3-3.4S631.4,246,633.2,246 M633.2,245
    c-2.4,0-4.3,2-4.3,4.4s1.9,4.4,4.3,4.4s4.3-2,4.3-4.4S635.6,245,633.2,245L633.2,245z"/>
  <path class="st3" d="M696.5,246c1.8,0,3.3,1.5,3.3,3.4s-1.5,3.4-3.3,3.4c-1.8,0-3.3-1.5-3.3-3.4S694.7,246,696.5,246 M696.5,245
    c-2.4,0-4.3,2-4.3,4.4s1.9,4.4,4.3,4.4c2.4,0,4.3-2,4.3-4.4S698.9,245,696.5,245L696.5,245z"/>
  <path class="st3" d="M-31,300.3c1.8,0,3.3,1.5,3.3,3.4s-1.5,3.4-3.3,3.4s-3.3-1.5-3.3-3.4S-32.8,300.3-31,300.3 M-31,299.3
    c-2.4,0-4.3,2-4.3,4.4s1.9,4.4,4.3,4.4s4.3-2,4.3-4.4S-28.6,299.3-31,299.3L-31,299.3z"/>
  <path class="st3" d="M32.3,300.3c1.8,0,3.3,1.5,3.3,3.4s-1.5,3.4-3.3,3.4c-1.8,0-3.3-1.5-3.3-3.4S30.5,300.3,32.3,300.3
     M32.3,299.3c-2.4,0-4.3,2-4.3,4.4s1.9,4.4,4.3,4.4c2.4,0,4.3-2,4.3-4.4S34.7,299.3,32.3,299.3L32.3,299.3z"/>
  <path class="st3" d="M158.6,300.3c1.8,0,3.3,1.5,3.3,3.4s-1.5,3.4-3.3,3.4s-3.3-1.5-3.3-3.4S156.8,300.3,158.6,300.3 M158.6,299.3
    c-2.4,0-4.3,2-4.3,4.4s1.9,4.4,4.3,4.4s4.3-2,4.3-4.4S161,299.3,158.6,299.3L158.6,299.3z"/>
  <path class="st3" d="M221.9,300.3c1.8,0,3.3,1.5,3.3,3.4s-1.5,3.4-3.3,3.4s-3.3-1.5-3.3-3.4S220.1,300.3,221.9,300.3 M221.9,299.3
    c-2.4,0-4.3,2-4.3,4.4s1.9,4.4,4.3,4.4s4.3-2,4.3-4.4S224.3,299.3,221.9,299.3L221.9,299.3z"/>
  <path class="st3" d="M348.2,300.3c1.8,0,3.3,1.5,3.3,3.4s-1.5,3.4-3.3,3.4c-1.8,0-3.3-1.5-3.3-3.4S346.4,300.3,348.2,300.3
     M348.2,299.3c-2.4,0-4.3,2-4.3,4.4s1.9,4.4,4.3,4.4c2.4,0,4.3-2,4.3-4.4S350.6,299.3,348.2,299.3L348.2,299.3z"/>
  <path class="st3" d="M411.5,300.3c1.8,0,3.3,1.5,3.3,3.4s-1.5,3.4-3.3,3.4c-1.8,0-3.3-1.5-3.3-3.4S409.7,300.3,411.5,300.3
     M411.5,299.3c-2.4,0-4.3,2-4.3,4.4s2,4.4,4.3,4.4s4.3-2,4.3-4.4S413.9,299.3,411.5,299.3L411.5,299.3z"/>
  <path class="st3" d="M537.8,300.3c1.8,0,3.3,1.5,3.3,3.4s-1.5,3.4-3.3,3.4c-1.8,0-3.3-1.5-3.3-3.4S536,300.3,537.8,300.3
     M537.8,299.3c-2.4,0-4.3,2-4.3,4.4s1.9,4.4,4.3,4.4s4.3-2,4.3-4.4S540.2,299.3,537.8,299.3L537.8,299.3z"/>
  <path class="st3" d="M601.1,300.3c1.8,0,3.3,1.5,3.3,3.4s-1.5,3.4-3.3,3.4c-1.8,0-3.3-1.5-3.3-3.4S599.3,300.3,601.1,300.3
     M601.1,299.3c-2.4,0-4.3,2-4.3,4.4s1.9,4.4,4.3,4.4c2.4,0,4.3-2,4.3-4.4S603.5,299.3,601.1,299.3L601.1,299.3z"/>
  <path class="st3" d="M727.4,300.3c1.8,0,3.3,1.5,3.3,3.4s-1.5,3.4-3.3,3.4s-3.3-1.5-3.3-3.4S725.5,300.3,727.4,300.3 M727.4,299.3
    c-2.4,0-4.3,2-4.3,4.4s1.9,4.4,4.3,4.4s4.3-2,4.3-4.4S729.8,299.3,727.4,299.3L727.4,299.3z"/>
  <path class="st3" d="M790.7,300.3c1.8,0,3.3,1.5,3.3,3.4s-1.5,3.4-3.3,3.4c-1.8,0-3.3-1.5-3.3-3.4S788.9,300.3,790.7,300.3
     M790.7,299.3c-2.4,0-4.3,2-4.3,4.4s1.9,4.4,4.3,4.4c2.4,0,4.3-2,4.3-4.4S793.1,299.3,790.7,299.3L790.7,299.3z"/>
  <path class="st3" d="M-125.2,355.3c1.8,0,3.3,1.5,3.3,3.4c0,1.9-1.5,3.4-3.3,3.4s-3.3-1.5-3.3-3.4
    C-128.5,356.8-127,355.3-125.2,355.3 M-125.2,354.3c-2.4,0-4.3,2-4.3,4.4c0,2.4,1.9,4.4,4.3,4.4s4.3-2,4.3-4.4
    C-120.8,356.3-122.8,354.3-125.2,354.3L-125.2,354.3z"/>
  <path class="st3" d="M-61.9,355.3c1.8,0,3.3,1.5,3.3,3.4c0,1.9-1.5,3.4-3.3,3.4c-1.8,0-3.3-1.5-3.3-3.4
    C-65.2,356.8-63.7,355.3-61.9,355.3 M-61.9,354.3c-2.4,0-4.3,2-4.3,4.4c0,2.4,1.9,4.4,4.3,4.4c2.4,0,4.3-2,4.3-4.4
    C-57.5,356.3-59.5,354.3-61.9,354.3L-61.9,354.3z"/>
  <path class="st3" d="M64.4,355.3c1.8,0,3.3,1.5,3.3,3.4c0,1.9-1.5,3.4-3.3,3.4c-1.8,0-3.3-1.5-3.3-3.4
    C61.1,356.8,62.6,355.3,64.4,355.3 M64.4,354.3c-2.4,0-4.3,2-4.3,4.4c0,2.4,1.9,4.4,4.3,4.4c2.4,0,4.3-2,4.3-4.4
    C68.8,356.3,66.8,354.3,64.4,354.3L64.4,354.3z"/>
  <path class="st3" d="M127.7,355.3c1.8,0,3.3,1.5,3.3,3.4c0,1.9-1.5,3.4-3.3,3.4c-1.8,0-3.3-1.5-3.3-3.4
    C124.4,356.8,125.9,355.3,127.7,355.3 M127.7,354.3c-2.4,0-4.3,2-4.3,4.4c0,2.4,1.9,4.4,4.3,4.4s4.3-2,4.3-4.4
    C132.1,356.3,130.1,354.3,127.7,354.3L127.7,354.3z"/>
  <path class="st3" d="M254,355.3c1.8,0,3.3,1.5,3.3,3.4c0,1.9-1.5,3.4-3.3,3.4s-3.3-1.5-3.3-3.4C250.7,356.8,252.2,355.3,254,355.3
     M254,354.3c-2.4,0-4.3,2-4.3,4.4c0,2.4,1.9,4.4,4.3,4.4c2.4,0,4.3-2,4.3-4.4C258.4,356.3,256.4,354.3,254,354.3L254,354.3z"/>
  <path class="st3" d="M317.3,355.3c1.8,0,3.3,1.5,3.3,3.4c0,1.9-1.5,3.4-3.3,3.4s-3.3-1.5-3.3-3.4
    C314,356.8,315.5,355.3,317.3,355.3 M317.3,354.3c-2.4,0-4.3,2-4.3,4.4c0,2.4,2,4.4,4.3,4.4s4.3-2,4.3-4.4
    C321.7,356.3,319.7,354.3,317.3,354.3L317.3,354.3z"/>
  <path class="st3" d="M443.6,355.3c1.8,0,3.3,1.5,3.3,3.4c0,1.9-1.5,3.4-3.3,3.4c-1.8,0-3.3-1.5-3.3-3.4
    C440.3,356.8,441.8,355.3,443.6,355.3 M443.6,354.3c-2.4,0-4.3,2-4.3,4.4c0,2.4,1.9,4.4,4.3,4.4c2.4,0,4.3-2,4.3-4.4
    C448,356.3,446,354.3,443.6,354.3L443.6,354.3z"/>
  <path class="st3" d="M506.9,355.3c1.8,0,3.3,1.5,3.3,3.4c0,1.9-1.5,3.4-3.3,3.4c-1.8,0-3.3-1.5-3.3-3.4
    C503.6,356.8,505.1,355.3,506.9,355.3 M506.9,354.3c-2.4,0-4.3,2-4.3,4.4c0,2.4,1.9,4.4,4.3,4.4c2.4,0,4.3-2,4.3-4.4
    C511.3,356.3,509.3,354.3,506.9,354.3L506.9,354.3z"/>
  <path class="st3" d="M633.2,355.3c1.8,0,3.3,1.5,3.3,3.4c0,1.9-1.5,3.4-3.3,3.4c-1.8,0-3.3-1.5-3.3-3.4
    C629.9,356.8,631.4,355.3,633.2,355.3 M633.2,354.3c-2.4,0-4.3,2-4.3,4.4c0,2.4,1.9,4.4,4.3,4.4s4.3-2,4.3-4.4
    C637.6,356.3,635.6,354.3,633.2,354.3L633.2,354.3z"/>
  <path class="st3" d="M696.5,355.3c1.8,0,3.3,1.5,3.3,3.4c0,1.9-1.5,3.4-3.3,3.4c-1.8,0-3.3-1.5-3.3-3.4
    C693.2,356.8,694.7,355.3,696.5,355.3 M696.5,354.3c-2.4,0-4.3,2-4.3,4.4c0,2.4,1.9,4.4,4.3,4.4c2.4,0,4.3-2,4.3-4.4
    C700.9,356.3,698.9,354.3,696.5,354.3L696.5,354.3z"/>
  <path class="st3" d="M-31,409.7c1.8,0,3.3,1.5,3.3,3.4c0,1.9-1.5,3.4-3.3,3.4s-3.3-1.5-3.3-3.4C-34.3,411.2-32.8,409.7-31,409.7
     M-31,408.7c-2.4,0-4.3,2-4.3,4.4c0,2.4,1.9,4.4,4.3,4.4s4.3-2,4.3-4.4C-26.6,410.6-28.6,408.7-31,408.7L-31,408.7z"/>
  <path class="st3" d="M32.3,409.7c1.8,0,3.3,1.5,3.3,3.4c0,1.9-1.5,3.4-3.3,3.4c-1.8,0-3.3-1.5-3.3-3.4
    C29,411.2,30.5,409.7,32.3,409.7 M32.3,408.7c-2.4,0-4.3,2-4.3,4.4c0,2.4,1.9,4.4,4.3,4.4c2.4,0,4.3-2,4.3-4.4
    C36.7,410.6,34.7,408.7,32.3,408.7L32.3,408.7z"/>
  <path class="st3" d="M158.6,409.7c1.8,0,3.3,1.5,3.3,3.4c0,1.9-1.5,3.4-3.3,3.4s-3.3-1.5-3.3-3.4
    C155.3,411.2,156.8,409.7,158.6,409.7 M158.6,408.7c-2.4,0-4.3,2-4.3,4.4c0,2.4,1.9,4.4,4.3,4.4s4.3-2,4.3-4.4
    C163,410.6,161,408.7,158.6,408.7L158.6,408.7z"/>
  <path class="st3" d="M221.9,409.7c1.8,0,3.3,1.5,3.3,3.4c0,1.9-1.5,3.4-3.3,3.4s-3.3-1.5-3.3-3.4
    C218.6,411.2,220.1,409.7,221.9,409.7 M221.9,408.7c-2.4,0-4.3,2-4.3,4.4c0,2.4,1.9,4.4,4.3,4.4s4.3-2,4.3-4.4
    C226.3,410.6,224.3,408.7,221.9,408.7L221.9,408.7z"/>
  <path class="st3" d="M348.2,409.7c1.8,0,3.3,1.5,3.3,3.4c0,1.9-1.5,3.4-3.3,3.4c-1.8,0-3.3-1.5-3.3-3.4
    C344.9,411.2,346.4,409.7,348.2,409.7 M348.2,408.7c-2.4,0-4.3,2-4.3,4.4c0,2.4,1.9,4.4,4.3,4.4c2.4,0,4.3-2,4.3-4.4
    C352.6,410.6,350.6,408.7,348.2,408.7L348.2,408.7z"/>
  <path class="st3" d="M411.5,409.7c1.8,0,3.3,1.5,3.3,3.4c0,1.9-1.5,3.4-3.3,3.4c-1.8,0-3.3-1.5-3.3-3.4
    C408.2,411.2,409.7,409.7,411.5,409.7 M411.5,408.7c-2.4,0-4.3,2-4.3,4.4c0,2.4,2,4.4,4.3,4.4s4.3-2,4.3-4.4
    C415.9,410.6,413.9,408.7,411.5,408.7L411.5,408.7z"/>
  <path class="st3" d="M537.8,409.7c1.8,0,3.3,1.5,3.3,3.4c0,1.9-1.5,3.4-3.3,3.4c-1.8,0-3.3-1.5-3.3-3.4
    C534.5,411.2,536,409.7,537.8,409.7 M537.8,408.7c-2.4,0-4.3,2-4.3,4.4c0,2.4,1.9,4.4,4.3,4.4s4.3-2,4.3-4.4
    C542.1,410.6,540.2,408.7,537.8,408.7L537.8,408.7z"/>
  <path class="st3" d="M601.1,409.7c1.8,0,3.3,1.5,3.3,3.4c0,1.9-1.5,3.4-3.3,3.4c-1.8,0-3.3-1.5-3.3-3.4
    C597.8,411.2,599.3,409.7,601.1,409.7 M601.1,408.7c-2.4,0-4.3,2-4.3,4.4c0,2.4,1.9,4.4,4.3,4.4c2.4,0,4.3-2,4.3-4.4
    C605.5,410.6,603.5,408.7,601.1,408.7L601.1,408.7z"/>
  <path class="st3" d="M727.4,409.7c1.8,0,3.3,1.5,3.3,3.4c0,1.9-1.5,3.4-3.3,3.4s-3.3-1.5-3.3-3.4
    C724.1,411.2,725.5,409.7,727.4,409.7 M727.4,408.7c-2.4,0-4.3,2-4.3,4.4c0,2.4,1.9,4.4,4.3,4.4s4.3-2,4.3-4.4
    C731.7,410.6,729.8,408.7,727.4,408.7L727.4,408.7z"/>
  <path class="st3" d="M790.7,409.7c1.8,0,3.3,1.5,3.3,3.4c0,1.9-1.5,3.4-3.3,3.4c-1.8,0-3.3-1.5-3.3-3.4
    C787.4,411.2,788.9,409.7,790.7,409.7 M790.7,408.7c-2.4,0-4.3,2-4.3,4.4c0,2.4,1.9,4.4,4.3,4.4c2.4,0,4.3-2,4.3-4.4
    C795,410.6,793.1,408.7,790.7,408.7L790.7,408.7z"/>
  <path class="st3" d="M-125.2,464.7c1.8,0,3.3,1.5,3.3,3.4c0,1.9-1.5,3.4-3.3,3.4s-3.3-1.5-3.3-3.4
    C-128.5,466.2-127,464.7-125.2,464.7 M-125.2,463.7c-2.4,0-4.3,2-4.3,4.4c0,2.4,1.9,4.4,4.3,4.4s4.3-2,4.3-4.4
    C-120.8,465.6-122.8,463.7-125.2,463.7L-125.2,463.7z"/>
  <path class="st3" d="M-61.9,464.7c1.8,0,3.3,1.5,3.3,3.4c0,1.9-1.5,3.4-3.3,3.4c-1.8,0-3.3-1.5-3.3-3.4
    C-65.2,466.2-63.7,464.7-61.9,464.7 M-61.9,463.7c-2.4,0-4.3,2-4.3,4.4c0,2.4,1.9,4.4,4.3,4.4c2.4,0,4.3-2,4.3-4.4
    C-57.5,465.6-59.5,463.7-61.9,463.7L-61.9,463.7z"/>
  <path class="st3" d="M64.4,464.7c1.8,0,3.3,1.5,3.3,3.4c0,1.9-1.5,3.4-3.3,3.4c-1.8,0-3.3-1.5-3.3-3.4
    C61.1,466.2,62.6,464.7,64.4,464.7 M64.4,463.7c-2.4,0-4.3,2-4.3,4.4c0,2.4,1.9,4.4,4.3,4.4c2.4,0,4.3-2,4.3-4.4
    C68.8,465.6,66.8,463.7,64.4,463.7L64.4,463.7z"/>
  <path class="st3" d="M127.7,464.7c1.8,0,3.3,1.5,3.3,3.4c0,1.9-1.5,3.4-3.3,3.4c-1.8,0-3.3-1.5-3.3-3.4
    C124.4,466.2,125.9,464.7,127.7,464.7 M127.7,463.7c-2.4,0-4.3,2-4.3,4.4c0,2.4,1.9,4.4,4.3,4.4s4.3-2,4.3-4.4
    C132.1,465.6,130.1,463.7,127.7,463.7L127.7,463.7z"/>
  <path class="st3" d="M254,464.7c1.8,0,3.3,1.5,3.3,3.4c0,1.9-1.5,3.4-3.3,3.4s-3.3-1.5-3.3-3.4C250.7,466.2,252.2,464.7,254,464.7
     M254,463.7c-2.4,0-4.3,2-4.3,4.4c0,2.4,1.9,4.4,4.3,4.4c2.4,0,4.3-2,4.3-4.4C258.4,465.6,256.4,463.7,254,463.7L254,463.7z"/>
  <path class="st3" d="M317.3,464.7c1.8,0,3.3,1.5,3.3,3.4c0,1.9-1.5,3.4-3.3,3.4s-3.3-1.5-3.3-3.4
    C314,466.2,315.5,464.7,317.3,464.7 M317.3,463.7c-2.4,0-4.3,2-4.3,4.4c0,2.4,2,4.4,4.3,4.4s4.3-2,4.3-4.4
    C321.7,465.6,319.7,463.7,317.3,463.7L317.3,463.7z"/>
  <path class="st3" d="M443.6,464.7c1.8,0,3.3,1.5,3.3,3.4c0,1.9-1.5,3.4-3.3,3.4c-1.8,0-3.3-1.5-3.3-3.4
    C440.3,466.2,441.8,464.7,443.6,464.7 M443.6,463.7c-2.4,0-4.3,2-4.3,4.4c0,2.4,1.9,4.4,4.3,4.4c2.4,0,4.3-2,4.3-4.4
    C448,465.6,446,463.7,443.6,463.7L443.6,463.7z"/>
  <path class="st3" d="M506.9,464.7c1.8,0,3.3,1.5,3.3,3.4c0,1.9-1.5,3.4-3.3,3.4c-1.8,0-3.3-1.5-3.3-3.4
    C503.6,466.2,505.1,464.7,506.9,464.7 M506.9,463.7c-2.4,0-4.3,2-4.3,4.4c0,2.4,1.9,4.4,4.3,4.4c2.4,0,4.3-2,4.3-4.4
    C511.3,465.6,509.3,463.7,506.9,463.7L506.9,463.7z"/>
  <path class="st3" d="M633.2,464.7c1.8,0,3.3,1.5,3.3,3.4c0,1.9-1.5,3.4-3.3,3.4c-1.8,0-3.3-1.5-3.3-3.4
    C629.9,466.2,631.4,464.7,633.2,464.7 M633.2,463.7c-2.4,0-4.3,2-4.3,4.4c0,2.4,1.9,4.4,4.3,4.4s4.3-2,4.3-4.4
    C637.6,465.6,635.6,463.7,633.2,463.7L633.2,463.7z"/>
  <path class="st3" d="M696.5,464.7c1.8,0,3.3,1.5,3.3,3.4c0,1.9-1.5,3.4-3.3,3.4c-1.8,0-3.3-1.5-3.3-3.4
    C693.2,466.2,694.7,464.7,696.5,464.7 M696.5,463.7c-2.4,0-4.3,2-4.3,4.4c0,2.4,1.9,4.4,4.3,4.4c2.4,0,4.3-2,4.3-4.4
    C700.9,465.6,698.9,463.7,696.5,463.7L696.5,463.7z"/>
  <path class="st3" d="M-31,519c1.8,0,3.3,1.5,3.3,3.4c0,1.9-1.5,3.4-3.3,3.4s-3.3-1.5-3.3-3.4C-34.3,520.6-32.8,519-31,519 M-31,518
    c-2.4,0-4.3,2-4.3,4.4c0,2.4,1.9,4.4,4.3,4.4s4.3-2,4.3-4.4C-26.6,520-28.6,518-31,518L-31,518z"/>
  <path class="st3" d="M32.3,519c1.8,0,3.3,1.5,3.3,3.4c0,1.9-1.5,3.4-3.3,3.4c-1.8,0-3.3-1.5-3.3-3.4C29,520.6,30.5,519,32.3,519
     M32.3,518c-2.4,0-4.3,2-4.3,4.4c0,2.4,1.9,4.4,4.3,4.4c2.4,0,4.3-2,4.3-4.4C36.7,520,34.7,518,32.3,518L32.3,518z"/>
  <path class="st3" d="M158.6,519c1.8,0,3.3,1.5,3.3,3.4c0,1.9-1.5,3.4-3.3,3.4s-3.3-1.5-3.3-3.4C155.3,520.6,156.8,519,158.6,519
     M158.6,518c-2.4,0-4.3,2-4.3,4.4c0,2.4,1.9,4.4,4.3,4.4s4.3-2,4.3-4.4C163,520,161,518,158.6,518L158.6,518z"/>
  <path class="st3" d="M221.9,519c1.8,0,3.3,1.5,3.3,3.4c0,1.9-1.5,3.4-3.3,3.4s-3.3-1.5-3.3-3.4C218.6,520.6,220.1,519,221.9,519
     M221.9,518c-2.4,0-4.3,2-4.3,4.4c0,2.4,1.9,4.4,4.3,4.4s4.3-2,4.3-4.4C226.3,520,224.3,518,221.9,518L221.9,518z"/>
  <path class="st3" d="M348.2,519c1.8,0,3.3,1.5,3.3,3.4c0,1.9-1.5,3.4-3.3,3.4c-1.8,0-3.3-1.5-3.3-3.4
    C344.9,520.6,346.4,519,348.2,519 M348.2,518c-2.4,0-4.3,2-4.3,4.4c0,2.4,1.9,4.4,4.3,4.4c2.4,0,4.3-2,4.3-4.4
    C352.6,520,350.6,518,348.2,518L348.2,518z"/>
  <path class="st3" d="M411.5,519c1.8,0,3.3,1.5,3.3,3.4c0,1.9-1.5,3.4-3.3,3.4c-1.8,0-3.3-1.5-3.3-3.4
    C408.2,520.6,409.7,519,411.5,519 M411.5,518c-2.4,0-4.3,2-4.3,4.4c0,2.4,2,4.4,4.3,4.4s4.3-2,4.3-4.4
    C415.9,520,413.9,518,411.5,518L411.5,518z"/>
  <path class="st3" d="M537.8,519c1.8,0,3.3,1.5,3.3,3.4c0,1.9-1.5,3.4-3.3,3.4c-1.8,0-3.3-1.5-3.3-3.4
    C534.5,520.6,536,519,537.8,519 M537.8,518c-2.4,0-4.3,2-4.3,4.4c0,2.4,1.9,4.4,4.3,4.4s4.3-2,4.3-4.4
    C542.1,520,540.2,518,537.8,518L537.8,518z"/>
  <path class="st3" d="M601.1,519c1.8,0,3.3,1.5,3.3,3.4c0,1.9-1.5,3.4-3.3,3.4c-1.8,0-3.3-1.5-3.3-3.4
    C597.8,520.6,599.3,519,601.1,519 M601.1,518c-2.4,0-4.3,2-4.3,4.4c0,2.4,1.9,4.4,4.3,4.4c2.4,0,4.3-2,4.3-4.4
    C605.5,520,603.5,518,601.1,518L601.1,518z"/>
  <path class="st3" d="M727.4,519c1.8,0,3.3,1.5,3.3,3.4c0,1.9-1.5,3.4-3.3,3.4s-3.3-1.5-3.3-3.4C724.1,520.6,725.5,519,727.4,519
     M727.4,518c-2.4,0-4.3,2-4.3,4.4c0,2.4,1.9,4.4,4.3,4.4s4.3-2,4.3-4.4C731.7,520,729.8,518,727.4,518L727.4,518z"/>
  <path class="st3" d="M790.7,519c1.8,0,3.3,1.5,3.3,3.4c0,1.9-1.5,3.4-3.3,3.4c-1.8,0-3.3-1.5-3.3-3.4
    C787.4,520.6,788.9,519,790.7,519 M790.7,518c-2.4,0-4.3,2-4.3,4.4c0,2.4,1.9,4.4,4.3,4.4c2.4,0,4.3-2,4.3-4.4
    C795,520,793.1,518,790.7,518L790.7,518z"/>
  <path class="st3" d="M-125.2,574c1.8,0,3.3,1.5,3.3,3.4c0,1.9-1.5,3.4-3.3,3.4s-3.3-1.5-3.3-3.4C-128.5,575.6-127,574-125.2,574
     M-125.2,573c-2.4,0-4.3,2-4.3,4.4c0,2.4,1.9,4.4,4.3,4.4s4.3-2,4.3-4.4C-120.8,575-122.8,573-125.2,573L-125.2,573z"/>
  <path class="st3" d="M-61.9,574c1.8,0,3.3,1.5,3.3,3.4c0,1.9-1.5,3.4-3.3,3.4c-1.8,0-3.3-1.5-3.3-3.4
    C-65.2,575.6-63.7,574-61.9,574 M-61.9,573c-2.4,0-4.3,2-4.3,4.4c0,2.4,1.9,4.4,4.3,4.4c2.4,0,4.3-2,4.3-4.4
    C-57.5,575-59.5,573-61.9,573L-61.9,573z"/>
  <path class="st3" d="M64.4,574c1.8,0,3.3,1.5,3.3,3.4c0,1.9-1.5,3.4-3.3,3.4c-1.8,0-3.3-1.5-3.3-3.4C61.1,575.6,62.6,574,64.4,574
     M64.4,573c-2.4,0-4.3,2-4.3,4.4c0,2.4,1.9,4.4,4.3,4.4c2.4,0,4.3-2,4.3-4.4C68.8,575,66.8,573,64.4,573L64.4,573z"/>
  <path class="st3" d="M127.7,574c1.8,0,3.3,1.5,3.3,3.4c0,1.9-1.5,3.4-3.3,3.4c-1.8,0-3.3-1.5-3.3-3.4
    C124.4,575.6,125.9,574,127.7,574 M127.7,573c-2.4,0-4.3,2-4.3,4.4c0,2.4,1.9,4.4,4.3,4.4s4.3-2,4.3-4.4
    C132.1,575,130.1,573,127.7,573L127.7,573z"/>
  <path class="st3" d="M254,574c1.8,0,3.3,1.5,3.3,3.4c0,1.9-1.5,3.4-3.3,3.4s-3.3-1.5-3.3-3.4C250.7,575.6,252.2,574,254,574
     M254,573c-2.4,0-4.3,2-4.3,4.4c0,2.4,1.9,4.4,4.3,4.4c2.4,0,4.3-2,4.3-4.4C258.4,575,256.4,573,254,573L254,573z"/>
  <path class="st3" d="M317.3,574c1.8,0,3.3,1.5,3.3,3.4c0,1.9-1.5,3.4-3.3,3.4s-3.3-1.5-3.3-3.4C314,575.6,315.5,574,317.3,574
     M317.3,573c-2.4,0-4.3,2-4.3,4.4c0,2.4,2,4.4,4.3,4.4s4.3-2,4.3-4.4C321.7,575,319.7,573,317.3,573L317.3,573z"/>
  <path class="st3" d="M443.6,574c1.8,0,3.3,1.5,3.3,3.4c0,1.9-1.5,3.4-3.3,3.4c-1.8,0-3.3-1.5-3.3-3.4
    C440.3,575.6,441.8,574,443.6,574 M443.6,573c-2.4,0-4.3,2-4.3,4.4c0,2.4,1.9,4.4,4.3,4.4c2.4,0,4.3-2,4.3-4.4
    C448,575,446,573,443.6,573L443.6,573z"/>
  <path class="st3" d="M506.9,574c1.8,0,3.3,1.5,3.3,3.4c0,1.9-1.5,3.4-3.3,3.4c-1.8,0-3.3-1.5-3.3-3.4
    C503.6,575.6,505.1,574,506.9,574 M506.9,573c-2.4,0-4.3,2-4.3,4.4c0,2.4,1.9,4.4,4.3,4.4c2.4,0,4.3-2,4.3-4.4
    C511.3,575,509.3,573,506.9,573L506.9,573z"/>
  <path class="st3" d="M633.2,574c1.8,0,3.3,1.5,3.3,3.4c0,1.9-1.5,3.4-3.3,3.4c-1.8,0-3.3-1.5-3.3-3.4
    C629.9,575.6,631.4,574,633.2,574 M633.2,573c-2.4,0-4.3,2-4.3,4.4c0,2.4,1.9,4.4,4.3,4.4s4.3-2,4.3-4.4
    C637.6,575,635.6,573,633.2,573L633.2,573z"/>
  <path class="st3" d="M696.5,574c1.8,0,3.3,1.5,3.3,3.4c0,1.9-1.5,3.4-3.3,3.4c-1.8,0-3.3-1.5-3.3-3.4
    C693.2,575.6,694.7,574,696.5,574 M696.5,573c-2.4,0-4.3,2-4.3,4.4c0,2.4,1.9,4.4,4.3,4.4c2.4,0,4.3-2,4.3-4.4
    C700.9,575,698.9,573,696.5,573L696.5,573z"/>
  <path class="st3" d="M-31,628.4c1.8,0,3.3,1.5,3.3,3.4c0,1.9-1.5,3.4-3.3,3.4s-3.3-1.5-3.3-3.4C-34.3,629.9-32.8,628.4-31,628.4
     M-31,627.4c-2.4,0-4.3,2-4.3,4.4c0,2.4,1.9,4.4,4.3,4.4s4.3-2,4.3-4.4C-26.6,629.4-28.6,627.4-31,627.4L-31,627.4z"/>
  <path class="st3" d="M32.3,628.4c1.8,0,3.3,1.5,3.3,3.4c0,1.9-1.5,3.4-3.3,3.4c-1.8,0-3.3-1.5-3.3-3.4
    C29,629.9,30.5,628.4,32.3,628.4 M32.3,627.4c-2.4,0-4.3,2-4.3,4.4c0,2.4,1.9,4.4,4.3,4.4c2.4,0,4.3-2,4.3-4.4
    C36.7,629.4,34.7,627.4,32.3,627.4L32.3,627.4z"/>
  <path class="st3" d="M158.6,628.4c1.8,0,3.3,1.5,3.3,3.4c0,1.9-1.5,3.4-3.3,3.4s-3.3-1.5-3.3-3.4
    C155.3,629.9,156.8,628.4,158.6,628.4 M158.6,627.4c-2.4,0-4.3,2-4.3,4.4c0,2.4,1.9,4.4,4.3,4.4s4.3-2,4.3-4.4
    C163,629.4,161,627.4,158.6,627.4L158.6,627.4z"/>
  <path class="st3" d="M221.9,628.4c1.8,0,3.3,1.5,3.3,3.4c0,1.9-1.5,3.4-3.3,3.4s-3.3-1.5-3.3-3.4
    C218.6,629.9,220.1,628.4,221.9,628.4 M221.9,627.4c-2.4,0-4.3,2-4.3,4.4c0,2.4,1.9,4.4,4.3,4.4s4.3-2,4.3-4.4
    C226.3,629.4,224.3,627.4,221.9,627.4L221.9,627.4z"/>
  <path class="st3" d="M348.2,628.4c1.8,0,3.3,1.5,3.3,3.4c0,1.9-1.5,3.4-3.3,3.4c-1.8,0-3.3-1.5-3.3-3.4
    C344.9,629.9,346.4,628.4,348.2,628.4 M348.2,627.4c-2.4,0-4.3,2-4.3,4.4c0,2.4,1.9,4.4,4.3,4.4c2.4,0,4.3-2,4.3-4.4
    C352.6,629.4,350.6,627.4,348.2,627.4L348.2,627.4z"/>
  <path class="st3" d="M411.5,628.4c1.8,0,3.3,1.5,3.3,3.4c0,1.9-1.5,3.4-3.3,3.4c-1.8,0-3.3-1.5-3.3-3.4
    C408.2,629.9,409.7,628.4,411.5,628.4 M411.5,627.4c-2.4,0-4.3,2-4.3,4.4c0,2.4,2,4.4,4.3,4.4s4.3-2,4.3-4.4
    C415.9,629.4,413.9,627.4,411.5,627.4L411.5,627.4z"/>
  <path class="st3" d="M537.8,628.4c1.8,0,3.3,1.5,3.3,3.4c0,1.9-1.5,3.4-3.3,3.4c-1.8,0-3.3-1.5-3.3-3.4
    C534.5,629.9,536,628.4,537.8,628.4 M537.8,627.4c-2.4,0-4.3,2-4.3,4.4c0,2.4,1.9,4.4,4.3,4.4s4.3-2,4.3-4.4
    C542.1,629.4,540.2,627.4,537.8,627.4L537.8,627.4z"/>
  <path class="st3" d="M601.1,628.4c1.8,0,3.3,1.5,3.3,3.4c0,1.9-1.5,3.4-3.3,3.4c-1.8,0-3.3-1.5-3.3-3.4
    C597.8,629.9,599.3,628.4,601.1,628.4 M601.1,627.4c-2.4,0-4.3,2-4.3,4.4c0,2.4,1.9,4.4,4.3,4.4c2.4,0,4.3-2,4.3-4.4
    C605.5,629.4,603.5,627.4,601.1,627.4L601.1,627.4z"/>
  <path class="st3" d="M727.4,628.4c1.8,0,3.3,1.5,3.3,3.4c0,1.9-1.5,3.4-3.3,3.4s-3.3-1.5-3.3-3.4
    C724.1,629.9,725.5,628.4,727.4,628.4 M727.4,627.4c-2.4,0-4.3,2-4.3,4.4c0,2.4,1.9,4.4,4.3,4.4s4.3-2,4.3-4.4
    C731.7,629.4,729.8,627.4,727.4,627.4L727.4,627.4z"/>
  <path class="st3" d="M790.7,628.4c1.8,0,3.3,1.5,3.3,3.4c0,1.9-1.5,3.4-3.3,3.4c-1.8,0-3.3-1.5-3.3-3.4
    C787.4,629.9,788.9,628.4,790.7,628.4 M790.7,627.4c-2.4,0-4.3,2-4.3,4.4c0,2.4,1.9,4.4,4.3,4.4c2.4,0,4.3-2,4.3-4.4
    C795,629.4,793.1,627.4,790.7,627.4L790.7,627.4z"/>
  <path class="st3" d="M-125.2,683.4c1.8,0,3.3,1.5,3.3,3.4c0,1.9-1.5,3.4-3.3,3.4s-3.3-1.5-3.3-3.4
    C-128.5,684.9-127,683.4-125.2,683.4 M-125.2,682.4c-2.4,0-4.3,2-4.3,4.4c0,2.4,1.9,4.4,4.3,4.4s4.3-2,4.3-4.4
    C-120.8,684.4-122.8,682.4-125.2,682.4L-125.2,682.4z"/>
  <path class="st3" d="M-61.9,683.4c1.8,0,3.3,1.5,3.3,3.4c0,1.9-1.5,3.4-3.3,3.4c-1.8,0-3.3-1.5-3.3-3.4
    C-65.2,684.9-63.7,683.4-61.9,683.4 M-61.9,682.4c-2.4,0-4.3,2-4.3,4.4c0,2.4,1.9,4.4,4.3,4.4c2.4,0,4.3-2,4.3-4.4
    C-57.5,684.4-59.5,682.4-61.9,682.4L-61.9,682.4z"/>
  <path class="st3" d="M64.4,683.4c1.8,0,3.3,1.5,3.3,3.4c0,1.9-1.5,3.4-3.3,3.4c-1.8,0-3.3-1.5-3.3-3.4
    C61.1,684.9,62.6,683.4,64.4,683.4 M64.4,682.4c-2.4,0-4.3,2-4.3,4.4c0,2.4,1.9,4.4,4.3,4.4c2.4,0,4.3-2,4.3-4.4
    C68.8,684.4,66.8,682.4,64.4,682.4L64.4,682.4z"/>
  <path class="st3" d="M127.7,683.4c1.8,0,3.3,1.5,3.3,3.4c0,1.9-1.5,3.4-3.3,3.4c-1.8,0-3.3-1.5-3.3-3.4
    C124.4,684.9,125.9,683.4,127.7,683.4 M127.7,682.4c-2.4,0-4.3,2-4.3,4.4c0,2.4,1.9,4.4,4.3,4.4s4.3-2,4.3-4.4
    C132.1,684.4,130.1,682.4,127.7,682.4L127.7,682.4z"/>
  <path class="st3" d="M254,683.4c1.8,0,3.3,1.5,3.3,3.4c0,1.9-1.5,3.4-3.3,3.4s-3.3-1.5-3.3-3.4C250.7,684.9,252.2,683.4,254,683.4
     M254,682.4c-2.4,0-4.3,2-4.3,4.4c0,2.4,1.9,4.4,4.3,4.4c2.4,0,4.3-2,4.3-4.4C258.4,684.4,256.4,682.4,254,682.4L254,682.4z"/>
  <path class="st3" d="M317.3,683.4c1.8,0,3.3,1.5,3.3,3.4c0,1.9-1.5,3.4-3.3,3.4s-3.3-1.5-3.3-3.4
    C314,684.9,315.5,683.4,317.3,683.4 M317.3,682.4c-2.4,0-4.3,2-4.3,4.4c0,2.4,2,4.4,4.3,4.4s4.3-2,4.3-4.4
    C321.7,684.4,319.7,682.4,317.3,682.4L317.3,682.4z"/>
  <path class="st3" d="M443.6,683.4c1.8,0,3.3,1.5,3.3,3.4c0,1.9-1.5,3.4-3.3,3.4c-1.8,0-3.3-1.5-3.3-3.4
    C440.3,684.9,441.8,683.4,443.6,683.4 M443.6,682.4c-2.4,0-4.3,2-4.3,4.4c0,2.4,1.9,4.4,4.3,4.4c2.4,0,4.3-2,4.3-4.4
    C448,684.4,446,682.4,443.6,682.4L443.6,682.4z"/>
  <path class="st3" d="M506.9,683.4c1.8,0,3.3,1.5,3.3,3.4c0,1.9-1.5,3.4-3.3,3.4c-1.8,0-3.3-1.5-3.3-3.4
    C503.6,684.9,505.1,683.4,506.9,683.4 M506.9,682.4c-2.4,0-4.3,2-4.3,4.4c0,2.4,1.9,4.4,4.3,4.4c2.4,0,4.3-2,4.3-4.4
    C511.3,684.4,509.3,682.4,506.9,682.4L506.9,682.4z"/>
  <path class="st3" d="M633.2,683.4c1.8,0,3.3,1.5,3.3,3.4c0,1.9-1.5,3.4-3.3,3.4c-1.8,0-3.3-1.5-3.3-3.4
    C629.9,684.9,631.4,683.4,633.2,683.4 M633.2,682.4c-2.4,0-4.3,2-4.3,4.4c0,2.4,1.9,4.4,4.3,4.4s4.3-2,4.3-4.4
    C637.6,684.4,635.6,682.4,633.2,682.4L633.2,682.4z"/>
  <path class="st3" d="M696.5,683.4c1.8,0,3.3,1.5,3.3,3.4c0,1.9-1.5,3.4-3.3,3.4c-1.8,0-3.3-1.5-3.3-3.4
    C693.2,684.9,694.7,683.4,696.5,683.4 M696.5,682.4c-2.4,0-4.3,2-4.3,4.4c0,2.4,1.9,4.4,4.3,4.4c2.4,0,4.3-2,4.3-4.4
    C700.9,684.4,698.9,682.4,696.5,682.4L696.5,682.4z"/>
  <path class="st3" d="M-31,737.8c1.8,0,3.3,1.5,3.3,3.4c0,1.9-1.5,3.4-3.3,3.4s-3.3-1.5-3.3-3.4C-34.3,739.3-32.8,737.8-31,737.8
     M-31,736.8c-2.4,0-4.3,2-4.3,4.4c0,2.4,1.9,4.4,4.3,4.4s4.3-2,4.3-4.4C-26.6,738.7-28.6,736.8-31,736.8L-31,736.8z"/>
  <path class="st3" d="M32.3,737.8c1.8,0,3.3,1.5,3.3,3.4c0,1.9-1.5,3.4-3.3,3.4c-1.8,0-3.3-1.5-3.3-3.4
    C29,739.3,30.5,737.8,32.3,737.8 M32.3,736.8c-2.4,0-4.3,2-4.3,4.4c0,2.4,1.9,4.4,4.3,4.4c2.4,0,4.3-2,4.3-4.4
    C36.7,738.7,34.7,736.8,32.3,736.8L32.3,736.8z"/>
  <path class="st3" d="M158.6,737.8c1.8,0,3.3,1.5,3.3,3.4c0,1.9-1.5,3.4-3.3,3.4s-3.3-1.5-3.3-3.4
    C155.3,739.3,156.8,737.8,158.6,737.8 M158.6,736.8c-2.4,0-4.3,2-4.3,4.4c0,2.4,1.9,4.4,4.3,4.4s4.3-2,4.3-4.4
    C163,738.7,161,736.8,158.6,736.8L158.6,736.8z"/>
  <path class="st3" d="M221.9,737.8c1.8,0,3.3,1.5,3.3,3.4c0,1.9-1.5,3.4-3.3,3.4s-3.3-1.5-3.3-3.4
    C218.6,739.3,220.1,737.8,221.9,737.8 M221.9,736.8c-2.4,0-4.3,2-4.3,4.4c0,2.4,1.9,4.4,4.3,4.4s4.3-2,4.3-4.4
    C226.3,738.7,224.3,736.8,221.9,736.8L221.9,736.8z"/>
  <path class="st3" d="M348.2,737.8c1.8,0,3.3,1.5,3.3,3.4c0,1.9-1.5,3.4-3.3,3.4c-1.8,0-3.3-1.5-3.3-3.4
    C344.9,739.3,346.4,737.8,348.2,737.8 M348.2,736.8c-2.4,0-4.3,2-4.3,4.4c0,2.4,1.9,4.4,4.3,4.4c2.4,0,4.3-2,4.3-4.4
    C352.6,738.7,350.6,736.8,348.2,736.8L348.2,736.8z"/>
  <path class="st3" d="M411.5,737.8c1.8,0,3.3,1.5,3.3,3.4c0,1.9-1.5,3.4-3.3,3.4c-1.8,0-3.3-1.5-3.3-3.4
    C408.2,739.3,409.7,737.8,411.5,737.8 M411.5,736.8c-2.4,0-4.3,2-4.3,4.4c0,2.4,2,4.4,4.3,4.4s4.3-2,4.3-4.4
    C415.9,738.7,413.9,736.8,411.5,736.8L411.5,736.8z"/>
  <path class="st3" d="M537.8,737.8c1.8,0,3.3,1.5,3.3,3.4c0,1.9-1.5,3.4-3.3,3.4c-1.8,0-3.3-1.5-3.3-3.4
    C534.5,739.3,536,737.8,537.8,737.8 M537.8,736.8c-2.4,0-4.3,2-4.3,4.4c0,2.4,1.9,4.4,4.3,4.4s4.3-2,4.3-4.4
    C542.1,738.7,540.2,736.8,537.8,736.8L537.8,736.8z"/>
  <path class="st3" d="M601.1,737.8c1.8,0,3.3,1.5,3.3,3.4c0,1.9-1.5,3.4-3.3,3.4c-1.8,0-3.3-1.5-3.3-3.4
    C597.8,739.3,599.3,737.8,601.1,737.8 M601.1,736.8c-2.4,0-4.3,2-4.3,4.4c0,2.4,1.9,4.4,4.3,4.4c2.4,0,4.3-2,4.3-4.4
    C605.5,738.7,603.5,736.8,601.1,736.8L601.1,736.8z"/>
  <path class="st3" d="M727.4,737.8c1.8,0,3.3,1.5,3.3,3.4c0,1.9-1.5,3.4-3.3,3.4s-3.3-1.5-3.3-3.4
    C724.1,739.3,725.5,737.8,727.4,737.8 M727.4,736.8c-2.4,0-4.3,2-4.3,4.4c0,2.4,1.9,4.4,4.3,4.4s4.3-2,4.3-4.4
    C731.7,738.7,729.8,736.8,727.4,736.8L727.4,736.8z"/>
  <path class="st3" d="M790.7,737.8c1.8,0,3.3,1.5,3.3,3.4c0,1.9-1.5,3.4-3.3,3.4c-1.8,0-3.3-1.5-3.3-3.4
    C787.4,739.3,788.9,737.8,790.7,737.8 M790.7,736.8c-2.4,0-4.3,2-4.3,4.4c0,2.4,1.9,4.4,4.3,4.4c2.4,0,4.3-2,4.3-4.4
    C795,738.7,793.1,736.8,790.7,736.8L790.7,736.8z"/>
  <path class="st3" d="M-125.2,792.8c1.8,0,3.3,1.5,3.3,3.4c0,1.9-1.5,3.4-3.3,3.4s-3.3-1.5-3.3-3.4
    C-128.5,794.3-127,792.8-125.2,792.8 M-125.2,791.8c-2.4,0-4.3,2-4.3,4.4c0,2.4,1.9,4.4,4.3,4.4s4.3-2,4.3-4.4
    C-120.8,793.7-122.8,791.8-125.2,791.8L-125.2,791.8z"/>
  <path class="st3" d="M-61.9,792.8c1.8,0,3.3,1.5,3.3,3.4c0,1.9-1.5,3.4-3.3,3.4c-1.8,0-3.3-1.5-3.3-3.4
    C-65.2,794.3-63.7,792.8-61.9,792.8 M-61.9,791.8c-2.4,0-4.3,2-4.3,4.4c0,2.4,1.9,4.4,4.3,4.4c2.4,0,4.3-2,4.3-4.4
    C-57.5,793.7-59.5,791.8-61.9,791.8L-61.9,791.8z"/>
  <path class="st3" d="M64.4,792.8c1.8,0,3.3,1.5,3.3,3.4c0,1.9-1.5,3.4-3.3,3.4c-1.8,0-3.3-1.5-3.3-3.4
    C61.1,794.3,62.6,792.8,64.4,792.8 M64.4,791.8c-2.4,0-4.3,2-4.3,4.4c0,2.4,1.9,4.4,4.3,4.4c2.4,0,4.3-2,4.3-4.4
    C68.8,793.7,66.8,791.8,64.4,791.8L64.4,791.8z"/>
  <path class="st3" d="M127.7,792.8c1.8,0,3.3,1.5,3.3,3.4c0,1.9-1.5,3.4-3.3,3.4c-1.8,0-3.3-1.5-3.3-3.4
    C124.4,794.3,125.9,792.8,127.7,792.8 M127.7,791.8c-2.4,0-4.3,2-4.3,4.4c0,2.4,1.9,4.4,4.3,4.4s4.3-2,4.3-4.4
    C132.1,793.7,130.1,791.8,127.7,791.8L127.7,791.8z"/>
  <path class="st3" d="M254,792.8c1.8,0,3.3,1.5,3.3,3.4c0,1.9-1.5,3.4-3.3,3.4s-3.3-1.5-3.3-3.4C250.7,794.3,252.2,792.8,254,792.8
     M254,791.8c-2.4,0-4.3,2-4.3,4.4c0,2.4,1.9,4.4,4.3,4.4c2.4,0,4.3-2,4.3-4.4C258.4,793.7,256.4,791.8,254,791.8L254,791.8z"/>
  <path class="st3" d="M317.3,792.8c1.8,0,3.3,1.5,3.3,3.4c0,1.9-1.5,3.4-3.3,3.4s-3.3-1.5-3.3-3.4
    C314,794.3,315.5,792.8,317.3,792.8 M317.3,791.8c-2.4,0-4.3,2-4.3,4.4c0,2.4,2,4.4,4.3,4.4s4.3-2,4.3-4.4
    C321.7,793.7,319.7,791.8,317.3,791.8L317.3,791.8z"/>
  <path class="st3" d="M443.6,792.8c1.8,0,3.3,1.5,3.3,3.4c0,1.9-1.5,3.4-3.3,3.4c-1.8,0-3.3-1.5-3.3-3.4
    C440.3,794.3,441.8,792.8,443.6,792.8 M443.6,791.8c-2.4,0-4.3,2-4.3,4.4c0,2.4,1.9,4.4,4.3,4.4c2.4,0,4.3-2,4.3-4.4
    C448,793.7,446,791.8,443.6,791.8L443.6,791.8z"/>
  <path class="st3" d="M506.9,792.8c1.8,0,3.3,1.5,3.3,3.4c0,1.9-1.5,3.4-3.3,3.4c-1.8,0-3.3-1.5-3.3-3.4
    C503.6,794.3,505.1,792.8,506.9,792.8 M506.9,791.8c-2.4,0-4.3,2-4.3,4.4c0,2.4,1.9,4.4,4.3,4.4c2.4,0,4.3-2,4.3-4.4
    C511.3,793.7,509.3,791.8,506.9,791.8L506.9,791.8z"/>
  <path class="st3" d="M633.2,792.8c1.8,0,3.3,1.5,3.3,3.4c0,1.9-1.5,3.4-3.3,3.4c-1.8,0-3.3-1.5-3.3-3.4
    C629.9,794.3,631.4,792.8,633.2,792.8 M633.2,791.8c-2.4,0-4.3,2-4.3,4.4c0,2.4,1.9,4.4,4.3,4.4s4.3-2,4.3-4.4
    C637.6,793.7,635.6,791.8,633.2,791.8L633.2,791.8z"/>
  <path class="st3" d="M696.5,792.8c1.8,0,3.3,1.5,3.3,3.4c0,1.9-1.5,3.4-3.3,3.4c-1.8,0-3.3-1.5-3.3-3.4
    C693.2,794.3,694.7,792.8,696.5,792.8 M696.5,791.8c-2.4,0-4.3,2-4.3,4.4c0,2.4,1.9,4.4,4.3,4.4c2.4,0,4.3-2,4.3-4.4
    C700.9,793.7,698.9,791.8,696.5,791.8L696.5,791.8z"/>
</g>
</svg>
