<?xml version="1.0" encoding="utf-8"?>
<!-- Generator: Adobe Illustrator 19.0.0, SVG Export Plug-In . SVG Version: 6.00 Build 0)  -->
<svg version="1.1" id="Layer_1" xmlns="http://www.w3.org/2000/svg" xmlns:xlink="http://www.w3.org/1999/xlink" x="0px" y="0px"
   viewBox="0 0 278.9 417.9" style="enable-background:new 0 0 278.9 417.9;" xml:space="preserve">
<style type="text/css">
  .st0{clip-path:url(#SVGID_2_);}
</style>
<g>
  <g>
    <defs>
      <rect id="SVGID_1_" x="0" y="0" width="278.9" height="417.9"/>
    </defs>
    <clipPath id="SVGID_2_">
      <use xlink:href="#SVGID_1_"  style="overflow:visible;"/>
    </clipPath>
    <path class="st0" fill="#00aeb7" d="M139.3-0.1C62.5-0.1,0,62.4,0,139.2c0,73.9,126.6,266.6,132.1,274.7c1.6,2.4,4.3,3.9,7.3,3.9
      c2.9,0,5.6-1.5,7.3-3.9c5.4-8.1,132.1-200.8,132.1-274.7C278.6,62.4,216.1-0.1,139.3-0.1L139.3-0.1z M139.3,249.1
      c-60.6,0-110-49.3-110-110c0-60.6,49.3-110,110-110c60.6,0,110,49.3,110,110C249.3,199.8,200,249.1,139.3,249.1L139.3,249.1z
       M139.3,200.1"/>
  </g>
</g>
<circle cx="139.4" fill="#00aeb7" cy="139.2" r="53"/>
</svg>
