<?xml version="1.0" encoding="utf-8"?>
<!-- Generator: Adobe Illustrator 19.0.1, SVG Export Plug-In . SVG Version: 6.00 Build 0)  -->
<svg version="1.1" id="Layer_1" xmlns="http://www.w3.org/2000/svg" xmlns:xlink="http://www.w3.org/1999/xlink" x="0px" y="0px"
	 viewBox="-292 383.6 26.4 26.4" style="enable-background:new -292 383.6 26.4 26.4;" xml:space="preserve">
<g>
	<path d="M-278.8,410c-7.3,0-13.2-5.9-13.2-13.2c0-7.3,5.9-13.2,13.2-13.2c7.3,0,13.2,5.9,13.2,13.2
		C-265.6,404.1-271.5,410-278.8,410L-278.8,410z M-278.8,384.4c-6.8,0-12.4,5.6-12.4,12.4c0,6.8,5.6,12.4,12.4,12.4
		c6.8,0,12.4-5.6,12.4-12.4C-266.4,390-272,384.4-278.8,384.4L-278.8,384.4z"/>
	<path d="M-278.8,410c-2.7,0-5.4-0.8-7.6-2.4c-0.1-0.1-0.2-0.2-0.2-0.4c0-0.1,0.1-0.3,0.3-0.3c3.3-1.3,3.8-2.3,3.8-4.2
		c0-0.5-0.1-0.7-0.3-1c-0.3-0.4-0.6-0.9-0.9-2.4c0-0.2-0.1-0.2-0.3-0.3c-0.5-0.2-0.9-0.6-1-2.1c0-0.7,0.3-1.2,0.5-1.4
		c0-0.3-0.1-0.7-0.2-1.2c-0.4-2.1-0.4-4.8,2.7-6.1c2.7-1.1,4.9-0.5,5.6,0.2c0.5,0,1.7,0.1,2.6,1.2c1.3,1.6,0.9,5.1,0.8,6
		c0.2,0.2,0.5,0.6,0.5,1.3c-0.1,1.6-0.6,1.9-1,2.1c-0.2,0.1-0.2,0.1-0.3,0.3c-0.3,1.4-0.6,2-0.9,2.4c-0.2,0.3-0.3,0.5-0.3,1
		c0,1.9,0.5,2.9,3.9,4.1c0.1,0.1,0.1,0.1,0.2,0.2c0,0.1,0.1,0.2-0.1,0.3C-273.4,409-276.1,410-278.8,410L-278.8,410z M-285.3,407.3
		c2,1.2,4.2,1.9,6.5,1.9c2.3,0,4.6-0.6,6.5-1.9c-2.8-1.1-3.7-2.3-3.7-4.6c0-0.8,0.2-1.1,0.5-1.4c0.2-0.4,0.5-0.8,0.8-2
		c0.1-0.6,0.5-0.8,0.7-0.9c0.2-0.1,0.5-0.2,0.6-1.4c0-0.6-0.3-0.8-0.3-0.8c-0.1-0.1-0.2-0.3-0.2-0.4c0.2-1.1,0.5-4.4-0.5-5.6
		c-0.7-0.8-1.9-0.9-2.1-0.9h-0.1c-0.1,0-0.3-0.1-0.3-0.2c-0.2-0.4-2.1-1.1-4.7-0.1s-2.6,3.3-2.3,5.3c0.1,0.8,0.2,1.4,0.2,1.4
		c0,0.2-0.1,0.4-0.2,0.4c0,0-0.3,0.2-0.3,0.8c0.1,1.2,0.3,1.3,0.6,1.4c0.2,0.2,0.6,0.3,0.7,0.9c0.2,1.2,0.5,1.7,0.8,2
		c0.2,0.3,0.5,0.7,0.5,1.4C-281.7,405-282.6,406.2-285.3,407.3L-285.3,407.3z"/>
</g>
</svg>
