<svg xmlns="http://www.w3.org/2000/svg" width="20.906" height="11.87" viewBox="0 0 20.906 11.87">
  <defs>
    <style>
      .cls-1 {
        fill-rule: evenodd;
      }
    </style>
  </defs>
  <path id="vk" class="cls-1" d="M956.984,3541.78a0.625,0.625,0,0,1,.525-0.3c0.108-.01.217-0.02,0.326-0.02,0.885,0,1.771-.01,2.656-0.01a0.977,0.977,0,0,1,.957.62q0.792,1.65,1.64,3.27a3.609,3.609,0,0,0,.944,1.19,1.273,1.273,0,0,0,.314.18,0.418,0.418,0,0,0,.575-0.22,2.848,2.848,0,0,0,.256-1.12,8.281,8.281,0,0,0-.09-2.65,1.088,1.088,0,0,0-.939-0.91c-0.26-.05-0.278-0.12-0.094-0.32a1.357,1.357,0,0,1,.791-0.43,11.664,11.664,0,0,1,3.539-.02,0.867,0.867,0,0,1,.854.98c0.04,0.53,0,1.06-.01,1.59-0.008.7-.025,1.41-0.017,2.11a1.87,1.87,0,0,0,.12.62,0.46,0.46,0,0,0,.814.19,6.751,6.751,0,0,0,1.3-1.63,16.958,16.958,0,0,0,1.439-2.83,0.7,0.7,0,0,1,.864-0.58c1.1-.01,2.193-0.03,3.289-0.03a2.1,2.1,0,0,1,.5.06,0.448,0.448,0,0,1,.355.59,3.376,3.376,0,0,1-.594,1.33c-0.713,1.01-1.454,2.01-2.181,3.02a7.672,7.672,0,0,0-.469.69,0.833,0.833,0,0,0,.13,1.11c0.479,0.49.981,0.96,1.466,1.45a8.871,8.871,0,0,1,1.42,1.73,1.644,1.644,0,0,1,.184.42,0.613,0.613,0,0,1-.621.86c-0.46.05-.925,0.04-1.388,0.05-0.6.02-1.2,0.04-1.8,0.04a2.059,2.059,0,0,1-1.347-.51c-0.415-.36-0.781-0.77-1.168-1.16-0.281-.29-0.558-0.58-0.844-0.86a1.264,1.264,0,0,0-.269-0.18,0.508,0.508,0,0,0-.652.09,1.872,1.872,0,0,0-.516,1.25c-0.024.2-.022,0.41-0.036,0.61a0.636,0.636,0,0,1-.637.68,7.387,7.387,0,0,1-5.046-1.13,11.145,11.145,0,0,1-2.6-2.56,34.212,34.212,0,0,1-3.859-6.79c-0.027-.07-0.055-0.12-0.083-0.18v-0.29Z" transform="translate(-956.969 -3540.94)"/>
</svg>
