<?xml version="1.0" encoding="utf-8"?>
<!-- Generator: Adobe Illustrator 19.0.1, SVG Export Plug-In . SVG Version: 6.00 Build 0)  -->
<svg version="1.1" id="Layer_1" xmlns="http://www.w3.org/2000/svg" xmlns:xlink="http://www.w3.org/1999/xlink" x="0px" y="0px"
	 viewBox="-584 767.2 26.4 26.4" style="enable-background:new -584 767.2 26.4 26.4;" xml:space="preserve">
<g>
	<path d="M-570.8,793.6c-7.3,0-13.2-5.9-13.2-13.2s5.9-13.2,13.2-13.2s13.2,5.9,13.2,13.2S-563.5,793.6-570.8,793.6L-570.8,793.6z
		 M-570.8,768c-6.8,0-12.4,5.6-12.4,12.4s5.6,12.4,12.4,12.4s12.4-5.6,12.4-12.4S-564,768-570.8,768L-570.8,768z"/>
	<path d="M-570.8,793.6c-3.1,0-6.1-1.1-8.5-3.1c-0.1-0.1-0.2-0.2-0.1-0.4c0-0.1,0.1-0.3,0.2-0.3c0.3-0.1,0.7-0.3,1.1-0.4
		c2.1-0.8,3.1-1.4,3.6-2.4c-3.9-1-4.4-3.4-4.4-3.5c0-0.2,0-0.3,0.2-0.4c0.1-0.1,2-1.3,2-4.6c0-3.6,0.7-7.3,6-7.3s6,3.7,6,7.3
		c0,3.3,1.9,4.6,2,4.6c0.1,0.1,0.2,0.2,0.2,0.4c0,0.1-0.5,2.5-4.4,3.5c0.4,0.9,1.5,1.6,3.6,2.4c0.4,0.1,0.8,0.3,1.1,0.4
		c0.1,0.1,0.2,0.2,0.2,0.3s-0.1,0.1-0.2,0.2C-564.8,792.3-567.7,793.6-570.8,793.6L-570.8,793.6z M-578.2,790.3
		c2.1,1.6,4.8,2.5,7.4,2.5c2.7,0,5.3-0.9,7.4-2.5c-0.1-0.1-0.4-0.2-0.4-0.2c-2.7-1-3.8-1.9-4.2-3.3c0,0-0.1-0.2,0-0.3
		c0.1-0.2,0.3-0.2,0.3-0.2c3.1-0.6,4-2.2,4.2-2.8c-0.6-0.5-2.1-2.1-2.1-5.1c0-3.9-0.9-6.5-5.2-6.5c-4.3,0.1-5.2,2.7-5.2,6.6
		c0,3.1-1.5,4.6-2.1,5.1c0.2,0.6,1.1,2.1,4.2,2.7c0,0,0.2,0,0.3,0.2c0.1,0.1,0,0.3,0,0.3c-0.4,1.5-1.5,2.4-4.2,3.3
		C-578,790.2-578.2,790.3-578.2,790.3L-578.2,790.3z"/>
</g>
</svg>
