<svg xmlns="http://www.w3.org/2000/svg" width="65" height="57" viewBox="0 0 65 57">
  <defs>
    <style>
      .cls-1 {
        fill: #00bf81;
        fill-rule: evenodd;
      }
    </style>
  </defs>
  <path id="Фигура_1" data-name="Фигура 1" class="cls-1" d="M490.263,1974.91c10.364,4.9,21.186,6.4,32.275,6.4,11.062-.01,21.859-1.5,32.174-6.38a13.266,13.266,0,0,1,.272,1.87q0.024,15.42,0,30.85a6.3,6.3,0,0,1-6.107,6.31c-0.3.02-.6,0.01-0.9,0.01-16.988,0-33.977-.04-50.966.03a6.711,6.711,0,0,1-7.015-7.12c0.131-9.89.037-19.78,0.05-29.66C490.048,1976.5,490.178,1975.78,490.263,1974.91Zm63.3-2.16c-15.028,8.05-45.434,8.62-62.1.03a6.477,6.477,0,0,1,4.646-2.6,7.32,7.32,0,0,1,.811-0.03q25.614,0,51.228,0A6.694,6.694,0,0,1,553.565,1972.75Zm-22.387-12.06H513.856v1c0,1.61.025,3.23-.013,4.84a1.783,1.783,0,0,1-1.7,1.79,1.735,1.735,0,0,1-1.861-1.61c-0.058-2.18-.107-4.38.018-6.56a3.367,3.367,0,0,1,3.428-3.12c5.859-.04,11.719-0.05,17.578,0a3.5,3.5,0,0,1,3.476,3.67c0.017,1.85.013,3.71,0,5.56a1.819,1.819,0,1,1-3.6-.01C531.169,1964.43,531.178,1962.61,531.178,1960.69Z" transform="translate(-490 -1957)"/>
</svg>
