<svg xmlns="http://www.w3.org/2000/svg" width="20" height="20.188" viewBox="0 0 20 20.188">
  <defs>
    <style>
      .cls-1 {
        fill-rule: evenodd;
        opacity: 0.25;
      }
    </style>
  </defs>
  <path id="basket_icon" data-name="basket icon" class="cls-1" d="M1119,102.966a2.017,2.017,0,1,0,2,2.013,2.013,2.013,0,0,0-2-2.013h0Zm-6-16.14v2.02h2l3.6,7.663-1.4,2.423a3.581,3.581,0,0,0-.2,1,2.015,2.015,0,0,0,2,2.02h12v-2.02h-11.6a0.214,0.214,0,0,1-.2-0.2v-0.1l0.9-1.713h7.4a1.823,1.823,0,0,0,1.7-1.01l3.6-6.555a0.563,0.563,0,0,0,.2-0.508,0.948,0.948,0,0,0-1-1h-14.8l-0.9-2.02H1113Zm16,16.14a2.017,2.017,0,1,0,2,2.013,2.013,2.013,0,0,0-2-2.013h0Zm0,0" transform="translate(-1113 -86.813)"/>
</svg>
