<svg xmlns="http://www.w3.org/2000/svg" width="245" height="266" viewBox="0 0 245 266">
  <defs>
    <style>
      .cls-1 {
        fill: #fff;
        fill-rule: evenodd;
      }
    </style>
  </defs>
  <path id="Фигура_2" data-name="Фигура 2" class="cls-1" d="M558.524,503.407V478H505.246v25.671C450.787,516.03,410,564.52,410,622.319c0,67.089,54.963,121.69,122.5,121.69s122.5-54.6,122.5-121.69c0-58.226-41.377-107-96.47-118.912h0ZM532.5,723.657c-56.266,0-102.008-45.469-102.008-101.338S476.233,520.955,532.5,520.955s102.008,45.469,102.008,101.364c0,55.869-45.742,101.338-102.008,101.338h0Zm0,0,48.163-107.4a47.286,47.286,0,0,0-9.323-23.978l21.634-38.266-37.006,24.8a47.75,47.75,0,0,0-18.858-5.956L531.8,540.644l-5.354,32.419A48.174,48.174,0,0,0,484.356,618l-32.368,5.264,32.954,5.373a47.527,47.527,0,0,0,6.691,17.229l-25.282,44.757,42.305-28.374A48.336,48.336,0,0,0,527.3,668.4l5.251,31.809L537.8,668.4a48.293,48.293,0,0,0,42.653-41.553l32.559-5.318ZM532.5,583.389a37.705,37.705,0,0,1,13.081,2.378L513.9,607.021l-0.688.637-15.639,27.656a37.19,37.19,0,0,1-2.933-14.343A37.736,37.736,0,0,1,532.5,583.389h0Zm-50.7,90.565,35.54-62.909,60.18-40.36-35.512,62.908Zm50.7-15.38a37.737,37.737,0,0,1-14.172-2.8L545.4,637.618l0.716-.637,19.369-34.276a37.3,37.3,0,0,1,4.876,18.266,37.744,37.744,0,0,1-37.858,37.6h0Zm0,0,6.417-37.6a8.338,8.338,0,1,1-8.334-8.286,8.319,8.319,0,0,1,8.334,8.286h0Zm0,0" transform="translate(-410 -478)"/>
</svg>
