<svg xmlns="http://www.w3.org/2000/svg" width="44" height="50" viewBox="0 0 44 50">
  <defs>
    <style>
      .cls-1 {
        fill: #fff;
        fill-rule: evenodd;
      }
    </style>
  </defs>
  <path id="Фигура_2" data-name="Фигура 2" class="cls-1" d="M499.248,2291.71l-0.025-7.82-6.866-3.9,0.051,7.79ZM470,2275.51l14.65,8.32,6.788-3.84v-0.26a0.4,0.4,0,0,1,.23-0.4l14.548-8.28c1.123,0.66-12.3-6.98-14.216-8.05Zm0,0v7.79l0.715,0.41,13.935,7.94v-7.82Zm44,0-6.865-3.93-14.778,8.41h0l6.866,3.9,0.025,7.79,0.2,0.13a0.448,0.448,0,0,1,.256.41v16.4c-1.123.64,12.352-7.01,14.292-8.13v-24.98Zm-29.35,16.14v-7.82l6.788-3.84,0.026,7.79ZM492,2313l6.763-3.85V2292.5l-6.814-3.93-7.044,4-0.051.03h0a0.112,0.112,0,0,1-.077.02h-0.051a0.084,0.084,0,0,1-.076.03,0.073,0.073,0,0,1-.051-0.03h-0.052a0.11,0.11,0,0,1-.076-0.02h0l-0.051-.03-14.42-8.2v16.12Z" transform="translate(-470 -2263)"/>
</svg>
