<?xml version="1.0" encoding="utf-8"?>
<!-- Generator: Adobe Illustrator 19.0.0, SVG Export Plug-In . SVG Version: 6.00 Build 0)  -->
<svg version="1.1" id="Layer_1" xmlns="http://www.w3.org/2000/svg" xmlns:xlink="http://www.w3.org/1999/xlink" x="0px" y="0px"
	 viewBox="0 0 210.8 165.3" style="enable-background:new 0 0 210.8 165.3;" xml:space="preserve">
<path id="XMLID_11452_" d="M201.4,165.3H9.5c-5.2,0-9.5-4.2-9.5-9.5V9.6C0,4.3,4.2,0,9.5,0h60.6c5.2,0,9.4,4.2,9.4,9.4v61.3
	L122,42.4c4.7-3.2,10.8-3.4,15.8-0.8c5,2.7,8.2,7.9,8.2,13.6v14.6L187,42.4c4.7-3.1,10.7-3.4,15.7-0.8l0,0c5,2.7,8.1,7.9,8.1,13.5
	v100.7C210.8,161.1,206.6,165.3,201.4,165.3z M12,153.3h186.8V55.2c0-1.2-0.7-2.4-1.8-3l0,0c-1.1-0.6-2.4-0.5-3.4,0.2l-45.7,30.5
	c-2.8,1.8-6.3,2-9.2,0.4c-2.9-1.6-4.8-4.6-4.8-7.9V55.2c0-1.2-0.7-2.4-1.8-3c-1.1-0.6-2.5-0.5-3.5,0.2L81.5,83.8
	c-2.8,1.8-6.3,2-9.2,0.4c-2.9-1.6-4.8-4.6-4.8-7.9V12H12V153.3z"/>
<path id="XMLID_11451_" d="M115.5,122.5H98.4c-3.6,0-6.4-2.9-6.4-6.4V99c0-3.6,2.9-6.5,6.4-6.5h17.1c3.6,0,6.4,2.9,6.4,6.5V116
	C122,119.6,119.1,122.5,115.5,122.5z M100,114.5h14v-14h-14V114.5z"/>
<path id="XMLID_11454_" d="M179.3,122.5h-17.1c-3.6,0-6.4-2.9-6.4-6.4V99c0-3.6,2.9-6.5,6.4-6.5h17.1c3.5,0,6.4,2.9,6.4,6.5V116
	C185.8,119.6,182.9,122.5,179.3,122.5z M163.8,114.5h14v-14h-14V114.5z"/>
<path id="XMLID_11442_" d="M181.8,116"/>
</svg>
