<svg xmlns="http://www.w3.org/2000/svg" width="21" height="16" viewBox="0 0 21 16">
  <defs>
    <style>
      .cls-1 {
        fill-rule: evenodd;
      }
    </style>
  </defs>
  <path id="Фигура_1" data-name="Фигура 1" class="cls-1" d="M178.881,1212c0.018,0.44.036,0.88,0.054,1.33h-0.87c0.018-.45.036-0.89,0.054-1.33H176q-2.127,7.995-4.253,16h5.72c0.018-.44.036-0.89,0.054-1.33h1.952c0.018,0.44.036,0.89,0.054,1.33h5.72q-2.127-7.995-4.253-16h-2.116Zm-0.9,3.31h1.03c0.05,1.24.1,2.47,0.15,3.7h-1.33c0.05-1.23.1-2.46,0.15-3.7h0Zm-0.38,9.37q0.073-1.845.149-3.69h1.491q0.076,1.845.15,3.69h-1.79Zm0,0,4.778-12.68h-0.72q2.7,7.995,5.39,16H189q-3.308-7.995-6.617-16h0Zm0,0-7.767,0q-3.308,7.995-6.616,16h1.947q2.7-7.995,5.39-16h-0.721Zm0,0" transform="translate(-168 -1212)"/>
</svg>
